<svg xmlns="http://www.w3.org/2000/svg" xmlns:xlink="http://www.w3.org/1999/xlink" width="500" zoomAndPan="magnify" viewBox="0 0 375 374.999991" height="500" preserveAspectRatio="xMidYMid meet" version="1.0"><defs><clipPath id="d8b6abf276"><path d="M 68.371094 68.371094 L 306.871094 68.371094 L 306.871094 306.871094 L 68.371094 306.871094 Z M 68.371094 68.371094 " clip-rule="nonzero"/></clipPath></defs><g clip-path="url(#d8b6abf276)"><path fill="#000000" d="M 187.621094 68.371094 C 185.667969 68.371094 183.71875 68.417969 181.769531 68.511719 C 179.820312 68.609375 177.875 68.753906 175.929688 68.945312 C 173.988281 69.136719 172.050781 69.375 170.121094 69.660156 C 168.191406 69.945312 166.269531 70.28125 164.355469 70.660156 C 162.441406 71.042969 160.539062 71.46875 158.644531 71.941406 C 156.75 72.417969 154.871094 72.9375 153.003906 73.503906 C 151.136719 74.070312 149.28125 74.683594 147.445312 75.339844 C 145.609375 75.996094 143.789062 76.699219 141.984375 77.445312 C 140.179688 78.195312 138.398438 78.984375 136.632812 79.820312 C 134.871094 80.652344 133.125 81.53125 131.40625 82.449219 C 129.683594 83.371094 127.988281 84.332031 126.3125 85.335938 C 124.640625 86.339844 122.992188 87.382812 121.367188 88.464844 C 119.746094 89.550781 118.148438 90.675781 116.582031 91.835938 C 115.015625 93 113.476562 94.199219 111.96875 95.4375 C 110.460938 96.675781 108.980469 97.949219 107.535156 99.261719 C 106.089844 100.570312 104.675781 101.917969 103.296875 103.296875 C 101.917969 104.675781 100.570312 106.089844 99.261719 107.535156 C 97.949219 108.980469 96.675781 110.460938 95.4375 111.96875 C 94.199219 113.476562 93 115.015625 91.835938 116.582031 C 90.675781 118.148438 89.550781 119.746094 88.464844 121.367188 C 87.382812 122.992188 86.339844 124.640625 85.335938 126.3125 C 84.332031 127.988281 83.371094 129.683594 82.449219 131.40625 C 81.53125 133.125 80.652344 134.871094 79.820312 136.632812 C 78.984375 138.398438 78.195312 140.179688 77.445312 141.984375 C 76.699219 143.789062 75.996094 145.609375 75.339844 147.445312 C 74.683594 149.28125 74.070312 151.136719 73.503906 153.003906 C 72.9375 154.871094 72.417969 156.75 71.941406 158.644531 C 71.46875 160.539062 71.042969 162.441406 70.660156 164.355469 C 70.28125 166.269531 69.945312 168.191406 69.660156 170.121094 C 69.375 172.050781 69.136719 173.988281 68.945312 175.929688 C 68.753906 177.875 68.609375 179.820312 68.511719 181.769531 C 68.417969 183.71875 68.371094 185.667969 68.371094 187.621094 C 68.371094 189.570312 68.417969 191.523438 68.511719 193.472656 C 68.609375 195.421875 68.753906 197.367188 68.945312 199.308594 C 69.136719 201.25 69.375 203.1875 69.660156 205.117188 C 69.945312 207.046875 70.28125 208.96875 70.660156 210.882812 C 71.042969 212.796875 71.46875 214.703125 71.941406 216.59375 C 72.417969 218.488281 72.9375 220.367188 73.503906 222.234375 C 74.070312 224.105469 74.683594 225.957031 75.339844 227.792969 C 75.996094 229.632812 76.699219 231.453125 77.445312 233.253906 C 78.195312 235.058594 78.984375 236.839844 79.820312 238.605469 C 80.652344 240.371094 81.53125 242.113281 82.449219 243.832031 C 83.371094 245.554688 84.332031 247.253906 85.335938 248.925781 C 86.339844 250.601562 87.382812 252.25 88.464844 253.871094 C 89.550781 255.492188 90.675781 257.089844 91.835938 258.65625 C 93 260.222656 94.199219 261.761719 95.4375 263.269531 C 96.675781 264.78125 97.949219 266.257812 99.261719 267.703125 C 100.570312 269.148438 101.917969 270.5625 103.296875 271.941406 C 104.675781 273.320312 106.089844 274.667969 107.535156 275.976562 C 108.980469 277.289062 110.460938 278.5625 111.96875 279.800781 C 113.476562 281.039062 115.015625 282.238281 116.582031 283.402344 C 118.148438 284.566406 119.746094 285.6875 121.367188 286.773438 C 122.992188 287.855469 124.640625 288.898438 126.3125 289.902344 C 127.988281 290.90625 129.683594 291.867188 131.40625 292.789062 C 133.125 293.707031 134.871094 294.585938 136.632812 295.421875 C 138.398438 296.253906 140.179688 297.046875 141.984375 297.792969 C 143.789062 298.539062 145.609375 299.242188 147.445312 299.898438 C 149.28125 300.554688 151.136719 301.167969 153.003906 301.734375 C 154.871094 302.300781 156.75 302.820312 158.644531 303.296875 C 160.539062 303.769531 162.441406 304.199219 164.355469 304.578125 C 166.269531 304.957031 168.191406 305.292969 170.121094 305.578125 C 172.050781 305.863281 173.988281 306.105469 175.929688 306.296875 C 177.875 306.488281 179.820312 306.628906 181.769531 306.726562 C 183.71875 306.820312 185.667969 306.871094 187.621094 306.871094 C 189.570312 306.871094 191.523438 306.820312 193.472656 306.726562 C 195.421875 306.628906 197.367188 306.488281 199.308594 306.296875 C 201.25 306.105469 203.1875 305.863281 205.117188 305.578125 C 207.046875 305.292969 208.96875 304.957031 210.882812 304.578125 C 212.796875 304.199219 214.703125 303.769531 216.59375 303.296875 C 218.488281 302.820312 220.367188 302.300781 222.234375 301.734375 C 224.105469 301.167969 225.957031 300.554688 227.792969 299.898438 C 229.632812 299.242188 231.453125 298.539062 233.253906 297.792969 C 235.058594 297.046875 236.839844 296.253906 238.605469 295.421875 C 240.371094 294.585938 242.113281 293.707031 243.832031 292.789062 C 245.554688 291.867188 247.253906 290.90625 248.925781 289.902344 C 250.601562 288.898438 252.25 287.855469 253.871094 286.773438 C 255.492188 285.6875 257.089844 284.566406 258.65625 283.402344 C 260.222656 282.238281 261.761719 281.039062 263.269531 279.800781 C 264.78125 278.5625 266.257812 277.289062 267.703125 275.976562 C 269.148438 274.667969 270.5625 273.320312 271.941406 271.941406 C 273.320312 270.5625 274.667969 269.148438 275.976562 267.703125 C 277.289062 266.257812 278.5625 264.78125 279.800781 263.269531 C 281.039062 261.761719 282.238281 260.222656 283.402344 258.65625 C 284.566406 257.089844 285.6875 255.492188 286.773438 253.871094 C 287.855469 252.25 288.898438 250.601562 289.902344 248.925781 C 290.90625 247.253906 291.867188 245.554688 292.789062 243.832031 C 293.707031 242.113281 294.585938 240.371094 295.421875 238.605469 C 296.253906 236.839844 297.046875 235.058594 297.792969 233.253906 C 298.539062 231.453125 299.242188 229.632812 299.898438 227.792969 C 300.554688 225.957031 301.167969 224.105469 301.734375 222.234375 C 302.300781 220.367188 302.820312 218.488281 303.296875 216.59375 C 303.769531 214.703125 304.199219 212.796875 304.578125 210.882812 C 304.957031 208.96875 305.292969 207.046875 305.578125 205.117188 C 305.863281 203.1875 306.105469 201.25 306.296875 199.308594 C 306.488281 197.367188 306.628906 195.421875 306.726562 193.472656 C 306.820312 191.523438 306.871094 189.570312 306.871094 187.621094 C 306.871094 185.667969 306.820312 183.71875 306.726562 181.769531 C 306.628906 179.820312 306.484375 177.875 306.292969 175.929688 C 306.101562 173.988281 305.863281 172.054688 305.578125 170.121094 C 305.289062 168.191406 304.957031 166.269531 304.574219 164.355469 C 304.195312 162.441406 303.765625 160.539062 303.292969 158.644531 C 302.820312 156.753906 302.296875 154.871094 301.730469 153.003906 C 301.164062 151.136719 300.550781 149.285156 299.894531 147.449219 C 299.238281 145.609375 298.535156 143.789062 297.789062 141.988281 C 297.042969 140.183594 296.25 138.398438 295.414062 136.636719 C 294.582031 134.871094 293.703125 133.128906 292.785156 131.410156 C 291.863281 129.6875 290.902344 127.988281 289.898438 126.316406 C 288.894531 124.640625 287.851562 122.992188 286.769531 121.371094 C 285.683594 119.75 284.558594 118.152344 283.398438 116.585938 C 282.234375 115.019531 281.035156 113.480469 279.796875 111.972656 C 278.558594 110.464844 277.285156 108.984375 275.972656 107.539062 C 274.664062 106.09375 273.316406 104.679688 271.9375 103.300781 C 270.558594 101.921875 269.144531 100.578125 267.699219 99.265625 C 266.253906 97.953125 264.777344 96.679688 263.265625 95.441406 C 261.757812 94.203125 260.21875 93.003906 258.652344 91.839844 C 257.085938 90.679688 255.492188 89.554688 253.867188 88.472656 C 252.246094 87.386719 250.597656 86.34375 248.921875 85.339844 C 247.25 84.335938 245.550781 83.375 243.832031 82.453125 C 242.109375 81.535156 240.367188 80.65625 238.601562 79.824219 C 236.839844 78.988281 235.054688 78.199219 233.253906 77.449219 C 231.449219 76.703125 229.628906 76 227.792969 75.34375 C 225.953125 74.6875 224.101562 74.074219 222.234375 73.507812 C 220.367188 72.941406 218.488281 72.421875 216.59375 71.945312 C 214.699219 71.472656 212.796875 71.042969 210.882812 70.664062 C 208.96875 70.28125 207.046875 69.949219 205.117188 69.664062 C 203.1875 69.375 201.25 69.136719 199.308594 68.945312 C 197.367188 68.753906 195.417969 68.609375 193.46875 68.515625 C 191.519531 68.417969 189.570312 68.371094 187.621094 68.371094 Z M 261.816406 168.652344 C 261.605469 169.324219 261.296875 169.949219 260.886719 170.527344 C 260.476562 171.101562 259.984375 171.59375 259.414062 172.011719 C 258.84375 172.429688 258.222656 172.742188 257.546875 172.960938 C 256.875 173.175781 256.1875 173.28125 255.480469 173.273438 L 248.847656 173.273438 L 248.847656 240.3125 C 248.847656 240.976562 248.8125 241.640625 248.746094 242.304688 C 248.679688 242.964844 248.582031 243.621094 248.453125 244.273438 C 248.324219 244.925781 248.160156 245.570312 247.96875 246.207031 C 247.773438 246.84375 247.550781 247.46875 247.292969 248.082031 C 247.039062 248.695312 246.753906 249.296875 246.441406 249.882812 C 246.128906 250.46875 245.785156 251.039062 245.417969 251.589844 C 245.046875 252.144531 244.652344 252.675781 244.230469 253.191406 C 243.808594 253.707031 243.363281 254.195312 242.890625 254.667969 C 242.421875 255.136719 241.929688 255.582031 241.414062 256.003906 C 240.902344 256.425781 240.367188 256.824219 239.816406 257.191406 C 239.261719 257.5625 238.691406 257.902344 238.105469 258.21875 C 237.519531 258.53125 236.917969 258.816406 236.304688 259.070312 C 235.691406 259.324219 235.066406 259.550781 234.429688 259.742188 C 233.792969 259.9375 233.148438 260.097656 232.496094 260.230469 C 231.847656 260.359375 231.1875 260.457031 230.527344 260.523438 C 229.867188 260.589844 229.203125 260.621094 228.539062 260.621094 L 208.527344 260.621094 C 208.003906 260.617188 207.503906 260.515625 207.023438 260.3125 C 206.542969 260.109375 206.121094 259.824219 205.753906 259.453125 C 205.386719 259.085938 205.105469 258.660156 204.90625 258.175781 C 204.710938 257.695312 204.613281 257.195312 204.613281 256.671875 L 204.613281 221.605469 C 204.613281 221.007812 204.550781 220.414062 204.433594 219.824219 C 204.316406 219.238281 204.144531 218.667969 203.914062 218.113281 C 203.683594 217.5625 203.402344 217.035156 203.070312 216.535156 C 202.734375 216.039062 202.359375 215.578125 201.933594 215.152344 C 201.511719 214.730469 201.050781 214.351562 200.550781 214.019531 C 200.054688 213.6875 199.527344 213.40625 198.972656 213.175781 C 198.421875 212.945312 197.851562 212.769531 197.261719 212.652344 C 196.675781 212.535156 196.082031 212.476562 195.484375 212.476562 L 179.757812 212.476562 C 179.15625 212.476562 178.5625 212.535156 177.976562 212.652344 C 177.390625 212.769531 176.816406 212.945312 176.265625 213.175781 C 175.710938 213.40625 175.1875 213.6875 174.6875 214.019531 C 174.191406 214.351562 173.730469 214.730469 173.304688 215.152344 C 172.882812 215.578125 172.503906 216.039062 172.167969 216.535156 C 171.835938 217.035156 171.554688 217.5625 171.324219 218.113281 C 171.09375 218.667969 170.921875 219.238281 170.804688 219.824219 C 170.6875 220.414062 170.628906 221.007812 170.625 221.605469 L 170.625 256.671875 C 170.628906 257.195312 170.527344 257.695312 170.332031 258.175781 C 170.132812 258.660156 169.851562 259.085938 169.484375 259.453125 C 169.117188 259.824219 168.695312 260.109375 168.214844 260.3125 C 167.734375 260.515625 167.234375 260.617188 166.714844 260.621094 L 146.703125 260.621094 C 146.035156 260.621094 145.375 260.589844 144.710938 260.523438 C 144.050781 260.457031 143.394531 260.359375 142.742188 260.230469 C 142.089844 260.097656 141.445312 259.9375 140.808594 259.742188 C 140.171875 259.550781 139.546875 259.324219 138.933594 259.070312 C 138.320312 258.816406 137.71875 258.53125 137.132812 258.21875 C 136.546875 257.902344 135.976562 257.5625 135.425781 257.191406 C 134.871094 256.824219 134.335938 256.425781 133.824219 256.003906 C 133.308594 255.582031 132.816406 255.136719 132.347656 254.667969 C 131.878906 254.195312 131.429688 253.707031 131.007812 253.191406 C 130.585938 252.675781 130.191406 252.144531 129.820312 251.589844 C 129.453125 251.039062 129.109375 250.46875 128.796875 249.882812 C 128.484375 249.296875 128.199219 248.695312 127.945312 248.082031 C 127.691406 247.46875 127.464844 246.84375 127.273438 246.207031 C 127.078125 245.570312 126.917969 244.925781 126.785156 244.273438 C 126.65625 243.621094 126.558594 242.964844 126.492188 242.304688 C 126.425781 241.640625 126.394531 240.976562 126.390625 240.3125 L 126.390625 173.273438 L 119.757812 173.273438 C 119.054688 173.273438 118.371094 173.164062 117.699219 172.949219 C 117.03125 172.730469 116.410156 172.414062 115.84375 172.003906 C 115.273438 171.589844 114.785156 171.097656 114.371094 170.527344 C 113.957031 169.957031 113.644531 169.335938 113.429688 168.667969 C 113.214844 168 113.105469 167.3125 113.109375 166.609375 C 113.113281 165.90625 113.222656 165.21875 113.445312 164.550781 C 113.664062 163.882812 113.984375 163.265625 114.398438 162.699219 C 114.816406 162.132812 115.3125 161.644531 115.882812 161.234375 L 175.84375 118.417969 C 176.699219 117.808594 177.59375 117.265625 178.53125 116.796875 C 179.46875 116.324219 180.4375 115.929688 181.4375 115.609375 C 182.4375 115.289062 183.453125 115.050781 184.492188 114.886719 C 185.527344 114.726562 186.570312 114.644531 187.621094 114.644531 C 188.667969 114.644531 189.710938 114.726562 190.75 114.886719 C 191.785156 115.050781 192.804688 115.289062 193.800781 115.609375 C 194.800781 115.929688 195.769531 116.324219 196.707031 116.796875 C 197.644531 117.265625 198.542969 117.808594 199.394531 118.417969 L 259.355469 161.234375 C 259.929688 161.640625 260.425781 162.128906 260.84375 162.691406 C 261.261719 163.257812 261.582031 163.871094 261.800781 164.539062 C 262.023438 165.207031 262.136719 165.890625 262.136719 166.59375 C 262.140625 167.296875 262.03125 167.984375 261.816406 168.652344 Z M 261.816406 168.652344 " fill-opacity="1" fill-rule="nonzero"/></g></svg>