<svg xmlns="http://www.w3.org/2000/svg" xmlns:xlink="http://www.w3.org/1999/xlink" width="500" zoomAndPan="magnify" viewBox="0 0 375 374.999991" height="500" preserveAspectRatio="xMidYMid meet" version="1.0"><defs><clipPath id="86c64f8aaa"><path d="M 42.5625 37.5 L 337.3125 37.5 L 337.3125 342.75 L 42.5625 342.75 Z M 42.5625 37.5 " clip-rule="nonzero"/></clipPath></defs><g clip-path="url(#86c64f8aaa)"><path fill="#ffffff" d="M 172.085938 37.5 C 232.667969 37.5 283.527344 79.113281 297.652344 135.308594 C 297.109375 135.261719 296.570312 135.234375 296.019531 135.234375 L 268.121094 135.234375 C 258.511719 135.234375 250.699219 143.054688 250.699219 152.65625 L 250.699219 247.003906 L 229.910156 247.003906 C 224.347656 247.003906 219.3125 250.027344 216.695312 254.929688 C 214.082031 259.8125 214.375 265.707031 217.445312 270.316406 L 226.800781 284.324219 C 210.183594 292.082031 191.644531 296.429688 172.085938 296.429688 C 100.59375 296.429688 42.625 238.464844 42.625 166.960938 C 42.625 95.46875 100.59375 37.5 172.085938 37.5 Z M 262.632812 152.65625 L 262.632812 255.90625 C 262.632812 257.574219 261.261719 258.949219 259.589844 258.949219 L 229.910156 258.949219 C 228.753906 258.949219 227.769531 259.539062 227.21875 260.5625 C 226.679688 261.574219 226.734375 262.722656 227.378906 263.6875 L 279.535156 341.78125 C 280.125 342.652344 281.023438 343.136719 282.066406 343.136719 C 283.121094 343.136719 284.019531 342.652344 284.597656 341.78125 L 336.761719 263.6875 C 337.410156 262.722656 337.457031 261.574219 336.914062 260.5625 C 336.375 259.539062 335.378906 258.949219 334.234375 258.949219 L 304.550781 258.949219 C 302.875 258.949219 301.507812 257.574219 301.507812 255.90625 L 301.507812 152.65625 C 301.507812 149.640625 299.042969 147.175781 296.019531 147.175781 L 268.121094 147.175781 C 265.097656 147.175781 262.632812 149.640625 262.632812 152.65625 Z M 121.910156 134.351562 C 121.910156 111.980469 136.605469 95.03125 157.496094 88.859375 L 157.402344 71.855469 C 157.402344 68.289062 160.304688 65.398438 163.867188 65.398438 L 180.324219 65.398438 C 183.878906 65.398438 186.78125 68.296875 186.78125 71.855469 L 186.667969 88.121094 C 190.648438 89.125 194.390625 90.488281 197.984375 92.492188 C 211.09375 99.78125 218.8125 112.464844 221.3125 127.0625 C 221.644531 128.984375 221.144531 130.835938 219.882812 132.324219 C 218.621094 133.800781 216.894531 134.609375 214.953125 134.609375 L 199.851562 134.609375 C 196.980469 134.609375 194.503906 132.769531 193.671875 130.019531 C 187.90625 110.9375 152.253906 108.917969 152.253906 132.378906 C 152.253906 145.175781 168.824219 149.945312 178.570312 153.5 C 201.757812 161.964844 222.261719 170.914062 222.261719 199.570312 C 222.261719 221.941406 207.566406 238.890625 186.675781 245.070312 L 186.78125 262.066406 C 186.78125 265.621094 183.871094 268.523438 180.324219 268.523438 L 163.867188 268.523438 C 160.304688 268.523438 157.402344 265.632812 157.402344 262.066406 L 157.507812 245.8125 C 153.527344 244.804688 149.78125 243.441406 146.199219 241.441406 C 133.078125 234.140625 125.371094 221.457031 122.859375 206.859375 C 122.527344 204.945312 123.039062 203.097656 124.292969 201.609375 C 125.542969 200.121094 127.277344 199.324219 129.21875 199.324219 L 144.320312 199.324219 C 147.195312 199.324219 149.667969 201.152344 150.5 203.902344 C 156.273438 222.992188 191.917969 225.003906 191.917969 201.542969 C 191.917969 187.996094 172.882812 183.105469 162.691406 179.351562 C 140.472656 171.1875 121.910156 161.511719 121.910156 134.351562 Z M 121.910156 134.351562 " fill-opacity="1" fill-rule="evenodd"/></g></svg>