<svg xmlns="http://www.w3.org/2000/svg" xmlns:xlink="http://www.w3.org/1999/xlink" width="500" zoomAndPan="magnify" viewBox="0 0 375 374.999991" height="500" preserveAspectRatio="xMidYMid meet" version="1.0"><defs><clipPath id="da51a3499d"><path d="M 38.742188 59 L 317 59 L 317 337.242188 L 38.742188 337.242188 Z M 38.742188 59 " clip-rule="nonzero"/></clipPath><clipPath id="f914c17801"><path d="M 198 38.742188 L 337.242188 38.742188 L 337.242188 178 L 198 178 Z M 198 38.742188 " clip-rule="nonzero"/></clipPath></defs><g clip-path="url(#da51a3499d)"><path fill="#ffffff" d="M 316.886719 198.417969 L 275.679688 198.417969 C 275.679688 200.019531 275.640625 201.621094 275.5625 203.21875 C 275.484375 204.820312 275.367188 206.417969 275.207031 208.011719 C 275.050781 209.605469 274.855469 211.195312 274.621094 212.777344 C 274.386719 214.363281 274.113281 215.941406 273.800781 217.511719 C 273.488281 219.082031 273.136719 220.644531 272.746094 222.195312 C 272.359375 223.75 271.929688 225.292969 271.464844 226.828125 C 271 228.359375 270.5 229.878906 269.957031 231.386719 C 269.417969 232.894531 268.84375 234.390625 268.230469 235.871094 C 267.617188 237.347656 266.96875 238.8125 266.285156 240.261719 C 265.597656 241.707031 264.878906 243.136719 264.125 244.550781 C 263.367188 245.964844 262.578125 247.355469 261.757812 248.730469 C 260.933594 250.105469 260.078125 251.457031 259.1875 252.789062 C 258.296875 254.121094 257.375 255.429688 256.421875 256.714844 C 255.464844 258.003906 254.480469 259.265625 253.464844 260.503906 C 252.449219 261.742188 251.402344 262.953125 250.328125 264.140625 C 249.253906 265.328125 248.148438 266.488281 247.015625 267.617188 C 245.882812 268.75 244.722656 269.855469 243.535156 270.929688 C 242.351562 272.007812 241.136719 273.050781 239.898438 274.070312 C 238.660156 275.085938 237.398438 276.070312 236.113281 277.023438 C 234.828125 277.976562 233.515625 278.898438 232.1875 279.789062 C 230.855469 280.679688 229.5 281.535156 228.128906 282.359375 C 226.753906 283.183594 225.359375 283.972656 223.949219 284.726562 C 222.535156 285.480469 221.105469 286.203125 219.65625 286.886719 C 218.210938 287.570312 216.746094 288.21875 215.265625 288.832031 C 213.785156 289.445312 212.292969 290.023438 210.785156 290.5625 C 209.277344 291.101562 207.757812 291.605469 206.222656 292.070312 C 204.691406 292.535156 203.148438 292.960938 201.59375 293.351562 C 200.039062 293.738281 198.476562 294.089844 196.90625 294.402344 C 195.335938 294.714844 193.757812 294.988281 192.175781 295.222656 C 190.589844 295.457031 189 295.65625 187.40625 295.8125 C 185.8125 295.96875 184.214844 296.085938 182.617188 296.164062 C 181.015625 296.242188 179.417969 296.28125 177.816406 296.28125 C 176.214844 296.28125 174.613281 296.242188 173.011719 296.164062 C 171.414062 296.085938 169.816406 295.96875 168.222656 295.8125 C 166.628906 295.65625 165.039062 295.457031 163.453125 295.222656 C 161.871094 294.988281 160.292969 294.714844 158.722656 294.402344 C 157.152344 294.089844 155.589844 293.738281 154.035156 293.351562 C 152.480469 292.960938 150.9375 292.535156 149.40625 292.070312 C 147.875 291.605469 146.351562 291.101562 144.84375 290.5625 C 143.335938 290.023438 141.84375 289.445312 140.363281 288.832031 C 138.882812 288.21875 137.417969 287.570312 135.972656 286.886719 C 134.523438 286.203125 133.09375 285.480469 131.679688 284.726562 C 130.269531 283.972656 128.875 283.183594 127.503906 282.359375 C 126.128906 281.535156 124.777344 280.679688 123.445312 279.789062 C 122.113281 278.898438 120.804688 277.976562 119.515625 277.023438 C 118.230469 276.070312 116.96875 275.085938 115.730469 274.070312 C 114.492188 273.050781 113.277344 272.007812 112.09375 270.929688 C 110.90625 269.855469 109.746094 268.75 108.613281 267.617188 C 107.480469 266.488281 106.378906 265.328125 105.300781 264.140625 C 104.226562 262.953125 103.179688 261.742188 102.164062 260.503906 C 101.148438 259.265625 100.164062 258.003906 99.207031 256.714844 C 98.253906 255.429688 97.332031 254.121094 96.441406 252.789062 C 95.554688 251.457031 94.695312 250.105469 93.871094 248.730469 C 93.050781 247.355469 92.261719 245.964844 91.503906 244.550781 C 90.75 243.136719 90.03125 241.707031 89.347656 240.261719 C 88.660156 238.8125 88.011719 237.347656 87.398438 235.871094 C 86.785156 234.390625 86.210938 232.894531 85.671875 231.386719 C 85.128906 229.878906 84.628906 228.359375 84.164062 226.828125 C 83.699219 225.292969 83.273438 223.75 82.882812 222.195312 C 82.492188 220.644531 82.140625 219.082031 81.828125 217.511719 C 81.519531 215.941406 81.242188 214.363281 81.007812 212.777344 C 80.773438 211.195312 80.578125 209.605469 80.421875 208.011719 C 80.265625 206.417969 80.144531 204.820312 80.066406 203.21875 C 79.988281 201.621094 79.949219 200.019531 79.949219 198.417969 C 79.949219 196.816406 79.988281 195.214844 80.066406 193.617188 C 80.144531 192.015625 80.265625 190.417969 80.421875 188.824219 C 80.578125 187.230469 80.773438 185.640625 81.007812 184.058594 C 81.242188 182.472656 81.519531 180.894531 81.828125 179.324219 C 82.140625 177.753906 82.492188 176.191406 82.882812 174.636719 C 83.273438 173.085938 83.699219 171.542969 84.164062 170.007812 C 84.628906 168.476562 85.128906 166.957031 85.671875 165.449219 C 86.210938 163.941406 86.785156 162.445312 87.398438 160.964844 C 88.011719 159.488281 88.660156 158.023438 89.347656 156.574219 C 90.03125 155.128906 90.75 153.695312 91.503906 152.285156 C 92.261719 150.871094 93.050781 149.480469 93.871094 148.105469 C 94.695312 146.730469 95.554688 145.378906 96.441406 144.046875 C 97.332031 142.714844 98.253906 141.40625 99.207031 140.121094 C 100.164062 138.832031 101.148438 137.570312 102.164062 136.332031 C 103.179688 135.09375 104.226562 133.882812 105.300781 132.695312 C 106.378906 131.507812 107.480469 130.347656 108.613281 129.21875 C 109.746094 128.085938 110.90625 126.980469 112.09375 125.90625 C 113.277344 124.828125 114.492188 123.78125 115.730469 122.765625 C 116.96875 121.75 118.230469 120.765625 119.515625 119.8125 C 120.804688 118.859375 122.113281 117.9375 123.445312 117.046875 C 124.777344 116.15625 126.128906 115.300781 127.503906 114.476562 C 128.875 113.652344 130.269531 112.863281 131.679688 112.109375 C 133.09375 111.355469 134.523438 110.632812 135.972656 109.949219 C 137.417969 109.265625 138.882812 108.613281 140.363281 108.003906 C 141.84375 107.390625 143.335938 106.8125 144.84375 106.273438 C 146.351562 105.734375 147.875 105.230469 149.40625 104.765625 C 150.9375 104.300781 152.480469 103.875 154.035156 103.484375 C 155.589844 103.097656 157.152344 102.746094 158.722656 102.433594 C 160.292969 102.121094 161.871094 101.847656 163.453125 101.613281 C 165.039062 101.378906 166.628906 101.179688 168.222656 101.023438 C 169.816406 100.867188 171.414062 100.75 173.011719 100.671875 C 174.613281 100.59375 176.214844 100.554688 177.816406 100.554688 L 177.816406 59.347656 C 175.539062 59.347656 173.265625 59.402344 170.992188 59.515625 C 168.71875 59.625 166.449219 59.792969 164.183594 60.015625 C 161.917969 60.238281 159.660156 60.519531 157.410156 60.851562 C 155.15625 61.1875 152.914062 61.574219 150.683594 62.019531 C 148.449219 62.460938 146.230469 62.960938 144.023438 63.515625 C 141.816406 64.066406 139.621094 64.675781 137.445312 65.335938 C 135.265625 65.996094 133.105469 66.710938 130.964844 67.476562 C 128.820312 68.242188 126.695312 69.0625 124.59375 69.933594 C 122.492188 70.804688 120.410156 71.726562 118.355469 72.699219 C 116.296875 73.671875 114.265625 74.695312 112.257812 75.769531 C 110.25 76.839844 108.269531 77.960938 106.316406 79.132812 C 104.367188 80.300781 102.441406 81.519531 100.550781 82.785156 C 98.660156 84.046875 96.796875 85.359375 94.96875 86.714844 C 93.140625 88.070312 91.347656 89.46875 89.589844 90.914062 C 87.828125 92.359375 86.105469 93.84375 84.421875 95.371094 C 82.734375 96.902344 81.085938 98.46875 79.476562 100.078125 C 77.867188 101.6875 76.296875 103.335938 74.769531 105.023438 C 73.242188 106.710938 71.753906 108.433594 70.3125 110.191406 C 68.867188 111.953125 67.46875 113.746094 66.113281 115.574219 C 64.753906 117.402344 63.445312 119.261719 62.179688 121.152344 C 60.917969 123.046875 59.699219 124.96875 58.527344 126.921875 C 57.359375 128.871094 56.238281 130.851562 55.164062 132.859375 C 54.089844 134.867188 53.070312 136.898438 52.09375 138.957031 C 51.121094 141.015625 50.199219 143.09375 49.328125 145.199219 C 48.457031 147.300781 47.640625 149.421875 46.871094 151.566406 C 46.105469 153.710938 45.390625 155.871094 44.730469 158.046875 C 44.070312 160.226562 43.464844 162.417969 42.910156 164.625 C 42.359375 166.835938 41.859375 169.054688 41.414062 171.285156 C 40.972656 173.519531 40.582031 175.761719 40.25 178.011719 C 39.914062 180.261719 39.636719 182.519531 39.414062 184.785156 C 39.191406 187.050781 39.023438 189.320312 38.910156 191.59375 C 38.800781 193.867188 38.742188 196.140625 38.742188 198.417969 C 38.742188 200.695312 38.800781 202.96875 38.910156 205.242188 C 39.023438 207.515625 39.191406 209.785156 39.414062 212.050781 C 39.636719 214.3125 39.914062 216.574219 40.25 218.824219 C 40.582031 221.074219 40.972656 223.316406 41.414062 225.550781 C 41.859375 227.78125 42.359375 230 42.910156 232.210938 C 43.464844 234.417969 44.070312 236.609375 44.730469 238.789062 C 45.390625 240.964844 46.105469 243.125 46.871094 245.269531 C 47.640625 247.414062 48.457031 249.535156 49.328125 251.636719 C 50.199219 253.742188 51.121094 255.820312 52.09375 257.878906 C 53.070312 259.9375 54.089844 261.96875 55.164062 263.976562 C 56.238281 265.984375 57.359375 267.960938 58.527344 269.914062 C 59.699219 271.867188 60.917969 273.789062 62.179688 275.683594 C 63.445312 277.574219 64.753906 279.433594 66.113281 281.261719 C 67.46875 283.089844 68.867188 284.882812 70.3125 286.644531 C 71.753906 288.402344 73.242188 290.125 74.769531 291.8125 C 76.296875 293.5 77.867188 295.148438 79.476562 296.757812 C 81.085938 298.367188 82.734375 299.933594 84.421875 301.464844 C 86.105469 302.992188 87.828125 304.476562 89.589844 305.921875 C 91.347656 307.367188 93.140625 308.765625 94.96875 310.121094 C 96.796875 311.476562 98.660156 312.785156 100.550781 314.050781 C 102.441406 315.316406 104.367188 316.535156 106.316406 317.703125 C 108.269531 318.875 110.25 319.996094 112.257812 321.066406 C 114.265625 322.140625 116.296875 323.164062 118.355469 324.136719 C 120.410156 325.109375 122.492188 326.03125 124.59375 326.902344 C 126.695312 327.773438 128.820312 328.59375 130.964844 329.359375 C 133.105469 330.125 135.265625 330.839844 137.445312 331.5 C 139.621094 332.160156 141.816406 332.769531 144.023438 333.320312 C 146.230469 333.875 148.449219 334.375 150.683594 334.816406 C 152.914062 335.261719 155.15625 335.648438 157.410156 335.984375 C 159.660156 336.316406 161.917969 336.597656 164.183594 336.820312 C 166.449219 337.042969 168.71875 337.210938 170.992188 337.320312 C 173.265625 337.433594 175.539062 337.488281 177.816406 337.488281 C 180.089844 337.488281 182.367188 337.433594 184.636719 337.320312 C 186.910156 337.210938 189.179688 337.042969 191.445312 336.820312 C 193.710938 336.597656 195.96875 336.316406 198.222656 335.984375 C 200.472656 335.648438 202.714844 335.261719 204.945312 334.816406 C 207.179688 334.371094 209.398438 333.875 211.605469 333.320312 C 213.8125 332.769531 216.007812 332.160156 218.183594 331.5 C 220.363281 330.839844 222.523438 330.125 224.667969 329.359375 C 226.808594 328.59375 228.933594 327.773438 231.035156 326.902344 C 233.136719 326.03125 235.21875 325.109375 237.273438 324.136719 C 239.332031 323.164062 241.363281 322.140625 243.371094 321.066406 C 245.378906 319.996094 247.359375 318.875 249.3125 317.703125 C 251.265625 316.535156 253.1875 315.316406 255.078125 314.050781 C 256.972656 312.785156 258.832031 311.476562 260.660156 310.121094 C 262.488281 308.765625 264.28125 307.367188 266.039062 305.921875 C 267.800781 304.476562 269.523438 302.992188 271.210938 301.464844 C 272.894531 299.933594 274.542969 298.367188 276.152344 296.757812 C 277.761719 295.148438 279.332031 293.5 280.859375 291.8125 C 282.386719 290.125 283.875 288.402344 285.320312 286.644531 C 286.761719 284.882812 288.160156 283.089844 289.519531 281.261719 C 290.875 279.433594 292.183594 277.574219 293.449219 275.683594 C 294.710938 273.789062 295.929688 271.867188 297.101562 269.914062 C 298.269531 267.960938 299.390625 265.984375 300.464844 263.976562 C 301.539062 261.96875 302.5625 259.9375 303.535156 257.878906 C 304.507812 255.820312 305.429688 253.742188 306.300781 251.636719 C 307.171875 249.535156 307.988281 247.414062 308.757812 245.269531 C 309.523438 243.125 310.238281 240.964844 310.898438 238.789062 C 311.558594 236.609375 312.164062 234.417969 312.71875 232.210938 C 313.269531 230 313.769531 227.78125 314.214844 225.550781 C 314.65625 223.316406 315.046875 221.074219 315.382812 218.824219 C 315.714844 216.574219 315.992188 214.3125 316.214844 212.050781 C 316.441406 209.785156 316.605469 207.515625 316.71875 205.242188 C 316.832031 202.96875 316.886719 200.695312 316.886719 198.417969 Z M 316.886719 198.417969 " fill-opacity="1" fill-rule="nonzero"/></g><g clip-path="url(#f914c17801)"><path fill="#ffffff" d="M 198.417969 38.742188 C 200.695312 38.742188 202.96875 38.800781 205.242188 38.910156 C 207.515625 39.023438 209.785156 39.191406 212.050781 39.414062 C 214.3125 39.636719 216.574219 39.914062 218.824219 40.25 C 221.074219 40.582031 223.316406 40.972656 225.550781 41.414062 C 227.78125 41.859375 230 42.359375 232.210938 42.910156 C 234.417969 43.464844 236.609375 44.070312 238.789062 44.730469 C 240.964844 45.390625 243.125 46.105469 245.269531 46.871094 C 247.414062 47.640625 249.535156 48.457031 251.636719 49.328125 C 253.742188 50.199219 255.820312 51.121094 257.878906 52.09375 C 259.9375 53.070312 261.96875 54.089844 263.976562 55.164062 C 265.984375 56.238281 267.960938 57.359375 269.914062 58.527344 C 271.867188 59.699219 273.789062 60.917969 275.683594 62.179688 C 277.574219 63.445312 279.433594 64.753906 281.261719 66.113281 C 283.089844 67.46875 284.882812 68.867188 286.644531 70.3125 C 288.402344 71.753906 290.125 73.242188 291.8125 74.769531 C 293.5 76.296875 295.148438 77.867188 296.757812 79.476562 C 298.367188 81.085938 299.933594 82.734375 301.464844 84.421875 C 302.992188 86.105469 304.476562 87.828125 305.921875 89.589844 C 307.367188 91.347656 308.765625 93.140625 310.121094 94.96875 C 311.476562 96.796875 312.785156 98.660156 314.050781 100.550781 C 315.316406 102.441406 316.535156 104.367188 317.703125 106.316406 C 318.875 108.269531 319.996094 110.25 321.066406 112.257812 C 322.140625 114.265625 323.164062 116.296875 324.136719 118.355469 C 325.109375 120.410156 326.03125 122.492188 326.902344 124.59375 C 327.773438 126.695312 328.59375 128.820312 329.359375 130.964844 C 330.125 133.105469 330.839844 135.265625 331.5 137.445312 C 332.160156 139.621094 332.769531 141.816406 333.320312 144.023438 C 333.875 146.230469 334.375 148.449219 334.816406 150.683594 C 335.261719 152.914062 335.648438 155.15625 335.984375 157.410156 C 336.316406 159.660156 336.597656 161.917969 336.820312 164.183594 C 337.042969 166.449219 337.210938 168.71875 337.320312 170.992188 C 337.433594 173.265625 337.488281 175.539062 337.488281 177.816406 L 296.28125 177.816406 C 296.28125 176.214844 296.242188 174.613281 296.164062 173.011719 C 296.085938 171.414062 295.96875 169.816406 295.8125 168.222656 C 295.65625 166.628906 295.457031 165.039062 295.222656 163.453125 C 294.988281 161.871094 294.714844 160.292969 294.402344 158.722656 C 294.089844 157.152344 293.738281 155.589844 293.351562 154.035156 C 292.960938 152.480469 292.535156 150.9375 292.070312 149.40625 C 291.605469 147.875 291.101562 146.351562 290.5625 144.84375 C 290.023438 143.335938 289.445312 141.84375 288.832031 140.363281 C 288.21875 138.882812 287.570312 137.417969 286.886719 135.972656 C 286.203125 134.523438 285.480469 133.09375 284.726562 131.679688 C 283.972656 130.269531 283.183594 128.875 282.359375 127.503906 C 281.535156 126.128906 280.679688 124.777344 279.789062 123.445312 C 278.898438 122.113281 277.976562 120.804688 277.023438 119.515625 C 276.070312 118.230469 275.085938 116.96875 274.070312 115.730469 C 273.050781 114.492188 272.007812 113.277344 270.929688 112.09375 C 269.855469 110.90625 268.75 109.746094 267.617188 108.613281 C 266.488281 107.480469 265.328125 106.378906 264.140625 105.300781 C 262.953125 104.226562 261.742188 103.179688 260.503906 102.164062 C 259.265625 101.148438 258.003906 100.164062 256.714844 99.207031 C 255.429688 98.253906 254.121094 97.332031 252.789062 96.441406 C 251.457031 95.554688 250.105469 94.695312 248.730469 93.871094 C 247.355469 93.050781 245.964844 92.261719 244.550781 91.503906 C 243.136719 90.75 241.707031 90.03125 240.261719 89.34375 C 238.8125 88.660156 237.347656 88.011719 235.871094 87.398438 C 234.390625 86.785156 232.894531 86.210938 231.386719 85.671875 C 229.878906 85.128906 228.359375 84.628906 226.828125 84.164062 C 225.292969 83.699219 223.75 83.273438 222.195312 82.882812 C 220.644531 82.492188 219.082031 82.140625 217.511719 81.828125 C 215.941406 81.519531 214.363281 81.242188 212.777344 81.007812 C 211.195312 80.773438 209.605469 80.578125 208.011719 80.421875 C 206.417969 80.265625 204.820312 80.144531 203.21875 80.066406 C 201.621094 79.988281 200.019531 79.949219 198.417969 79.949219 Z M 198.417969 38.742188 " fill-opacity="1" fill-rule="nonzero"/></g><path fill="#ffffff" d="M 177.816406 116.003906 C 176.464844 116.003906 175.117188 116.039062 173.769531 116.105469 C 172.421875 116.171875 171.078125 116.269531 169.738281 116.402344 C 168.394531 116.535156 167.054688 116.699219 165.722656 116.898438 C 164.386719 117.09375 163.058594 117.324219 161.738281 117.589844 C 160.414062 117.851562 159.097656 118.148438 157.789062 118.476562 C 156.480469 118.800781 155.183594 119.164062 153.890625 119.554688 C 152.601562 119.945312 151.320312 120.367188 150.050781 120.824219 C 148.78125 121.277344 147.523438 121.761719 146.277344 122.277344 C 145.03125 122.792969 143.796875 123.339844 142.578125 123.917969 C 141.359375 124.496094 140.15625 125.101562 138.964844 125.738281 C 137.777344 126.371094 136.601562 127.035156 135.445312 127.730469 C 134.289062 128.421875 133.148438 129.144531 132.027344 129.894531 C 130.90625 130.644531 129.804688 131.417969 128.722656 132.222656 C 127.636719 133.027344 126.574219 133.855469 125.53125 134.710938 C 124.488281 135.566406 123.46875 136.449219 122.46875 137.355469 C 121.46875 138.261719 120.492188 139.191406 119.539062 140.144531 C 118.585938 141.097656 117.65625 142.074219 116.75 143.074219 C 115.84375 144.070312 114.964844 145.09375 114.109375 146.136719 C 113.253906 147.179688 112.421875 148.242188 111.621094 149.324219 C 110.816406 150.40625 110.039062 151.511719 109.292969 152.632812 C 108.542969 153.753906 107.820312 154.890625 107.125 156.050781 C 106.433594 157.207031 105.769531 158.378906 105.132812 159.570312 C 104.496094 160.757812 103.890625 161.960938 103.316406 163.183594 C 102.738281 164.402344 102.191406 165.632812 101.675781 166.878906 C 101.160156 168.125 100.675781 169.382812 100.21875 170.652344 C 99.765625 171.921875 99.34375 173.203125 98.949219 174.496094 C 98.558594 175.785156 98.199219 177.085938 97.871094 178.394531 C 97.542969 179.703125 97.25 181.015625 96.984375 182.339844 C 96.722656 183.664062 96.492188 184.992188 96.292969 186.324219 C 96.097656 187.660156 95.929688 188.996094 95.800781 190.339844 C 95.667969 191.683594 95.566406 193.027344 95.5 194.375 C 95.433594 195.722656 95.402344 197.070312 95.402344 198.417969 C 95.402344 199.765625 95.433594 201.113281 95.5 202.460938 C 95.566406 203.808594 95.667969 205.152344 95.800781 206.496094 C 95.929688 207.839844 96.097656 209.175781 96.292969 210.511719 C 96.492188 211.84375 96.722656 213.171875 96.984375 214.496094 C 97.25 215.820312 97.542969 217.132812 97.871094 218.441406 C 98.199219 219.75 98.558594 221.050781 98.949219 222.339844 C 99.34375 223.632812 99.765625 224.910156 100.21875 226.183594 C 100.675781 227.453125 101.160156 228.710938 101.675781 229.957031 C 102.191406 231.203125 102.738281 232.433594 103.316406 233.652344 C 103.890625 234.875 104.496094 236.078125 105.132812 237.265625 C 105.769531 238.457031 106.433594 239.628906 107.125 240.785156 C 107.820312 241.941406 108.542969 243.082031 109.292969 244.203125 C 110.039062 245.324219 110.816406 246.425781 111.621094 247.511719 C 112.421875 248.59375 113.253906 249.65625 114.109375 250.699219 C 114.964844 251.742188 115.84375 252.761719 116.75 253.761719 C 117.65625 254.761719 118.585938 255.738281 119.539062 256.691406 C 120.492188 257.644531 121.46875 258.574219 122.46875 259.480469 C 123.46875 260.386719 124.488281 261.269531 125.53125 262.125 C 126.574219 262.980469 127.636719 263.808594 128.722656 264.613281 C 129.804688 265.414062 130.90625 266.191406 132.027344 266.941406 C 133.148438 267.691406 134.289062 268.414062 135.445312 269.105469 C 136.601562 269.800781 137.777344 270.464844 138.964844 271.097656 C 140.15625 271.734375 141.359375 272.339844 142.578125 272.917969 C 143.796875 273.496094 145.03125 274.042969 146.277344 274.558594 C 147.523438 275.074219 148.78125 275.558594 150.050781 276.011719 C 151.320312 276.46875 152.601562 276.890625 153.890625 277.28125 C 155.183594 277.671875 156.480469 278.03125 157.789062 278.359375 C 159.097656 278.6875 160.414062 278.984375 161.738281 279.246094 C 163.058594 279.511719 164.386719 279.742188 165.722656 279.9375 C 167.054688 280.136719 168.394531 280.300781 169.738281 280.433594 C 171.078125 280.566406 172.421875 280.664062 173.769531 280.730469 C 175.117188 280.796875 176.464844 280.832031 177.816406 280.832031 C 179.164062 280.832031 180.511719 280.796875 181.859375 280.730469 C 183.207031 280.664062 184.550781 280.566406 185.890625 280.433594 C 187.234375 280.300781 188.574219 280.136719 189.90625 279.9375 C 191.242188 279.742188 192.570312 279.511719 193.894531 279.246094 C 195.214844 278.984375 196.53125 278.6875 197.839844 278.359375 C 199.148438 278.03125 200.445312 277.671875 201.738281 277.28125 C 203.027344 276.890625 204.308594 276.46875 205.578125 276.011719 C 206.847656 275.558594 208.105469 275.074219 209.351562 274.558594 C 210.597656 274.042969 211.832031 273.496094 213.050781 272.917969 C 214.269531 272.339844 215.472656 271.734375 216.664062 271.097656 C 217.851562 270.464844 219.027344 269.800781 220.183594 269.105469 C 221.339844 268.414062 222.480469 267.691406 223.601562 266.941406 C 224.722656 266.191406 225.824219 265.414062 226.90625 264.613281 C 227.992188 263.808594 229.054688 262.980469 230.097656 262.125 C 231.140625 261.269531 232.160156 260.386719 233.160156 259.480469 C 234.160156 258.574219 235.136719 257.644531 236.089844 256.691406 C 237.042969 255.738281 237.972656 254.761719 238.878906 253.761719 C 239.785156 252.761719 240.664062 251.742188 241.519531 250.699219 C 242.375 249.65625 243.207031 248.59375 244.007812 247.511719 C 244.8125 246.425781 245.589844 245.324219 246.339844 244.203125 C 247.085938 243.082031 247.808594 241.941406 248.503906 240.785156 C 249.195312 239.628906 249.859375 238.457031 250.496094 237.265625 C 251.132812 236.078125 251.738281 234.875 252.316406 233.652344 C 252.890625 232.433594 253.4375 231.203125 253.953125 229.957031 C 254.46875 228.710938 254.957031 227.453125 255.410156 226.183594 C 255.863281 224.910156 256.289062 223.632812 256.679688 222.339844 C 257.070312 221.050781 257.429688 219.75 257.757812 218.441406 C 258.085938 217.132812 258.378906 215.820312 258.644531 214.496094 C 258.90625 213.171875 259.136719 211.84375 259.335938 210.511719 C 259.535156 209.175781 259.699219 207.839844 259.832031 206.496094 C 259.960938 205.152344 260.0625 203.808594 260.128906 202.460938 C 260.195312 201.113281 260.226562 199.765625 260.226562 198.417969 C 260.226562 197.070312 260.195312 195.722656 260.128906 194.375 C 260.0625 193.027344 259.960938 191.683594 259.832031 190.339844 C 259.699219 188.996094 259.535156 187.660156 259.335938 186.324219 C 259.136719 184.992188 258.90625 183.664062 258.644531 182.339844 C 258.378906 181.015625 258.085938 179.703125 257.757812 178.394531 C 257.429688 177.085938 257.070312 175.785156 256.679688 174.496094 C 256.289062 173.203125 255.863281 171.921875 255.410156 170.652344 C 254.957031 169.382812 254.46875 168.125 253.953125 166.878906 C 253.4375 165.632812 252.890625 164.402344 252.316406 163.183594 C 251.738281 161.960938 251.132812 160.757812 250.496094 159.570312 C 249.859375 158.378906 249.195312 157.207031 248.503906 156.050781 C 247.808594 154.890625 247.085938 153.753906 246.339844 152.632812 C 245.589844 151.511719 244.8125 150.40625 244.007812 149.324219 C 243.207031 148.242188 242.375 147.179688 241.519531 146.136719 C 240.664062 145.09375 239.785156 144.070312 238.878906 143.074219 C 237.972656 142.074219 237.042969 141.097656 236.089844 140.144531 C 235.136719 139.191406 234.160156 138.261719 233.160156 137.355469 C 232.160156 136.449219 231.140625 135.566406 230.097656 134.710938 C 229.054688 133.855469 227.992188 133.027344 226.90625 132.222656 C 225.824219 131.417969 224.722656 130.644531 223.601562 129.894531 C 222.480469 129.144531 221.339844 128.421875 220.183594 127.730469 C 219.027344 127.035156 217.851562 126.371094 216.664062 125.738281 C 215.472656 125.101562 214.269531 124.496094 213.050781 123.917969 C 211.832031 123.339844 210.597656 122.792969 209.351562 122.277344 C 208.105469 121.761719 206.847656 121.277344 205.578125 120.824219 C 204.308594 120.367188 203.027344 119.945312 201.738281 119.554688 C 200.445312 119.164062 199.148438 118.800781 197.839844 118.476562 C 196.53125 118.148438 195.214844 117.851562 193.894531 117.589844 C 192.570312 117.324219 191.242188 117.09375 189.90625 116.898438 C 188.574219 116.699219 187.234375 116.535156 185.890625 116.402344 C 184.550781 116.269531 183.207031 116.171875 181.859375 116.105469 C 180.511719 116.039062 179.164062 116.003906 177.816406 116.003906 Z M 144.4375 134.546875 L 148.609375 143.972656 C 145.714844 145.53125 142.960938 147.308594 140.351562 149.300781 C 137.738281 151.296875 135.304688 153.488281 133.042969 155.871094 C 130.78125 158.257812 128.722656 160.804688 126.867188 163.519531 C 125.011719 166.230469 123.382812 169.074219 121.980469 172.046875 L 112.347656 168.335938 C 114.011719 164.742188 115.953125 161.304688 118.179688 158.027344 C 120.402344 154.746094 122.882812 151.671875 125.609375 148.800781 C 128.335938 145.925781 131.28125 143.292969 134.441406 140.902344 C 137.597656 138.511719 140.933594 136.394531 144.4375 134.546875 Z M 147.734375 263.882812 C 144.140625 262.222656 140.707031 260.28125 137.429688 258.058594 C 134.15625 255.835938 131.082031 253.363281 128.207031 250.640625 C 125.335938 247.917969 122.703125 244.980469 120.308594 241.824219 C 117.917969 238.671875 115.796875 235.347656 113.945312 231.847656 L 123.371094 227.675781 C 124.9375 230.558594 126.71875 233.300781 128.71875 235.90625 C 130.71875 238.507812 132.910156 240.9375 135.292969 243.195312 C 137.675781 245.453125 140.222656 247.507812 142.929688 249.363281 C 145.640625 251.214844 148.476562 252.847656 151.441406 254.253906 Z M 126.308594 198.417969 C 126.308594 196.730469 126.390625 195.046875 126.554688 193.371094 C 126.71875 191.691406 126.96875 190.023438 127.296875 188.367188 C 127.625 186.714844 128.035156 185.082031 128.523438 183.464844 C 129.015625 181.851562 129.582031 180.265625 130.226562 178.707031 C 130.875 177.148438 131.59375 175.625 132.390625 174.136719 C 133.183594 172.648438 134.050781 171.203125 134.988281 169.800781 C 135.925781 168.398438 136.929688 167.046875 138 165.742188 C 139.070312 164.4375 140.199219 163.1875 141.394531 161.996094 C 142.585938 160.804688 143.835938 159.671875 145.136719 158.601562 C 146.441406 157.53125 147.796875 156.527344 149.199219 155.589844 C 150.601562 154.652344 152.046875 153.789062 153.535156 152.992188 C 155.023438 152.195312 156.546875 151.476562 158.101562 150.832031 C 159.660156 150.183594 161.25 149.617188 162.863281 149.128906 C 164.476562 148.636719 166.113281 148.230469 167.765625 147.898438 C 169.421875 147.570312 171.085938 147.324219 172.765625 147.15625 C 174.445312 146.992188 176.128906 146.910156 177.816406 146.910156 C 179.5 146.910156 181.183594 146.992188 182.863281 147.15625 C 184.542969 147.324219 186.207031 147.570312 187.863281 147.898438 C 189.519531 148.230469 191.152344 148.636719 192.765625 149.128906 C 194.382812 149.617188 195.96875 150.183594 197.527344 150.832031 C 199.085938 151.476562 200.609375 152.195312 202.09375 152.992188 C 203.582031 153.789062 205.027344 154.652344 206.429688 155.589844 C 207.832031 156.527344 209.1875 157.53125 210.492188 158.601562 C 211.796875 159.671875 213.042969 160.804688 214.234375 161.996094 C 215.429688 163.1875 216.5625 164.4375 217.632812 165.742188 C 218.699219 167.046875 219.703125 168.398438 220.640625 169.800781 C 221.578125 171.203125 222.445312 172.648438 223.242188 174.136719 C 224.035156 175.625 224.757812 177.148438 225.402344 178.707031 C 226.046875 180.265625 226.613281 181.851562 227.105469 183.464844 C 227.59375 185.082031 228.003906 186.714844 228.332031 188.367188 C 228.660156 190.023438 228.910156 191.691406 229.074219 193.371094 C 229.238281 195.046875 229.324219 196.730469 229.324219 198.417969 C 229.324219 200.105469 229.238281 201.789062 229.074219 203.464844 C 228.910156 205.144531 228.660156 206.8125 228.332031 208.464844 C 228.003906 210.121094 227.59375 211.753906 227.105469 213.371094 C 226.613281 214.984375 226.046875 216.570312 225.402344 218.128906 C 224.757812 219.6875 224.035156 221.210938 223.242188 222.699219 C 222.445312 224.1875 221.578125 225.632812 220.640625 227.035156 C 219.703125 228.4375 218.699219 229.789062 217.632812 231.09375 C 216.5625 232.398438 215.429688 233.648438 214.234375 234.839844 C 213.042969 236.03125 211.796875 237.164062 210.492188 238.234375 C 209.1875 239.304688 207.832031 240.308594 206.429688 241.246094 C 205.027344 242.183594 203.582031 243.046875 202.09375 243.84375 C 200.609375 244.640625 199.085938 245.359375 197.527344 246.003906 C 195.96875 246.652344 194.382812 247.21875 192.765625 247.707031 C 191.152344 248.199219 189.519531 248.605469 187.863281 248.9375 C 186.207031 249.265625 184.542969 249.511719 182.863281 249.679688 C 181.183594 249.84375 179.5 249.925781 177.816406 249.925781 C 176.128906 249.925781 174.445312 249.84375 172.765625 249.679688 C 171.085938 249.511719 169.421875 249.265625 167.765625 248.9375 C 166.113281 248.605469 164.476562 248.199219 162.863281 247.707031 C 161.25 247.21875 159.660156 246.652344 158.101562 246.003906 C 156.546875 245.359375 155.023438 244.640625 153.535156 243.84375 C 152.046875 243.046875 150.601562 242.183594 149.199219 241.246094 C 147.796875 240.308594 146.441406 239.304688 145.136719 238.234375 C 143.835938 237.164062 142.585938 236.03125 141.394531 234.839844 C 140.199219 233.648438 139.070312 232.398438 138 231.09375 C 136.929688 229.789062 135.925781 228.4375 134.988281 227.035156 C 134.050781 225.632812 133.183594 224.1875 132.390625 222.699219 C 131.59375 221.210938 130.875 219.6875 130.226562 218.128906 C 129.582031 216.570312 129.015625 214.984375 128.523438 213.371094 C 128.035156 211.753906 127.625 210.121094 127.296875 208.464844 C 126.96875 206.8125 126.71875 205.144531 126.554688 203.464844 C 126.390625 201.789062 126.308594 200.105469 126.308594 198.417969 Z M 211.191406 262.289062 L 207.019531 252.863281 C 209.910156 251.304688 212.65625 249.523438 215.265625 247.527344 C 217.871094 245.53125 220.300781 243.339844 222.558594 240.957031 C 224.816406 238.574219 226.871094 236.023438 228.722656 233.3125 C 230.574219 230.601562 232.199219 227.761719 233.597656 224.789062 L 243.28125 228.5 C 241.613281 232.09375 239.667969 235.527344 237.441406 238.804688 C 235.214844 242.078125 232.738281 245.15625 230.007812 248.027344 C 227.28125 250.898438 224.339844 253.53125 221.183594 255.925781 C 218.023438 258.316406 214.695312 260.4375 211.191406 262.289062 Z M 232.257812 169.210938 C 230.691406 166.324219 228.910156 163.578125 226.910156 160.96875 C 224.914062 158.363281 222.722656 155.929688 220.339844 153.667969 C 217.953125 151.40625 215.410156 149.347656 212.699219 147.488281 C 209.992188 145.628906 207.152344 143.996094 204.1875 142.582031 L 207.894531 132.953125 C 211.488281 134.617188 214.925781 136.5625 218.199219 138.789062 C 221.476562 141.019531 224.550781 143.496094 227.421875 146.222656 C 230.296875 148.949219 232.929688 151.894531 235.320312 155.050781 C 237.714844 158.207031 239.835938 161.539062 241.683594 165.039062 Z M 232.257812 169.210938 " fill-opacity="1" fill-rule="nonzero"/><path fill="#ffffff" d="M 182.964844 157.210938 L 172.664062 157.210938 L 172.664062 167.511719 L 162.363281 167.511719 C 162.023438 167.511719 161.6875 167.546875 161.359375 167.613281 C 161.027344 167.679688 160.703125 167.777344 160.390625 167.90625 C 160.078125 168.035156 159.78125 168.191406 159.5 168.382812 C 159.21875 168.570312 158.960938 168.78125 158.71875 169.023438 C 158.480469 169.261719 158.265625 169.519531 158.078125 169.800781 C 157.890625 170.082031 157.734375 170.378906 157.605469 170.691406 C 157.472656 171.003906 157.375 171.328125 157.308594 171.660156 C 157.246094 171.992188 157.210938 172.324219 157.210938 172.664062 L 157.210938 198.417969 C 157.210938 198.757812 157.246094 199.089844 157.308594 199.421875 C 157.375 199.753906 157.472656 200.078125 157.605469 200.390625 C 157.734375 200.703125 157.890625 201 158.078125 201.28125 C 158.265625 201.5625 158.480469 201.820312 158.71875 202.058594 C 158.960938 202.300781 159.21875 202.511719 159.5 202.699219 C 159.78125 202.886719 160.078125 203.046875 160.390625 203.175781 C 160.703125 203.304688 161.027344 203.402344 161.359375 203.46875 C 161.6875 203.535156 162.023438 203.570312 162.363281 203.570312 L 188.117188 203.570312 L 188.117188 219.019531 L 157.210938 219.019531 L 157.210938 229.324219 L 172.664062 229.324219 L 172.664062 239.625 L 182.964844 239.625 L 182.964844 229.324219 L 193.265625 229.324219 C 193.605469 229.324219 193.941406 229.289062 194.273438 229.222656 C 194.605469 229.15625 194.925781 229.058594 195.238281 228.929688 C 195.550781 228.800781 195.847656 228.640625 196.128906 228.453125 C 196.410156 228.265625 196.671875 228.054688 196.910156 227.8125 C 197.148438 227.574219 197.363281 227.316406 197.550781 227.035156 C 197.738281 226.753906 197.894531 226.457031 198.027344 226.144531 C 198.15625 225.832031 198.253906 225.507812 198.320312 225.175781 C 198.386719 224.84375 198.417969 224.511719 198.417969 224.171875 L 198.417969 198.417969 C 198.417969 198.078125 198.386719 197.746094 198.320312 197.414062 C 198.253906 197.082031 198.15625 196.757812 198.027344 196.445312 C 197.894531 196.132812 197.738281 195.835938 197.550781 195.554688 C 197.363281 195.273438 197.148438 195.015625 196.910156 194.777344 C 196.671875 194.535156 196.410156 194.324219 196.128906 194.136719 C 195.847656 193.945312 195.550781 193.789062 195.238281 193.660156 C 194.925781 193.53125 194.605469 193.433594 194.273438 193.367188 C 193.941406 193.300781 193.605469 193.265625 193.265625 193.265625 L 167.511719 193.265625 L 167.511719 177.816406 L 198.417969 177.816406 L 198.417969 167.511719 L 182.964844 167.511719 Z M 182.964844 157.210938 " fill-opacity="1" fill-rule="nonzero"/></svg>