<svg xmlns="http://www.w3.org/2000/svg" xmlns:xlink="http://www.w3.org/1999/xlink" width="500" zoomAndPan="magnify" viewBox="0 0 375 374.999991" height="500" preserveAspectRatio="xMidYMid meet" version="1.0"><defs><clipPath id="3eaf0b486a"><path d="M 38.742188 59 L 317 59 L 317 337.242188 L 38.742188 337.242188 Z M 38.742188 59 " clip-rule="nonzero"/></clipPath><clipPath id="358cff4725"><path d="M 198 38.742188 L 337.242188 38.742188 L 337.242188 178 L 198 178 Z M 198 38.742188 " clip-rule="nonzero"/></clipPath></defs><g clip-path="url(#3eaf0b486a)"><path fill="#000000" d="M 316.65625 198.285156 L 275.484375 198.285156 C 275.484375 199.886719 275.445312 201.484375 275.367188 203.085938 C 275.289062 204.683594 275.171875 206.277344 275.015625 207.871094 C 274.855469 209.464844 274.660156 211.050781 274.425781 212.632812 C 274.191406 214.21875 273.917969 215.792969 273.605469 217.363281 C 273.292969 218.933594 272.941406 220.492188 272.554688 222.046875 C 272.164062 223.597656 271.738281 225.140625 271.273438 226.671875 C 270.808594 228.203125 270.308594 229.722656 269.769531 231.230469 C 269.230469 232.734375 268.652344 234.226562 268.042969 235.707031 C 267.429688 237.183594 266.78125 238.648438 266.097656 240.09375 C 265.410156 241.542969 264.691406 242.96875 263.9375 244.382812 C 263.183594 245.792969 262.394531 247.183594 261.574219 248.558594 C 260.75 249.929688 259.894531 251.28125 259.003906 252.613281 C 258.117188 253.941406 257.195312 255.25 256.242188 256.535156 C 255.289062 257.820312 254.304688 259.082031 253.289062 260.320312 C 252.273438 261.558594 251.226562 262.769531 250.152344 263.953125 C 249.078125 265.140625 247.976562 266.296875 246.84375 267.429688 C 245.710938 268.5625 244.554688 269.664062 243.367188 270.738281 C 242.183594 271.816406 240.972656 272.859375 239.734375 273.875 C 238.496094 274.890625 237.234375 275.875 235.949219 276.828125 C 234.664062 277.78125 233.355469 278.703125 232.027344 279.589844 C 230.695312 280.480469 229.34375 281.335938 227.972656 282.160156 C 226.597656 282.980469 225.207031 283.769531 223.796875 284.523438 C 222.382812 285.277344 220.953125 286 219.507812 286.683594 C 218.0625 287.367188 216.597656 288.015625 215.121094 288.628906 C 213.640625 289.238281 212.148438 289.816406 210.644531 290.355469 C 209.136719 290.894531 207.617188 291.394531 206.085938 291.859375 C 204.554688 292.324219 203.011719 292.75 201.460938 293.140625 C 199.90625 293.527344 198.347656 293.878906 196.777344 294.191406 C 195.207031 294.503906 193.632812 294.777344 192.046875 295.011719 C 190.464844 295.246094 188.878906 295.441406 187.285156 295.601562 C 185.691406 295.757812 184.097656 295.875 182.5 295.953125 C 180.898438 296.03125 179.300781 296.070312 177.699219 296.070312 C 176.101562 296.070312 174.5 296.03125 172.902344 295.953125 C 171.304688 295.875 169.707031 295.757812 168.117188 295.601562 C 166.523438 295.441406 164.933594 295.246094 163.351562 295.011719 C 161.769531 294.777344 160.191406 294.503906 158.625 294.191406 C 157.054688 293.878906 155.492188 293.527344 153.941406 293.140625 C 152.386719 292.75 150.847656 292.324219 149.316406 291.859375 C 147.785156 291.394531 146.265625 290.894531 144.757812 290.355469 C 143.25 289.816406 141.757812 289.238281 140.28125 288.628906 C 138.800781 288.015625 137.339844 287.367188 135.890625 286.683594 C 134.445312 286 133.015625 285.277344 131.605469 284.523438 C 130.195312 283.769531 128.800781 282.980469 127.429688 282.160156 C 126.054688 281.335938 124.703125 280.480469 123.375 279.589844 C 122.042969 278.703125 120.734375 277.78125 119.449219 276.828125 C 118.164062 275.875 116.902344 274.890625 115.667969 273.875 C 114.429688 272.859375 113.21875 271.816406 112.03125 270.738281 C 110.847656 269.664062 109.6875 268.5625 108.554688 267.429688 C 107.425781 266.296875 106.320312 265.140625 105.246094 263.953125 C 104.171875 262.769531 103.128906 261.558594 102.113281 260.320312 C 101.097656 259.082031 100.113281 257.820312 99.160156 256.535156 C 98.207031 255.25 97.285156 253.941406 96.394531 252.613281 C 95.507812 251.28125 94.648438 249.929688 93.828125 248.558594 C 93.003906 247.183594 92.214844 245.792969 91.460938 244.382812 C 90.707031 242.96875 89.988281 241.542969 89.304688 240.09375 C 88.621094 238.648438 87.972656 237.183594 87.359375 235.707031 C 86.746094 234.226562 86.171875 232.734375 85.632812 231.230469 C 85.09375 229.722656 84.589844 228.203125 84.125 226.671875 C 83.660156 225.140625 83.234375 223.597656 82.847656 222.046875 C 82.457031 220.492188 82.105469 218.933594 81.792969 217.363281 C 81.480469 215.792969 81.207031 214.21875 80.972656 212.632812 C 80.738281 211.050781 80.542969 209.464844 80.386719 207.871094 C 80.230469 206.277344 80.113281 204.683594 80.035156 203.085938 C 79.953125 201.484375 79.914062 199.886719 79.914062 198.285156 C 79.914062 196.6875 79.953125 195.085938 80.035156 193.488281 C 80.113281 191.890625 80.230469 190.292969 80.386719 188.703125 C 80.542969 187.109375 80.738281 185.519531 80.972656 183.9375 C 81.207031 182.355469 81.480469 180.777344 81.792969 179.210938 C 82.105469 177.640625 82.457031 176.078125 82.847656 174.527344 C 83.234375 172.972656 83.660156 171.433594 84.125 169.902344 C 84.589844 168.371094 85.09375 166.851562 85.632812 165.34375 C 86.171875 163.835938 86.746094 162.34375 87.359375 160.867188 C 87.972656 159.386719 88.621094 157.925781 89.304688 156.476562 C 89.988281 155.03125 90.707031 153.601562 91.460938 152.191406 C 92.214844 150.78125 93.003906 149.386719 93.828125 148.015625 C 94.648438 146.640625 95.507812 145.289062 96.394531 143.960938 C 97.285156 142.628906 98.207031 141.320312 99.160156 140.035156 C 100.113281 138.75 101.097656 137.488281 102.113281 136.253906 C 103.128906 135.015625 104.171875 133.804688 105.246094 132.617188 C 106.320312 131.433594 107.425781 130.273438 108.554688 129.140625 C 109.6875 128.011719 110.847656 126.90625 112.03125 125.832031 C 113.21875 124.757812 114.429688 123.714844 115.667969 122.699219 C 116.902344 121.683594 118.164062 120.699219 119.449219 119.746094 C 120.734375 118.792969 122.042969 117.871094 123.375 116.980469 C 124.703125 116.09375 126.054688 115.238281 127.429688 114.414062 C 128.800781 113.589844 130.195312 112.800781 131.605469 112.046875 C 133.015625 111.292969 134.445312 110.574219 135.890625 109.890625 C 137.339844 109.207031 138.800781 108.558594 140.28125 107.945312 C 141.757812 107.332031 143.25 106.757812 144.757812 106.21875 C 146.265625 105.679688 147.785156 105.175781 149.316406 104.710938 C 150.847656 104.246094 152.386719 103.820312 153.941406 103.433594 C 155.492188 103.042969 157.054688 102.691406 158.625 102.378906 C 160.191406 102.070312 161.769531 101.796875 163.351562 101.558594 C 164.933594 101.324219 166.523438 101.128906 168.117188 100.972656 C 169.707031 100.816406 171.304688 100.699219 172.902344 100.621094 C 174.5 100.542969 176.101562 100.5 177.699219 100.5 L 177.699219 59.328125 C 175.425781 59.328125 173.152344 59.386719 170.882812 59.496094 C 168.609375 59.609375 166.34375 59.777344 164.078125 60 C 161.816406 60.222656 159.558594 60.5 157.3125 60.832031 C 155.0625 61.167969 152.820312 61.554688 150.589844 62 C 148.359375 62.441406 146.140625 62.941406 143.9375 63.492188 C 141.730469 64.046875 139.539062 64.652344 137.363281 65.3125 C 135.1875 65.972656 133.027344 66.6875 130.886719 67.453125 C 128.746094 68.21875 126.625 69.035156 124.523438 69.90625 C 122.421875 70.777344 120.34375 71.699219 118.289062 72.671875 C 116.234375 73.644531 114.203125 74.664062 112.195312 75.738281 C 110.191406 76.808594 108.210938 77.929688 106.261719 79.097656 C 104.3125 80.269531 102.390625 81.484375 100.5 82.746094 C 98.609375 84.011719 96.75 85.320312 94.921875 86.675781 C 93.097656 88.03125 91.304688 89.429688 89.546875 90.871094 C 87.789062 92.3125 86.066406 93.800781 84.382812 95.324219 C 82.699219 96.851562 81.050781 98.421875 79.441406 100.027344 C 77.835938 101.636719 76.265625 103.285156 74.738281 104.96875 C 73.210938 106.652344 71.726562 108.375 70.285156 110.132812 C 68.84375 111.890625 67.445312 113.683594 66.089844 115.511719 C 64.734375 117.335938 63.425781 119.195312 62.160156 121.085938 C 60.898438 122.976562 59.683594 124.898438 58.511719 126.847656 C 57.34375 128.796875 56.222656 130.777344 55.152344 132.78125 C 54.078125 134.789062 53.058594 136.820312 52.085938 138.875 C 51.113281 140.929688 50.191406 143.007812 49.320312 145.109375 C 48.449219 147.210938 47.632812 149.332031 46.867188 151.472656 C 46.101562 153.613281 45.386719 155.773438 44.726562 157.949219 C 44.066406 160.125 43.460938 162.316406 42.90625 164.523438 C 42.355469 166.730469 41.855469 168.945312 41.414062 171.175781 C 40.96875 173.40625 40.582031 175.648438 40.246094 177.898438 C 39.914062 180.148438 39.636719 182.402344 39.414062 184.667969 C 39.191406 186.929688 39.023438 189.195312 38.910156 191.46875 C 38.800781 193.738281 38.742188 196.011719 38.742188 198.285156 C 38.742188 200.558594 38.800781 202.832031 38.910156 205.105469 C 39.023438 207.375 39.191406 209.644531 39.414062 211.90625 C 39.636719 214.167969 39.914062 216.425781 40.246094 218.675781 C 40.582031 220.925781 40.96875 223.164062 41.414062 225.394531 C 41.855469 227.625 42.355469 229.84375 42.90625 232.050781 C 43.460938 234.257812 44.066406 236.445312 44.726562 238.625 C 45.386719 240.800781 46.101562 242.957031 46.867188 245.097656 C 47.632812 247.242188 48.449219 249.363281 49.320312 251.460938 C 50.191406 253.5625 51.113281 255.640625 52.085938 257.699219 C 53.058594 259.753906 54.078125 261.785156 55.152344 263.789062 C 56.222656 265.796875 57.34375 267.773438 58.511719 269.722656 C 59.683594 271.675781 60.898438 273.597656 62.160156 275.488281 C 63.425781 277.378906 64.734375 279.234375 66.089844 281.0625 C 67.445312 282.890625 68.84375 284.683594 70.285156 286.441406 C 71.726562 288.199219 73.210938 289.917969 74.738281 291.605469 C 76.265625 293.289062 77.835938 294.9375 79.441406 296.542969 C 81.050781 298.152344 82.699219 299.71875 84.382812 301.246094 C 86.066406 302.773438 87.789062 304.257812 89.546875 305.703125 C 91.304688 307.144531 93.097656 308.542969 94.921875 309.898438 C 96.75 311.253906 98.609375 312.5625 100.5 313.824219 C 102.390625 315.089844 104.3125 316.304688 106.261719 317.472656 C 108.210938 318.644531 110.191406 319.761719 112.195312 320.835938 C 114.203125 321.90625 116.234375 322.929688 118.289062 323.902344 C 120.34375 324.875 122.421875 325.796875 124.523438 326.664062 C 126.625 327.535156 128.746094 328.355469 130.886719 329.121094 C 133.027344 329.886719 135.1875 330.601562 137.363281 331.261719 C 139.539062 331.921875 141.730469 332.527344 143.9375 333.078125 C 146.140625 333.632812 148.359375 334.128906 150.589844 334.574219 C 152.820312 335.015625 155.0625 335.40625 157.3125 335.738281 C 159.558594 336.074219 161.816406 336.351562 164.078125 336.574219 C 166.34375 336.796875 168.609375 336.964844 170.882812 337.074219 C 173.152344 337.1875 175.425781 337.242188 177.699219 337.242188 C 179.972656 337.242188 182.246094 337.1875 184.519531 337.074219 C 186.789062 336.964844 189.058594 336.796875 191.320312 336.574219 C 193.582031 336.351562 195.839844 336.074219 198.089844 335.738281 C 200.339844 335.40625 202.578125 335.015625 204.808594 334.574219 C 207.039062 334.128906 209.257812 333.632812 211.464844 333.078125 C 213.667969 332.527344 215.859375 331.917969 218.039062 331.257812 C 220.214844 330.601562 222.371094 329.886719 224.511719 329.121094 C 226.65625 328.355469 228.777344 327.535156 230.875 326.664062 C 232.976562 325.796875 235.054688 324.875 237.113281 323.902344 C 239.167969 322.929688 241.199219 321.90625 243.203125 320.835938 C 245.210938 319.761719 247.1875 318.644531 249.136719 317.472656 C 251.089844 316.304688 253.007812 315.089844 254.902344 313.824219 C 256.792969 312.5625 258.648438 311.253906 260.476562 309.898438 C 262.304688 308.542969 264.09375 307.144531 265.851562 305.703125 C 267.613281 304.257812 269.332031 302.773438 271.019531 301.246094 C 272.703125 299.71875 274.347656 298.152344 275.957031 296.542969 C 277.566406 294.9375 279.132812 293.289062 280.660156 291.605469 C 282.1875 289.917969 283.671875 288.199219 285.117188 286.441406 C 286.558594 284.683594 287.957031 282.890625 289.3125 281.0625 C 290.664062 279.234375 291.976562 277.378906 293.238281 275.488281 C 294.503906 273.597656 295.71875 271.675781 296.886719 269.722656 C 298.054688 267.773438 299.175781 265.796875 300.25 263.789062 C 301.320312 261.785156 302.34375 259.753906 303.316406 257.699219 C 304.289062 255.640625 305.210938 253.5625 306.078125 251.460938 C 306.949219 249.363281 307.769531 247.242188 308.535156 245.097656 C 309.300781 242.957031 310.011719 240.800781 310.671875 238.625 C 311.332031 236.445312 311.941406 234.257812 312.492188 232.050781 C 313.046875 229.84375 313.542969 227.625 313.988281 225.394531 C 314.429688 223.164062 314.820312 220.925781 315.152344 218.675781 C 315.488281 216.425781 315.765625 214.167969 315.988281 211.90625 C 316.210938 209.644531 316.378906 207.375 316.488281 205.105469 C 316.601562 202.832031 316.65625 200.558594 316.65625 198.285156 Z M 316.65625 198.285156 " fill-opacity="1" fill-rule="nonzero"/></g><g clip-path="url(#358cff4725)"><path fill="#000000" d="M 198.285156 38.742188 C 200.558594 38.742188 202.832031 38.800781 205.105469 38.910156 C 207.375 39.023438 209.644531 39.1875 211.90625 39.414062 C 214.167969 39.636719 216.425781 39.914062 218.675781 40.246094 C 220.925781 40.582031 223.164062 40.96875 225.394531 41.414062 C 227.625 41.855469 229.84375 42.355469 232.050781 42.90625 C 234.257812 43.460938 236.445312 44.066406 238.625 44.726562 C 240.800781 45.386719 242.957031 46.101562 245.097656 46.867188 C 247.242188 47.632812 249.363281 48.449219 251.460938 49.320312 C 253.5625 50.191406 255.640625 51.113281 257.699219 52.085938 C 259.753906 53.058594 261.785156 54.078125 263.789062 55.152344 C 265.796875 56.222656 267.773438 57.34375 269.722656 58.511719 C 271.675781 59.683594 273.597656 60.898438 275.488281 62.160156 C 277.378906 63.425781 279.234375 64.734375 281.0625 66.089844 C 282.890625 67.445312 284.683594 68.84375 286.441406 70.285156 C 288.199219 71.726562 289.917969 73.210938 291.605469 74.738281 C 293.289062 76.265625 294.9375 77.835938 296.542969 79.441406 C 298.152344 81.050781 299.71875 82.699219 301.246094 84.382812 C 302.773438 86.066406 304.257812 87.789062 305.703125 89.546875 C 307.144531 91.304688 308.542969 93.097656 309.898438 94.921875 C 311.253906 96.75 312.5625 98.609375 313.824219 100.5 C 315.089844 102.390625 316.304688 104.3125 317.472656 106.261719 C 318.644531 108.210938 319.761719 110.191406 320.835938 112.195312 C 321.90625 114.203125 322.929688 116.234375 323.902344 118.289062 C 324.875 120.34375 325.796875 122.421875 326.664062 124.523438 C 327.535156 126.625 328.355469 128.746094 329.121094 130.886719 C 329.886719 133.027344 330.601562 135.1875 331.261719 137.363281 C 331.921875 139.539062 332.527344 141.730469 333.078125 143.9375 C 333.632812 146.140625 334.128906 148.359375 334.574219 150.589844 C 335.015625 152.820312 335.40625 155.0625 335.738281 157.3125 C 336.074219 159.558594 336.351562 161.816406 336.574219 164.078125 C 336.796875 166.34375 336.964844 168.609375 337.074219 170.882812 C 337.1875 173.152344 337.242188 175.425781 337.242188 177.699219 L 296.070312 177.699219 C 296.070312 176.101562 296.03125 174.5 295.953125 172.902344 C 295.875 171.304688 295.757812 169.707031 295.601562 168.117188 C 295.441406 166.523438 295.246094 164.933594 295.011719 163.351562 C 294.777344 161.769531 294.503906 160.191406 294.191406 158.625 C 293.878906 157.054688 293.527344 155.492188 293.140625 153.941406 C 292.75 152.386719 292.324219 150.847656 291.859375 149.316406 C 291.394531 147.785156 290.894531 146.265625 290.355469 144.757812 C 289.816406 143.25 289.238281 141.757812 288.628906 140.28125 C 288.015625 138.800781 287.367188 137.339844 286.683594 135.890625 C 286 134.445312 285.277344 133.015625 284.523438 131.605469 C 283.769531 130.195312 282.980469 128.800781 282.160156 127.429688 C 281.335938 126.054688 280.480469 124.703125 279.589844 123.375 C 278.703125 122.042969 277.78125 120.734375 276.828125 119.449219 C 275.875 118.164062 274.890625 116.902344 273.875 115.667969 C 272.859375 114.429688 271.816406 113.21875 270.738281 112.03125 C 269.664062 110.847656 268.5625 109.6875 267.429688 108.554688 C 266.296875 107.425781 265.140625 106.320312 263.953125 105.246094 C 262.769531 104.171875 261.558594 103.125 260.320312 102.113281 C 259.082031 101.097656 257.820312 100.113281 256.535156 99.160156 C 255.25 98.207031 253.941406 97.285156 252.613281 96.394531 C 251.28125 95.507812 249.929688 94.648438 248.558594 93.828125 C 247.183594 93.003906 245.792969 92.214844 244.382812 91.460938 C 242.96875 90.707031 241.542969 89.988281 240.09375 89.304688 C 238.648438 88.621094 237.183594 87.972656 235.707031 87.359375 C 234.226562 86.746094 232.734375 86.171875 231.230469 85.632812 C 229.722656 85.09375 228.203125 84.589844 226.671875 84.125 C 225.140625 83.660156 223.597656 83.234375 222.046875 82.847656 C 220.492188 82.457031 218.933594 82.105469 217.363281 81.792969 C 215.792969 81.480469 214.21875 81.207031 212.632812 80.972656 C 211.050781 80.738281 209.464844 80.542969 207.871094 80.386719 C 206.277344 80.230469 204.683594 80.113281 203.085938 80.035156 C 201.484375 79.953125 199.886719 79.914062 198.285156 79.914062 Z M 198.285156 38.742188 " fill-opacity="1" fill-rule="nonzero"/></g><path fill="#000000" d="M 177.699219 115.941406 C 176.351562 115.941406 175.003906 115.972656 173.660156 116.039062 C 172.3125 116.105469 170.96875 116.207031 169.628906 116.339844 C 168.289062 116.46875 166.949219 116.636719 165.617188 116.832031 C 164.285156 117.03125 162.957031 117.261719 161.636719 117.523438 C 160.3125 117.785156 159 118.082031 157.691406 118.410156 C 156.382812 118.738281 155.085938 119.097656 153.796875 119.488281 C 152.507812 119.878906 151.226562 120.300781 149.960938 120.753906 C 148.691406 121.210938 147.433594 121.695312 146.1875 122.210938 C 144.941406 122.726562 143.710938 123.269531 142.492188 123.847656 C 141.273438 124.421875 140.070312 125.03125 138.882812 125.664062 C 137.695312 126.300781 136.523438 126.964844 135.367188 127.65625 C 134.210938 128.351562 133.074219 129.070312 131.953125 129.820312 C 130.832031 130.566406 129.730469 131.34375 128.648438 132.144531 C 127.566406 132.949219 126.503906 133.777344 125.460938 134.632812 C 124.417969 135.488281 123.398438 136.367188 122.402344 137.273438 C 121.402344 138.179688 120.425781 139.105469 119.472656 140.058594 C 118.519531 141.011719 117.589844 141.988281 116.6875 142.988281 C 115.78125 143.984375 114.902344 145.003906 114.046875 146.046875 C 113.191406 147.089844 112.363281 148.152344 111.558594 149.234375 C 110.757812 150.316406 109.980469 151.417969 109.234375 152.539062 C 108.484375 153.660156 107.761719 154.796875 107.070312 155.953125 C 106.378906 157.109375 105.714844 158.28125 105.078125 159.46875 C 104.441406 160.65625 103.835938 161.859375 103.261719 163.078125 C 102.683594 164.296875 102.140625 165.527344 101.625 166.773438 C 101.109375 168.019531 100.621094 169.277344 100.167969 170.546875 C 99.714844 171.8125 99.292969 173.09375 98.902344 174.382812 C 98.511719 175.671875 98.152344 176.972656 97.824219 178.277344 C 97.496094 179.585938 97.199219 180.898438 96.9375 182.222656 C 96.675781 183.542969 96.445312 184.871094 96.246094 186.203125 C 96.050781 187.535156 95.882812 188.875 95.75 190.214844 C 95.621094 191.554688 95.519531 192.898438 95.453125 194.246094 C 95.386719 195.59375 95.355469 196.9375 95.355469 198.285156 C 95.355469 199.632812 95.386719 200.980469 95.453125 202.328125 C 95.519531 203.671875 95.621094 205.015625 95.75 206.359375 C 95.882812 207.699219 96.050781 209.035156 96.246094 210.367188 C 96.445312 211.703125 96.675781 213.027344 96.9375 214.351562 C 97.199219 215.671875 97.496094 216.988281 97.824219 218.292969 C 98.152344 219.601562 98.511719 220.898438 98.902344 222.191406 C 99.292969 223.480469 99.714844 224.757812 100.167969 226.027344 C 100.621094 227.296875 101.109375 228.554688 101.625 229.796875 C 102.140625 231.042969 102.683594 232.273438 103.261719 233.492188 C 103.835938 234.710938 104.441406 235.914062 105.078125 237.101562 C 105.714844 238.292969 106.378906 239.464844 107.070312 240.621094 C 107.761719 241.777344 108.484375 242.914062 109.234375 244.035156 C 109.980469 245.15625 110.757812 246.257812 111.558594 247.339844 C 112.363281 248.421875 113.191406 249.484375 114.046875 250.523438 C 114.902344 251.566406 115.78125 252.585938 116.6875 253.585938 C 117.589844 254.585938 118.519531 255.558594 119.472656 256.511719 C 120.425781 257.464844 121.402344 258.394531 122.402344 259.300781 C 123.398438 260.203125 124.417969 261.085938 125.460938 261.941406 C 126.503906 262.792969 127.566406 263.625 128.648438 264.425781 C 129.730469 265.230469 130.832031 266.003906 131.953125 266.753906 C 133.074219 267.503906 134.210938 268.222656 135.367188 268.914062 C 136.523438 269.609375 137.695312 270.273438 138.882812 270.90625 C 140.070312 271.542969 141.273438 272.148438 142.492188 272.726562 C 143.710938 273.300781 144.941406 273.847656 146.1875 274.363281 C 147.433594 274.878906 148.691406 275.363281 149.960938 275.816406 C 151.226562 276.273438 152.507812 276.695312 153.796875 277.085938 C 155.085938 277.476562 156.382812 277.835938 157.691406 278.164062 C 159 278.492188 160.3125 278.785156 161.636719 279.050781 C 162.957031 279.3125 164.285156 279.542969 165.617188 279.738281 C 166.949219 279.9375 168.289062 280.101562 169.628906 280.234375 C 170.96875 280.367188 172.3125 280.464844 173.660156 280.53125 C 175.003906 280.597656 176.351562 280.632812 177.699219 280.632812 C 179.046875 280.632812 180.394531 280.597656 181.742188 280.53125 C 183.085938 280.464844 184.429688 280.367188 185.769531 280.234375 C 187.113281 280.101562 188.449219 279.9375 189.78125 279.738281 C 191.117188 279.542969 192.441406 279.3125 193.765625 279.050781 C 195.085938 278.785156 196.402344 278.492188 197.707031 278.164062 C 199.015625 277.835938 200.3125 277.476562 201.605469 277.085938 C 202.894531 276.695312 204.171875 276.273438 205.441406 275.816406 C 206.710938 275.363281 207.96875 274.878906 209.210938 274.363281 C 210.457031 273.847656 211.6875 273.300781 212.90625 272.726562 C 214.125 272.148438 215.328125 271.542969 216.515625 270.90625 C 217.707031 270.273438 218.878906 269.609375 220.035156 268.914062 C 221.191406 268.222656 222.328125 267.503906 223.449219 266.753906 C 224.570312 266.003906 225.671875 265.230469 226.753906 264.425781 C 227.835938 263.625 228.898438 262.792969 229.9375 261.941406 C 230.980469 261.085938 232 260.203125 233 259.300781 C 234 258.394531 234.972656 257.464844 235.925781 256.511719 C 236.878906 255.558594 237.808594 254.585938 238.714844 253.585938 C 239.617188 252.585938 240.5 251.566406 241.355469 250.523438 C 242.207031 249.484375 243.039062 248.421875 243.839844 247.339844 C 244.644531 246.257812 245.417969 245.15625 246.167969 244.035156 C 246.917969 242.914062 247.636719 241.777344 248.328125 240.621094 C 249.023438 239.464844 249.6875 238.292969 250.320312 237.101562 C 250.957031 235.914062 251.5625 234.710938 252.140625 233.492188 C 252.714844 232.273438 253.261719 231.042969 253.777344 229.796875 C 254.292969 228.554688 254.777344 227.296875 255.230469 226.027344 C 255.683594 224.757812 256.109375 223.480469 256.5 222.191406 C 256.890625 220.898438 257.25 219.601562 257.578125 218.292969 C 257.90625 216.988281 258.199219 215.671875 258.460938 214.351562 C 258.726562 213.027344 258.957031 211.703125 259.152344 210.367188 C 259.351562 209.035156 259.515625 207.699219 259.648438 206.359375 C 259.78125 205.015625 259.878906 203.671875 259.945312 202.328125 C 260.011719 200.980469 260.046875 199.632812 260.046875 198.285156 C 260.046875 196.9375 260.011719 195.59375 259.945312 194.246094 C 259.878906 192.898438 259.78125 191.554688 259.648438 190.214844 C 259.515625 188.875 259.351562 187.535156 259.152344 186.203125 C 258.957031 184.871094 258.726562 183.542969 258.460938 182.222656 C 258.199219 180.898438 257.90625 179.585938 257.578125 178.277344 C 257.25 176.972656 256.890625 175.671875 256.5 174.382812 C 256.109375 173.09375 255.683594 171.8125 255.230469 170.546875 C 254.777344 169.277344 254.292969 168.019531 253.777344 166.773438 C 253.261719 165.527344 252.714844 164.296875 252.140625 163.078125 C 251.5625 161.859375 250.957031 160.65625 250.320312 159.46875 C 249.6875 158.28125 249.023438 157.109375 248.328125 155.953125 C 247.636719 154.796875 246.917969 153.660156 246.167969 152.539062 C 245.417969 151.417969 244.644531 150.316406 243.839844 149.234375 C 243.039062 148.152344 242.207031 147.089844 241.355469 146.046875 C 240.5 145.003906 239.617188 143.984375 238.714844 142.988281 C 237.808594 141.988281 236.878906 141.011719 235.925781 140.058594 C 234.972656 139.105469 234 138.179688 233 137.273438 C 232 136.367188 230.980469 135.488281 229.9375 134.632812 C 228.898438 133.777344 227.835938 132.949219 226.753906 132.144531 C 225.671875 131.34375 224.570312 130.566406 223.449219 129.820312 C 222.328125 129.070312 221.191406 128.351562 220.035156 127.65625 C 218.878906 126.964844 217.707031 126.300781 216.515625 125.664062 C 215.328125 125.03125 214.125 124.421875 212.90625 123.847656 C 211.6875 123.269531 210.457031 122.726562 209.210938 122.210938 C 207.96875 121.695312 206.710938 121.210938 205.441406 120.753906 C 204.171875 120.300781 202.894531 119.878906 201.605469 119.488281 C 200.3125 119.097656 199.015625 118.738281 197.707031 118.410156 C 196.402344 118.082031 195.085938 117.785156 193.765625 117.523438 C 192.441406 117.261719 191.117188 117.03125 189.78125 116.832031 C 188.449219 116.636719 187.113281 116.46875 185.769531 116.339844 C 184.429688 116.207031 183.085938 116.105469 181.742188 116.039062 C 180.394531 115.972656 179.046875 115.941406 177.699219 115.941406 Z M 144.351562 134.46875 L 148.519531 143.886719 C 145.628906 145.441406 142.875 147.21875 140.265625 149.210938 C 137.660156 151.207031 135.222656 153.394531 132.964844 155.777344 C 130.703125 158.160156 128.648438 160.703125 126.792969 163.414062 C 124.941406 166.125 123.3125 168.964844 121.910156 171.9375 L 112.289062 168.230469 C 113.949219 164.636719 115.890625 161.203125 118.113281 157.925781 C 120.335938 154.652344 122.8125 151.578125 125.539062 148.707031 C 128.265625 145.839844 131.203125 143.207031 134.363281 140.820312 C 137.519531 138.429688 140.847656 136.3125 144.351562 134.46875 Z M 147.644531 263.699219 C 144.054688 262.039062 140.621094 260.097656 137.351562 257.878906 C 134.078125 255.65625 131.003906 253.1875 128.132812 250.464844 C 125.265625 247.746094 122.632812 244.808594 120.242188 241.65625 C 117.851562 238.507812 115.730469 235.183594 113.882812 231.6875 L 123.300781 227.519531 C 124.867188 230.402344 126.648438 233.140625 128.644531 235.742188 C 130.644531 238.34375 132.832031 240.773438 135.214844 243.027344 C 137.597656 245.28125 140.140625 247.335938 142.847656 249.1875 C 145.550781 251.039062 148.386719 252.667969 151.351562 254.074219 Z M 126.234375 198.285156 C 126.234375 196.601562 126.316406 194.917969 126.484375 193.242188 C 126.648438 191.5625 126.894531 189.898438 127.222656 188.246094 C 127.550781 186.59375 127.960938 184.960938 128.449219 183.347656 C 128.941406 181.734375 129.507812 180.148438 130.152344 178.589844 C 130.796875 177.035156 131.515625 175.511719 132.3125 174.027344 C 133.105469 172.539062 133.972656 171.09375 134.90625 169.695312 C 135.84375 168.292969 136.847656 166.941406 137.917969 165.636719 C 138.984375 164.335938 140.117188 163.085938 141.308594 161.894531 C 142.5 160.703125 143.746094 159.570312 145.050781 158.503906 C 146.355469 157.433594 147.707031 156.429688 149.105469 155.496094 C 150.507812 154.558594 151.953125 153.691406 153.441406 152.898438 C 154.925781 152.101562 156.449219 151.382812 158.003906 150.738281 C 159.5625 150.09375 161.148438 149.527344 162.761719 149.035156 C 164.375 148.546875 166.007812 148.136719 167.660156 147.808594 C 169.3125 147.480469 170.976562 147.234375 172.65625 147.070312 C 174.332031 146.902344 176.015625 146.820312 177.699219 146.820312 C 179.386719 146.820312 181.066406 146.902344 182.746094 147.070312 C 184.421875 147.234375 186.085938 147.480469 187.742188 147.808594 C 189.394531 148.136719 191.027344 148.546875 192.640625 149.035156 C 194.253906 149.527344 195.835938 150.09375 197.394531 150.738281 C 198.953125 151.382812 200.472656 152.101562 201.960938 152.898438 C 203.449219 153.691406 204.890625 154.558594 206.292969 155.496094 C 207.695312 156.429688 209.046875 157.433594 210.347656 158.503906 C 211.652344 159.570312 212.898438 160.703125 214.089844 161.894531 C 215.285156 163.085938 216.414062 164.335938 217.484375 165.636719 C 218.554688 166.941406 219.554688 168.292969 220.492188 169.695312 C 221.429688 171.09375 222.292969 172.539062 223.089844 174.027344 C 223.882812 175.511719 224.601562 177.035156 225.25 178.589844 C 225.894531 180.148438 226.460938 181.734375 226.949219 183.347656 C 227.4375 184.960938 227.847656 186.59375 228.175781 188.246094 C 228.503906 189.898438 228.753906 191.5625 228.917969 193.242188 C 229.082031 194.917969 229.164062 196.601562 229.164062 198.285156 C 229.164062 199.972656 229.082031 201.652344 228.917969 203.332031 C 228.753906 205.007812 228.503906 206.671875 228.175781 208.328125 C 227.847656 209.980469 227.4375 211.613281 226.949219 213.226562 C 226.460938 214.839844 225.894531 216.425781 225.25 217.980469 C 224.601562 219.539062 223.882812 221.058594 223.089844 222.546875 C 222.292969 224.035156 221.429688 225.476562 220.492188 226.878906 C 219.554688 228.28125 218.554688 229.632812 217.484375 230.9375 C 216.414062 232.238281 215.285156 233.484375 214.089844 234.679688 C 212.898438 235.871094 211.652344 237 210.347656 238.070312 C 209.046875 239.140625 207.695312 240.140625 206.292969 241.078125 C 204.890625 242.015625 203.449219 242.878906 201.960938 243.675781 C 200.472656 244.46875 198.953125 245.1875 197.394531 245.835938 C 195.835938 246.480469 194.253906 247.046875 192.640625 247.535156 C 191.027344 248.023438 189.394531 248.433594 187.742188 248.761719 C 186.085938 249.089844 184.421875 249.339844 182.746094 249.503906 C 181.066406 249.667969 179.386719 249.75 177.699219 249.75 C 176.015625 249.75 174.332031 249.667969 172.65625 249.503906 C 170.976562 249.339844 169.3125 249.089844 167.660156 248.761719 C 166.007812 248.433594 164.375 248.023438 162.761719 247.535156 C 161.148438 247.046875 159.5625 246.480469 158.003906 245.835938 C 156.449219 245.1875 154.925781 244.46875 153.441406 243.675781 C 151.953125 242.878906 150.507812 242.015625 149.105469 241.078125 C 147.707031 240.140625 146.355469 239.140625 145.050781 238.070312 C 143.746094 237 142.5 235.871094 141.308594 234.679688 C 140.117188 233.484375 138.984375 232.238281 137.917969 230.9375 C 136.847656 229.632812 135.84375 228.28125 134.90625 226.878906 C 133.972656 225.476562 133.105469 224.035156 132.3125 222.546875 C 131.515625 221.058594 130.796875 219.539062 130.152344 217.980469 C 129.507812 216.425781 128.941406 214.839844 128.449219 213.226562 C 127.960938 211.613281 127.550781 209.980469 127.222656 208.328125 C 126.894531 206.671875 126.648438 205.007812 126.484375 203.332031 C 126.316406 201.652344 126.234375 199.972656 126.234375 198.285156 Z M 211.050781 262.105469 L 206.882812 252.683594 C 209.769531 251.128906 212.515625 249.351562 215.117188 247.355469 C 217.722656 245.363281 220.152344 243.171875 222.410156 240.789062 C 224.664062 238.410156 226.714844 235.863281 228.566406 233.152344 C 230.417969 230.445312 232.039062 227.605469 233.4375 224.636719 L 243.113281 228.34375 C 241.449219 231.933594 239.503906 235.363281 237.277344 238.640625 C 235.054688 241.914062 232.578125 244.984375 229.851562 247.855469 C 227.125 250.722656 224.1875 253.355469 221.03125 255.746094 C 217.878906 258.136719 214.550781 260.253906 211.050781 262.105469 Z M 232.097656 169.105469 C 230.535156 166.21875 228.753906 163.472656 226.757812 160.871094 C 224.757812 158.265625 222.570312 155.832031 220.1875 153.574219 C 217.808594 151.316406 215.261719 149.257812 212.554688 147.398438 C 209.851562 145.542969 207.015625 143.90625 204.050781 142.496094 L 207.757812 132.875 C 211.347656 134.539062 214.777344 136.484375 218.050781 138.707031 C 221.328125 140.933594 224.398438 143.410156 227.269531 146.132812 C 230.136719 148.859375 232.769531 151.800781 235.160156 154.953125 C 237.550781 158.109375 239.667969 161.4375 241.515625 164.9375 Z M 232.097656 169.105469 " fill-opacity="1" fill-rule="nonzero"/><path fill="#000000" d="M 182.847656 157.113281 L 172.554688 157.113281 L 172.554688 167.40625 L 162.261719 167.40625 C 161.921875 167.40625 161.585938 167.441406 161.257812 167.507812 C 160.925781 167.570312 160.601562 167.667969 160.289062 167.796875 C 159.980469 167.929688 159.683594 168.085938 159.402344 168.273438 C 159.121094 168.460938 158.859375 168.675781 158.621094 168.914062 C 158.382812 169.152344 158.167969 169.414062 157.980469 169.695312 C 157.792969 169.976562 157.636719 170.273438 157.503906 170.585938 C 157.375 170.894531 157.277344 171.21875 157.210938 171.550781 C 157.148438 171.882812 157.113281 172.214844 157.113281 172.554688 L 157.113281 198.285156 C 157.113281 198.625 157.148438 198.957031 157.210938 199.289062 C 157.277344 199.621094 157.375 199.945312 157.503906 200.253906 C 157.636719 200.566406 157.792969 200.863281 157.980469 201.144531 C 158.167969 201.425781 158.382812 201.6875 158.621094 201.925781 C 158.859375 202.164062 159.121094 202.378906 159.402344 202.566406 C 159.683594 202.753906 159.980469 202.910156 160.289062 203.042969 C 160.601562 203.171875 160.925781 203.269531 161.257812 203.332031 C 161.585938 203.398438 161.921875 203.433594 162.261719 203.433594 L 187.992188 203.433594 L 187.992188 218.871094 L 157.113281 218.871094 L 157.113281 229.164062 L 172.554688 229.164062 L 172.554688 239.457031 L 182.847656 239.457031 L 182.847656 229.164062 L 193.140625 229.164062 C 193.476562 229.164062 193.8125 229.132812 194.144531 229.066406 C 194.476562 229 194.796875 228.902344 195.109375 228.773438 C 195.421875 228.644531 195.71875 228.484375 196 228.296875 C 196.28125 228.109375 196.539062 227.898438 196.777344 227.660156 C 197.019531 227.417969 197.230469 227.160156 197.417969 226.878906 C 197.605469 226.597656 197.765625 226.300781 197.894531 225.988281 C 198.023438 225.675781 198.121094 225.355469 198.1875 225.023438 C 198.253906 224.691406 198.285156 224.355469 198.285156 224.019531 L 198.285156 198.285156 C 198.285156 197.949219 198.253906 197.613281 198.1875 197.28125 C 198.121094 196.949219 198.023438 196.628906 197.894531 196.316406 C 197.765625 196.003906 197.605469 195.707031 197.417969 195.425781 C 197.230469 195.144531 197.019531 194.886719 196.777344 194.648438 C 196.539062 194.410156 196.28125 194.195312 196 194.007812 C 195.71875 193.820312 195.421875 193.660156 195.109375 193.53125 C 194.796875 193.402344 194.476562 193.304688 194.144531 193.238281 C 193.8125 193.171875 193.476562 193.140625 193.140625 193.140625 L 167.40625 193.140625 L 167.40625 177.699219 L 198.285156 177.699219 L 198.285156 167.40625 L 182.847656 167.40625 Z M 182.847656 157.113281 " fill-opacity="1" fill-rule="nonzero"/></svg>