<svg xmlns="http://www.w3.org/2000/svg" xmlns:xlink="http://www.w3.org/1999/xlink" width="500" zoomAndPan="magnify" viewBox="0 0 375 374.999991" height="500" preserveAspectRatio="xMidYMid meet" version="1.0"><defs><clipPath id="1f39de9ce6"><path d="M 110 37.5 L 265 37.5 L 265 193 L 110 193 Z M 110 37.5 " clip-rule="nonzero"/></clipPath><clipPath id="0fdfde8adc"><path d="M 63 204 L 311.875 204 L 311.875 346.5 L 63 346.5 Z M 63 204 " clip-rule="nonzero"/></clipPath></defs><g clip-path="url(#1f39de9ce6)"><path fill="#ffffff" d="M 187.476562 192.308594 C 188.746094 192.308594 190.011719 192.28125 191.277344 192.21875 C 192.542969 192.15625 193.804688 192.0625 195.066406 191.9375 C 196.328125 191.8125 197.585938 191.660156 198.839844 191.472656 C 200.09375 191.285156 201.339844 191.070312 202.585938 190.824219 C 203.828125 190.574219 205.0625 190.296875 206.292969 189.988281 C 207.523438 189.683594 208.742188 189.34375 209.957031 188.976562 C 211.167969 188.609375 212.371094 188.210938 213.566406 187.785156 C 214.757812 187.355469 215.941406 186.902344 217.109375 186.414062 C 218.28125 185.929688 219.441406 185.417969 220.585938 184.875 C 221.730469 184.332031 222.863281 183.765625 223.980469 183.167969 C 225.097656 182.570312 226.199219 181.945312 227.289062 181.292969 C 228.375 180.640625 229.445312 179.964844 230.5 179.261719 C 231.550781 178.554688 232.589844 177.828125 233.605469 177.070312 C 234.625 176.316406 235.621094 175.539062 236.601562 174.734375 C 237.582031 173.929688 238.542969 173.101562 239.480469 172.25 C 240.417969 171.398438 241.335938 170.527344 242.234375 169.628906 C 243.128906 168.734375 244.003906 167.816406 244.855469 166.878906 C 245.703125 165.9375 246.53125 164.980469 247.335938 164 C 248.140625 163.019531 248.917969 162.019531 249.675781 161.003906 C 250.429688 159.984375 251.160156 158.949219 251.863281 157.894531 C 252.566406 156.839844 253.246094 155.769531 253.898438 154.683594 C 254.546875 153.597656 255.171875 152.496094 255.769531 151.378906 C 256.367188 150.261719 256.9375 149.128906 257.480469 147.984375 C 258.019531 146.835938 258.535156 145.679688 259.019531 144.507812 C 259.503906 143.335938 259.960938 142.15625 260.386719 140.960938 C 260.8125 139.769531 261.210938 138.566406 261.578125 137.351562 C 261.945312 136.140625 262.285156 134.917969 262.59375 133.691406 C 262.902344 132.460938 263.179688 131.222656 263.425781 129.980469 C 263.671875 128.738281 263.890625 127.492188 264.074219 126.238281 C 264.261719 124.984375 264.417969 123.726562 264.539062 122.464844 C 264.664062 121.203125 264.757812 119.941406 264.820312 118.675781 C 264.882812 117.410156 264.914062 116.140625 264.914062 114.875 C 264.914062 113.605469 264.882812 112.339844 264.820312 111.074219 C 264.757812 109.808594 264.664062 108.546875 264.539062 107.285156 C 264.417969 106.023438 264.261719 104.765625 264.074219 103.511719 C 263.890625 102.257812 263.671875 101.011719 263.425781 99.769531 C 263.179688 98.523438 262.902344 97.289062 262.59375 96.058594 C 262.285156 94.832031 261.945312 93.609375 261.578125 92.394531 C 261.210938 91.183594 260.8125 89.980469 260.386719 88.789062 C 259.960938 87.59375 259.503906 86.414062 259.019531 85.242188 C 258.535156 84.070312 258.019531 82.914062 257.480469 81.765625 C 256.9375 80.621094 256.367188 79.488281 255.769531 78.371094 C 255.171875 77.253906 254.546875 76.152344 253.898438 75.066406 C 253.246094 73.976562 252.566406 72.90625 251.863281 71.855469 C 251.160156 70.800781 250.429688 69.765625 249.675781 68.746094 C 248.921875 67.730469 248.140625 66.730469 247.335938 65.75 C 246.53125 64.769531 245.707031 63.8125 244.855469 62.871094 C 244.003906 61.933594 243.128906 61.015625 242.234375 60.121094 C 241.335938 59.222656 240.421875 58.351562 239.480469 57.5 C 238.542969 56.648438 237.582031 55.820312 236.601562 55.015625 C 235.625 54.210938 234.625 53.433594 233.605469 52.679688 C 232.589844 51.921875 231.554688 51.195312 230.5 50.488281 C 229.445312 49.785156 228.375 49.109375 227.289062 48.457031 C 226.203125 47.804688 225.097656 47.179688 223.980469 46.582031 C 222.863281 45.984375 221.730469 45.414062 220.585938 44.875 C 219.441406 44.332031 218.28125 43.820312 217.113281 43.332031 C 215.941406 42.847656 214.757812 42.394531 213.566406 41.964844 C 212.371094 41.539062 211.167969 41.140625 209.957031 40.773438 C 208.746094 40.40625 207.523438 40.066406 206.292969 39.757812 C 205.066406 39.453125 203.828125 39.175781 202.585938 38.925781 C 201.34375 38.679688 200.09375 38.464844 198.839844 38.277344 C 197.585938 38.089844 196.328125 37.9375 195.070312 37.8125 C 193.808594 37.6875 192.542969 37.59375 191.277344 37.53125 C 190.011719 37.46875 188.746094 37.4375 187.480469 37.4375 C 186.210938 37.4375 184.945312 37.46875 183.679688 37.53125 C 182.414062 37.59375 181.148438 37.6875 179.890625 37.8125 C 178.628906 37.9375 177.371094 38.089844 176.117188 38.277344 C 174.863281 38.460938 173.613281 38.679688 172.371094 38.925781 C 171.128906 39.171875 169.894531 39.449219 168.664062 39.757812 C 167.433594 40.066406 166.214844 40.40625 165 40.773438 C 163.789062 41.140625 162.585938 41.539062 161.390625 41.964844 C 160.199219 42.390625 159.015625 42.847656 157.84375 43.332031 C 156.675781 43.816406 155.515625 44.332031 154.371094 44.871094 C 153.226562 45.414062 152.09375 45.984375 150.976562 46.582031 C 149.859375 47.179688 148.753906 47.804688 147.667969 48.453125 C 146.582031 49.105469 145.511719 49.785156 144.457031 50.488281 C 143.402344 51.191406 142.367188 51.921875 141.351562 52.675781 C 140.332031 53.429688 139.332031 54.210938 138.355469 55.015625 C 137.375 55.820312 136.414062 56.644531 135.476562 57.496094 C 134.535156 58.347656 133.621094 59.222656 132.722656 60.117188 C 131.828125 61.015625 130.953125 61.929688 130.101562 62.871094 C 129.25 63.808594 128.421875 64.769531 127.621094 65.75 C 126.816406 66.726562 126.035156 67.726562 125.28125 68.746094 C 124.527344 69.761719 123.796875 70.796875 123.09375 71.851562 C 122.390625 72.90625 121.710938 73.976562 121.058594 75.0625 C 120.40625 76.148438 119.785156 77.253906 119.1875 78.371094 C 118.589844 79.488281 118.019531 80.621094 117.476562 81.765625 C 116.933594 82.910156 116.421875 84.070312 115.9375 85.238281 C 115.453125 86.410156 114.996094 87.59375 114.570312 88.785156 C 114.140625 89.980469 113.746094 91.183594 113.375 92.394531 C 113.007812 93.605469 112.671875 94.828125 112.363281 96.058594 C 112.054688 97.285156 111.777344 98.523438 111.53125 99.765625 C 111.28125 101.007812 111.066406 102.257812 110.878906 103.511719 C 110.695312 104.765625 110.539062 106.019531 110.414062 107.28125 C 110.289062 108.542969 110.195312 109.808594 110.136719 111.074219 C 110.074219 112.339844 110.042969 113.605469 110.042969 114.871094 C 110.042969 116.140625 110.074219 117.40625 110.140625 118.671875 C 110.203125 119.9375 110.296875 121.199219 110.421875 122.460938 C 110.546875 123.722656 110.703125 124.976562 110.890625 126.230469 C 111.078125 127.484375 111.296875 128.730469 111.542969 129.972656 C 111.792969 131.214844 112.070312 132.453125 112.378906 133.679688 C 112.6875 134.910156 113.027344 136.128906 113.394531 137.34375 C 113.761719 138.554688 114.160156 139.757812 114.589844 140.949219 C 115.015625 142.140625 115.472656 143.324219 115.957031 144.492188 C 116.445312 145.664062 116.957031 146.820312 117.5 147.964844 C 118.042969 149.109375 118.613281 150.242188 119.210938 151.359375 C 119.808594 152.476562 120.433594 153.578125 121.085938 154.664062 C 121.734375 155.75 122.414062 156.820312 123.117188 157.875 C 123.820312 158.925781 124.550781 159.960938 125.304688 160.980469 C 126.0625 161.996094 126.839844 162.996094 127.644531 163.976562 C 128.449219 164.953125 129.277344 165.914062 130.125 166.851562 C 130.976562 167.789062 131.851562 168.707031 132.746094 169.605469 C 133.644531 170.5 134.558594 171.375 135.5 172.222656 C 136.4375 173.074219 137.394531 173.902344 138.375 174.707031 C 139.355469 175.511719 140.351562 176.289062 141.371094 177.042969 C 142.386719 177.800781 143.421875 178.527344 144.476562 179.234375 C 145.53125 179.9375 146.597656 180.617188 147.6875 181.265625 C 148.773438 181.917969 149.875 182.542969 150.992188 183.140625 C 152.109375 183.738281 153.238281 184.308594 154.382812 184.851562 C 155.527344 185.394531 156.6875 185.90625 157.855469 186.394531 C 159.027344 186.878906 160.207031 187.335938 161.402344 187.761719 C 162.59375 188.191406 163.796875 188.589844 165.007812 188.957031 C 166.21875 189.324219 167.441406 189.664062 168.667969 189.972656 C 169.898438 190.28125 171.132812 190.558594 172.375 190.808594 C 173.617188 191.054688 174.867188 191.273438 176.121094 191.460938 C 177.371094 191.648438 178.628906 191.804688 179.890625 191.929688 C 181.152344 192.054688 182.414062 192.148438 183.679688 192.214844 C 184.945312 192.277344 186.210938 192.308594 187.476562 192.308594 Z M 187.476562 50.832031 C 188.527344 50.832031 189.574219 50.855469 190.621094 50.90625 C 191.667969 50.960938 192.710938 51.035156 193.753906 51.140625 C 194.796875 51.242188 195.839844 51.371094 196.875 51.523438 C 197.910156 51.679688 198.945312 51.855469 199.972656 52.0625 C 201 52.265625 202.023438 52.496094 203.039062 52.75 C 204.054688 53.003906 205.066406 53.285156 206.070312 53.589844 C 207.074219 53.894531 208.066406 54.222656 209.054688 54.574219 C 210.042969 54.925781 211.019531 55.304688 211.988281 55.707031 C 212.957031 56.105469 213.914062 56.53125 214.859375 56.980469 C 215.808594 57.425781 216.746094 57.898438 217.667969 58.394531 C 218.59375 58.886719 219.503906 59.402344 220.402344 59.941406 C 221.304688 60.480469 222.1875 61.042969 223.058594 61.625 C 223.933594 62.207031 224.789062 62.808594 225.628906 63.433594 C 226.472656 64.058594 227.296875 64.703125 228.109375 65.367188 C 228.917969 66.03125 229.710938 66.71875 230.488281 67.421875 C 231.265625 68.125 232.023438 68.847656 232.765625 69.589844 C 233.507812 70.328125 234.230469 71.089844 234.933594 71.867188 C 235.636719 72.640625 236.320312 73.4375 236.988281 74.246094 C 237.652344 75.054688 238.296875 75.882812 238.921875 76.722656 C 239.546875 77.566406 240.148438 78.421875 240.730469 79.292969 C 241.3125 80.164062 241.875 81.050781 242.414062 81.949219 C 242.953125 82.847656 243.46875 83.761719 243.960938 84.683594 C 244.457031 85.609375 244.925781 86.546875 245.375 87.492188 C 245.824219 88.441406 246.25 89.398438 246.648438 90.367188 C 247.050781 91.335938 247.429688 92.3125 247.78125 93.300781 C 248.132812 94.285156 248.460938 95.28125 248.765625 96.285156 C 249.070312 97.289062 249.351562 98.296875 249.605469 99.316406 C 249.859375 100.332031 250.089844 101.355469 250.292969 102.382812 C 250.5 103.410156 250.679688 104.441406 250.832031 105.480469 C 250.984375 106.515625 251.113281 107.554688 251.214844 108.597656 C 251.320312 109.640625 251.394531 110.6875 251.449219 111.734375 C 251.5 112.78125 251.523438 113.828125 251.523438 114.875 C 251.523438 115.925781 251.5 116.972656 251.449219 118.019531 C 251.394531 119.066406 251.320312 120.109375 251.214844 121.152344 C 251.113281 122.199219 250.984375 123.238281 250.832031 124.273438 C 250.679688 125.3125 250.5 126.34375 250.292969 127.371094 C 250.089844 128.398438 249.859375 129.421875 249.605469 130.4375 C 249.351562 131.457031 249.070312 132.464844 248.765625 133.46875 C 248.460938 134.472656 248.132812 135.464844 247.78125 136.453125 C 247.429688 137.441406 247.050781 138.417969 246.648438 139.386719 C 246.25 140.355469 245.824219 141.3125 245.375 142.261719 C 244.925781 143.207031 244.457031 144.144531 243.960938 145.066406 C 243.46875 145.992188 242.953125 146.902344 242.414062 147.804688 C 241.875 148.703125 241.3125 149.585938 240.730469 150.457031 C 240.148438 151.332031 239.546875 152.1875 238.921875 153.027344 C 238.296875 153.871094 237.652344 154.695312 236.988281 155.507812 C 236.320312 156.316406 235.636719 157.109375 234.933594 157.886719 C 234.230469 158.664062 233.507812 159.421875 232.765625 160.164062 C 232.023438 160.90625 231.265625 161.628906 230.488281 162.332031 C 229.710938 163.035156 228.917969 163.71875 228.109375 164.386719 C 227.296875 165.050781 226.472656 165.695312 225.628906 166.320312 C 224.789062 166.945312 223.933594 167.546875 223.058594 168.128906 C 222.1875 168.710938 221.304688 169.273438 220.402344 169.8125 C 219.503906 170.351562 218.59375 170.867188 217.667969 171.359375 C 216.746094 171.855469 215.808594 172.324219 214.859375 172.773438 C 213.914062 173.222656 212.957031 173.644531 211.988281 174.046875 C 211.019531 174.449219 210.042969 174.824219 209.054688 175.179688 C 208.066406 175.53125 207.074219 175.859375 206.070312 176.164062 C 205.066406 176.46875 204.054688 176.75 203.039062 177.003906 C 202.023438 177.257812 201 177.488281 199.972656 177.691406 C 198.945312 177.894531 197.910156 178.074219 196.875 178.230469 C 195.839844 178.382812 194.796875 178.511719 193.753906 178.613281 C 192.710938 178.714844 191.667969 178.792969 190.621094 178.84375 C 189.574219 178.894531 188.527344 178.921875 187.476562 178.921875 C 186.429688 178.921875 185.382812 178.894531 184.335938 178.84375 C 183.289062 178.792969 182.242188 178.714844 181.199219 178.613281 C 180.15625 178.511719 179.117188 178.382812 178.078125 178.230469 C 177.042969 178.074219 176.011719 177.894531 174.984375 177.691406 C 173.953125 177.488281 172.933594 177.257812 171.914062 177.003906 C 170.898438 176.746094 169.890625 176.46875 168.886719 176.164062 C 167.882812 175.859375 166.886719 175.53125 165.902344 175.175781 C 164.914062 174.824219 163.9375 174.445312 162.96875 174.046875 C 162 173.644531 161.042969 173.21875 160.09375 172.773438 C 159.148438 172.324219 158.210938 171.851562 157.285156 171.359375 C 156.363281 170.863281 155.449219 170.347656 154.550781 169.808594 C 153.652344 169.269531 152.765625 168.710938 151.894531 168.128906 C 151.023438 167.542969 150.167969 166.941406 149.324219 166.316406 C 148.484375 165.691406 147.65625 165.046875 146.847656 164.382812 C 146.035156 163.71875 145.242188 163.03125 144.46875 162.328125 C 143.691406 161.625 142.929688 160.902344 142.191406 160.160156 C 141.449219 159.421875 140.726562 158.660156 140.023438 157.882812 C 139.320312 157.109375 138.632812 156.316406 137.96875 155.503906 C 137.304688 154.695312 136.660156 153.867188 136.035156 153.027344 C 135.410156 152.183594 134.808594 151.328125 134.226562 150.457031 C 133.644531 149.585938 133.082031 148.699219 132.542969 147.800781 C 132.003906 146.902344 131.488281 145.988281 130.996094 145.066406 C 130.5 144.140625 130.03125 143.203125 129.582031 142.257812 C 129.132812 141.308594 128.707031 140.351562 128.308594 139.382812 C 127.90625 138.414062 127.53125 137.4375 127.175781 136.449219 C 126.824219 135.460938 126.496094 134.46875 126.191406 133.464844 C 125.886719 132.460938 125.605469 131.453125 125.351562 130.433594 C 125.097656 129.417969 124.867188 128.394531 124.664062 127.367188 C 124.460938 126.339844 124.28125 125.308594 124.125 124.269531 C 123.972656 123.234375 123.84375 122.195312 123.742188 121.148438 C 123.640625 120.105469 123.5625 119.0625 123.511719 118.015625 C 123.460938 116.96875 123.433594 115.921875 123.433594 114.871094 C 123.433594 113.824219 123.460938 112.777344 123.515625 111.730469 C 123.566406 110.683594 123.644531 109.640625 123.75 108.597656 C 123.851562 107.554688 123.980469 106.515625 124.136719 105.480469 C 124.292969 104.441406 124.472656 103.410156 124.675781 102.382812 C 124.882812 101.355469 125.113281 100.335938 125.367188 99.316406 C 125.621094 98.300781 125.902344 97.292969 126.207031 96.289062 C 126.511719 95.289062 126.84375 94.292969 127.195312 93.308594 C 127.550781 92.320312 127.925781 91.34375 128.328125 90.375 C 128.730469 89.40625 129.15625 88.449219 129.605469 87.503906 C 130.050781 86.558594 130.523438 85.621094 131.019531 84.699219 C 131.511719 83.773438 132.027344 82.863281 132.566406 81.964844 C 133.105469 81.066406 133.667969 80.179688 134.25 79.308594 C 134.832031 78.4375 135.433594 77.582031 136.058594 76.742188 C 136.683594 75.898438 137.328125 75.074219 137.992188 74.265625 C 138.660156 73.453125 139.34375 72.660156 140.046875 71.886719 C 140.75 71.109375 141.472656 70.351562 142.214844 69.609375 C 142.953125 68.867188 143.714844 68.144531 144.488281 67.441406 C 145.265625 66.738281 146.058594 66.054688 146.867188 65.390625 C 147.679688 64.726562 148.503906 64.082031 149.34375 63.457031 C 150.1875 62.832031 151.042969 62.226562 151.914062 61.644531 C 152.785156 61.0625 153.671875 60.503906 154.570312 59.964844 C 155.46875 59.425781 156.378906 58.910156 157.300781 58.414062 C 158.226562 57.917969 159.160156 57.449219 160.109375 57 C 161.054688 56.550781 162.011719 56.125 162.980469 55.726562 C 163.949219 55.324219 164.925781 54.945312 165.910156 54.59375 C 166.898438 54.238281 167.890625 53.910156 168.894531 53.605469 C 169.898438 53.300781 170.90625 53.019531 171.921875 52.765625 C 172.9375 52.507812 173.960938 52.277344 174.988281 52.074219 C 176.015625 51.867188 177.046875 51.6875 178.085938 51.535156 C 179.121094 51.378906 180.160156 51.25 181.203125 51.144531 C 182.246094 51.042969 183.289062 50.964844 184.335938 50.910156 C 185.382812 50.859375 186.429688 50.832031 187.476562 50.832031 Z M 187.476562 50.832031 " fill-opacity="1" fill-rule="nonzero"/></g><g clip-path="url(#0fdfde8adc)"><path fill="#ffffff" d="M 187.476562 204.652344 C 185.445312 204.652344 183.417969 204.707031 181.386719 204.808594 C 179.359375 204.910156 177.332031 205.058594 175.3125 205.261719 C 173.292969 205.460938 171.277344 205.710938 169.265625 206.011719 C 167.257812 206.3125 165.257812 206.660156 163.265625 207.058594 C 161.273438 207.457031 159.292969 207.902344 157.324219 208.398438 C 155.351562 208.894531 153.398438 209.4375 151.453125 210.027344 C 149.511719 210.617188 147.582031 211.257812 145.671875 211.941406 C 143.757812 212.628906 141.863281 213.359375 139.988281 214.136719 C 138.113281 214.917969 136.253906 215.742188 134.417969 216.609375 C 132.582031 217.480469 130.769531 218.394531 128.980469 219.351562 C 127.1875 220.308594 125.421875 221.3125 123.679688 222.355469 C 121.9375 223.402344 120.222656 224.488281 118.535156 225.617188 C 116.847656 226.746094 115.1875 227.914062 113.554688 229.125 C 111.921875 230.335938 110.324219 231.585938 108.753906 232.875 C 107.183594 234.164062 105.644531 235.488281 104.140625 236.855469 C 102.636719 238.21875 101.164062 239.617188 99.726562 241.054688 C 98.292969 242.492188 96.890625 243.960938 95.527344 245.464844 C 94.164062 246.972656 92.835938 248.507812 91.546875 250.078125 C 90.257812 251.648438 89.007812 253.25 87.800781 254.878906 C 86.589844 256.511719 85.417969 258.171875 84.289062 259.859375 C 83.160156 261.550781 82.074219 263.265625 81.03125 265.007812 C 79.984375 266.746094 78.984375 268.515625 78.023438 270.304688 C 77.066406 272.097656 76.152344 273.910156 75.28125 275.746094 C 74.414062 277.582031 73.589844 279.4375 72.8125 281.3125 C 72.03125 283.191406 71.300781 285.082031 70.617188 286.996094 C 69.929688 288.90625 69.292969 290.835938 68.699219 292.777344 C 68.109375 294.722656 67.566406 296.679688 67.070312 298.648438 C 66.578125 300.617188 66.128906 302.601562 65.730469 304.589844 C 65.335938 306.582031 64.984375 308.585938 64.683594 310.59375 C 64.386719 312.601562 64.136719 314.617188 63.933594 316.636719 C 63.734375 318.660156 63.582031 320.683594 63.480469 322.714844 C 63.378906 324.742188 63.324219 326.773438 63.324219 328.804688 C 63.324219 329.371094 63.351562 329.941406 63.40625 330.507812 C 63.460938 331.074219 63.546875 331.632812 63.65625 332.191406 C 63.765625 332.75 63.90625 333.300781 64.070312 333.847656 C 64.234375 334.390625 64.425781 334.925781 64.644531 335.453125 C 64.859375 335.976562 65.105469 336.492188 65.371094 336.992188 C 65.640625 337.496094 65.933594 337.984375 66.25 338.457031 C 66.566406 338.929688 66.902344 339.386719 67.265625 339.824219 C 67.625 340.265625 68.007812 340.6875 68.410156 341.089844 C 68.8125 341.492188 69.234375 341.875 69.671875 342.234375 C 70.113281 342.59375 70.570312 342.933594 71.042969 343.25 C 71.515625 343.566406 72.003906 343.859375 72.503906 344.125 C 73.007812 344.394531 73.519531 344.636719 74.046875 344.855469 C 74.574219 345.070312 75.109375 345.261719 75.652344 345.429688 C 76.195312 345.59375 76.75 345.730469 77.304688 345.84375 C 77.863281 345.953125 78.425781 346.035156 78.992188 346.089844 C 79.558594 346.148438 80.128906 346.175781 80.695312 346.175781 L 294.246094 346.175781 C 295.59375 346.171875 296.921875 346.011719 298.230469 345.703125 C 299.542969 345.390625 300.800781 344.933594 302.003906 344.332031 C 303.207031 343.730469 304.328125 343 305.363281 342.140625 C 306.398438 341.28125 307.324219 340.3125 308.136719 339.238281 C 309.269531 337.738281 310.136719 336.089844 310.734375 334.304688 C 311.332031 332.519531 311.625 330.683594 311.621094 328.800781 C 311.621094 326.769531 311.566406 324.738281 311.464844 322.710938 C 311.363281 320.679688 311.210938 318.65625 311.011719 316.636719 C 310.808594 314.613281 310.558594 312.597656 310.257812 310.589844 C 309.960938 308.582031 309.609375 306.582031 309.210938 304.589844 C 308.816406 302.597656 308.367188 300.617188 307.875 298.648438 C 307.378906 296.675781 306.835938 294.71875 306.246094 292.777344 C 305.652344 290.835938 305.015625 288.90625 304.328125 286.996094 C 303.644531 285.082031 302.914062 283.1875 302.132812 281.3125 C 301.355469 279.4375 300.53125 277.582031 299.664062 275.746094 C 298.792969 273.910156 297.878906 272.097656 296.921875 270.304688 C 295.964844 268.515625 294.960938 266.75 293.917969 265.007812 C 292.871094 263.265625 291.785156 261.550781 290.65625 259.859375 C 289.527344 258.171875 288.359375 256.511719 287.148438 254.882812 C 285.9375 253.25 284.6875 251.648438 283.398438 250.078125 C 282.109375 248.511719 280.785156 246.972656 279.417969 245.46875 C 278.054688 243.964844 276.65625 242.492188 275.21875 241.054688 C 273.78125 239.621094 272.3125 238.21875 270.808594 236.855469 C 269.304688 235.492188 267.765625 234.164062 266.195312 232.875 C 264.625 231.585938 263.027344 230.339844 261.394531 229.128906 C 259.761719 227.917969 258.101562 226.746094 256.414062 225.617188 C 254.726562 224.488281 253.011719 223.402344 251.269531 222.359375 C 249.527344 221.3125 247.761719 220.3125 245.972656 219.351562 C 244.179688 218.394531 242.367188 217.480469 240.53125 216.613281 C 238.695312 215.742188 236.839844 214.917969 234.964844 214.140625 C 233.085938 213.363281 231.195312 212.628906 229.28125 211.945312 C 227.371094 211.257812 225.441406 210.621094 223.5 210.03125 C 221.554688 209.4375 219.597656 208.894531 217.628906 208.398438 C 215.660156 207.90625 213.679688 207.457031 211.6875 207.0625 C 209.695312 206.664062 207.695312 206.3125 205.6875 206.015625 C 203.675781 205.714844 201.664062 205.464844 199.640625 205.261719 C 197.621094 205.0625 195.59375 204.910156 193.566406 204.808594 C 191.539062 204.707031 189.507812 204.652344 187.476562 204.652344 Z M 297.445312 331.199219 C 297.066406 331.699219 296.597656 332.089844 296.035156 332.367188 C 295.476562 332.648438 294.882812 332.785156 294.253906 332.78125 L 80.703125 332.78125 C 80 332.785156 79.34375 332.613281 78.734375 332.265625 C 78.121094 331.921875 77.640625 331.445312 77.28125 330.839844 C 76.902344 330.210938 76.714844 329.53125 76.722656 328.800781 C 76.730469 326.992188 76.78125 325.183594 76.878906 323.378906 C 76.972656 321.574219 77.113281 319.773438 77.296875 317.972656 C 77.480469 316.175781 77.710938 314.382812 77.984375 312.597656 C 78.253906 310.808594 78.570312 309.027344 78.929688 307.257812 C 79.289062 305.484375 79.691406 303.722656 80.136719 301.972656 C 80.582031 300.21875 81.070312 298.480469 81.601562 296.75 C 82.132812 295.023438 82.703125 293.308594 83.320312 291.609375 C 83.933594 289.910156 84.589844 288.222656 85.285156 286.554688 C 85.984375 284.886719 86.722656 283.238281 87.5 281.605469 C 88.277344 279.976562 89.09375 278.363281 89.953125 276.769531 C 90.808594 275.179688 91.703125 273.609375 92.636719 272.0625 C 93.570312 270.511719 94.542969 268.988281 95.550781 267.488281 C 96.558594 265.988281 97.601562 264.511719 98.683594 263.0625 C 99.765625 261.613281 100.878906 260.191406 102.03125 258.796875 C 103.179688 257.402344 104.363281 256.039062 105.582031 254.699219 C 106.796875 253.363281 108.046875 252.058594 109.328125 250.78125 C 110.609375 249.507812 111.921875 248.261719 113.261719 247.050781 C 114.605469 245.839844 115.976562 244.660156 117.375 243.519531 C 118.773438 242.375 120.199219 241.265625 121.65625 240.191406 C 123.109375 239.117188 124.585938 238.078125 126.09375 237.074219 C 127.597656 236.074219 129.125 235.109375 130.675781 234.179688 C 132.230469 233.253906 133.804688 232.367188 135.398438 231.515625 C 136.996094 230.664062 138.609375 229.855469 140.246094 229.082031 C 141.878906 228.3125 143.53125 227.582031 145.203125 226.890625 C 146.875 226.203125 148.5625 225.554688 150.265625 224.945312 C 151.96875 224.339844 153.683594 223.773438 155.414062 223.25 C 157.144531 222.726562 158.886719 222.246094 160.640625 221.808594 C 162.394531 221.371094 164.15625 220.972656 165.929688 220.621094 C 167.703125 220.269531 169.484375 219.960938 171.273438 219.699219 C 173.0625 219.433594 174.855469 219.214844 176.65625 219.035156 C 178.453125 218.859375 180.257812 218.726562 182.0625 218.636719 C 183.867188 218.550781 185.675781 218.507812 187.480469 218.507812 C 189.289062 218.507812 191.097656 218.550781 192.902344 218.636719 C 194.707031 218.726562 196.511719 218.859375 198.308594 219.035156 C 200.109375 219.214844 201.902344 219.433594 203.691406 219.699219 C 205.480469 219.960938 207.261719 220.269531 209.035156 220.621094 C 210.808594 220.972656 212.570312 221.371094 214.324219 221.808594 C 216.078125 222.246094 217.820312 222.726562 219.550781 223.25 C 221.28125 223.773438 222.996094 224.339844 224.699219 224.945312 C 226.402344 225.554688 228.089844 226.203125 229.761719 226.890625 C 231.433594 227.582031 233.085938 228.3125 234.71875 229.082031 C 236.355469 229.855469 237.96875 230.664062 239.566406 231.515625 C 241.160156 232.367188 242.734375 233.253906 244.285156 234.179688 C 245.839844 235.109375 247.367188 236.074219 248.871094 237.074219 C 250.375 238.078125 251.855469 239.117188 253.308594 240.191406 C 254.765625 241.265625 256.191406 242.375 257.589844 243.519531 C 258.988281 244.660156 260.359375 245.839844 261.703125 247.050781 C 263.042969 248.261719 264.355469 249.507812 265.636719 250.78125 C 266.917969 252.058594 268.167969 253.363281 269.382812 254.699219 C 270.601562 256.039062 271.785156 257.402344 272.933594 258.796875 C 274.085938 260.191406 275.199219 261.613281 276.28125 263.0625 C 277.363281 264.511719 278.40625 265.988281 279.414062 267.488281 C 280.421875 268.988281 281.394531 270.511719 282.328125 272.0625 C 283.261719 273.609375 284.15625 275.179688 285.011719 276.769531 C 285.871094 278.363281 286.6875 279.976562 287.464844 281.605469 C 288.242188 283.238281 288.980469 284.886719 289.679688 286.558594 C 290.375 288.226562 291.03125 289.910156 291.644531 291.609375 C 292.261719 293.308594 292.832031 295.023438 293.363281 296.75 C 293.894531 298.480469 294.382812 300.21875 294.828125 301.972656 C 295.273438 303.722656 295.675781 305.484375 296.035156 307.257812 C 296.394531 309.027344 296.710938 310.808594 296.980469 312.597656 C 297.253906 314.382812 297.484375 316.175781 297.667969 317.972656 C 297.851562 319.773438 297.992188 321.574219 298.085938 323.378906 C 298.183594 325.183594 298.234375 326.992188 298.242188 328.800781 C 298.242188 329.6875 297.972656 330.484375 297.4375 331.191406 Z M 297.445312 331.199219 " fill-opacity="1" fill-rule="nonzero"/></g></svg>