<svg xmlns="http://www.w3.org/2000/svg" xmlns:xlink="http://www.w3.org/1999/xlink" width="500" zoomAndPan="magnify" viewBox="0 0 375 374.999991" height="500" preserveAspectRatio="xMidYMid meet" version="1.0"><defs><clipPath id="26572d1390"><path d="M 62.128906 62.128906 L 312.628906 62.128906 L 312.628906 312.628906 L 62.128906 312.628906 Z M 62.128906 62.128906 " clip-rule="nonzero"/></clipPath></defs><path fill="#ffffff" d="M 133.980469 213.628906 L 185.714844 213.628906 C 186.566406 213.628906 187.253906 214.316406 187.253906 215.167969 L 187.253906 218.589844 C 187.253906 219.4375 186.566406 220.128906 185.714844 220.128906 L 133.980469 220.128906 C 133.128906 220.128906 132.441406 219.4375 132.441406 218.589844 L 132.441406 215.167969 C 132.441406 214.316406 133.128906 213.628906 133.980469 213.628906 Z M 133.980469 213.628906 " fill-opacity="1" fill-rule="nonzero"/><path fill="#ffffff" d="M 133.980469 202.03125 L 171.089844 202.03125 C 171.941406 202.03125 172.628906 202.71875 172.628906 203.570312 L 172.628906 206.992188 C 172.628906 207.839844 171.941406 208.53125 171.089844 208.53125 L 133.980469 208.53125 C 133.128906 208.53125 132.441406 207.839844 132.441406 206.992188 L 132.441406 203.570312 C 132.441406 202.71875 133.128906 202.03125 133.980469 202.03125 Z M 133.980469 202.03125 " fill-opacity="1" fill-rule="nonzero"/><path fill="#ffffff" d="M 228.261719 183.957031 L 237.953125 183.957031 C 240.074219 183.957031 241.796875 185.679688 241.796875 187.804688 L 241.796875 196.34375 C 241.796875 198.46875 240.074219 200.1875 237.957031 200.1875 L 228.269531 200.1875 C 226.144531 200.1875 224.425781 198.460938 224.425781 196.34375 L 224.425781 187.804688 C 224.425781 185.679688 226.148438 183.960938 228.269531 183.960938 Z M 228.261719 183.957031 " fill-opacity="1" fill-rule="nonzero"/><g clip-path="url(#26572d1390)"><path fill="#ffffff" d="M 187.503906 62.128906 C 118.261719 62.128906 62.128906 118.261719 62.128906 187.503906 C 62.128906 256.75 118.261719 312.882812 187.503906 312.882812 C 256.75 312.882812 312.882812 256.75 312.882812 187.503906 C 312.882812 118.261719 256.75 62.128906 187.503906 62.128906 Z M 261.855469 227.886719 C 261.855469 234.058594 256.855469 239.058594 250.683594 239.058594 L 124.328125 239.058594 C 118.15625 239.058594 113.152344 234.058594 113.152344 227.886719 L 113.152344 172.121094 L 261.859375 172.121094 L 261.859375 227.886719 Z M 261.855469 154.519531 L 113.148438 154.519531 L 113.148438 147.121094 C 113.148438 140.949219 118.152344 135.949219 124.320312 135.949219 L 250.679688 135.949219 C 256.847656 135.949219 261.851562 140.949219 261.851562 147.121094 L 261.851562 154.519531 Z M 261.855469 154.519531 " fill-opacity="1" fill-rule="nonzero"/></g></svg>