<svg xmlns="http://www.w3.org/2000/svg" xmlns:xlink="http://www.w3.org/1999/xlink" width="500" zoomAndPan="magnify" viewBox="0 0 375 374.999991" height="500" preserveAspectRatio="xMidYMid meet" version="1.0"><defs><clipPath id="a1f58c60c9"><path d="M 54 38 L 304 38 L 304 337.5 L 54 337.5 Z M 54 38 " clip-rule="nonzero"/></clipPath></defs><g clip-path="url(#a1f58c60c9)"><path fill="#ffffff" d="M 287.804688 76.757812 L 236.09375 40.5625 C 232.285156 37.898438 227.3125 37.570312 223.183594 39.722656 C 219.058594 41.867188 216.472656 46.132812 216.472656 50.78125 L 216.472656 81.953125 L 166.589844 81.953125 C 145.960938 81.953125 129.179688 98.734375 129.179688 119.363281 L 129.179688 175.476562 L 96.933594 175.476562 L 113.054688 159.355469 C 117.925781 154.488281 117.925781 146.589844 113.054688 141.722656 C 108.183594 136.847656 100.292969 136.847656 95.421875 141.722656 L 58.011719 179.132812 C 53.140625 184 53.140625 191.898438 58.011719 196.765625 L 95.421875 234.175781 C 97.859375 236.609375 101.050781 237.828125 104.238281 237.828125 C 107.433594 237.828125 110.621094 236.609375 113.054688 234.175781 C 117.925781 229.308594 117.925781 221.410156 113.054688 216.542969 L 96.933594 200.417969 L 129.179688 200.417969 L 129.179688 256.53125 C 129.179688 277.160156 145.960938 293.941406 166.589844 293.941406 L 216.472656 293.941406 L 216.472656 325.113281 C 216.472656 329.761719 219.058594 334.03125 223.183594 336.175781 C 224.996094 337.121094 226.972656 337.585938 228.941406 337.585938 C 231.457031 337.585938 233.960938 336.828125 236.085938 335.332031 L 287.800781 299.136719 C 297.792969 292.140625 303.757812 280.683594 303.757812 268.488281 L 303.757812 107.40625 C 303.765625 95.210938 297.796875 83.753906 287.804688 76.757812 Z M 166.59375 269 C 159.722656 269 154.125 263.410156 154.125 256.53125 L 154.125 200.417969 L 197.769531 200.417969 C 204.65625 200.417969 210.238281 194.835938 210.238281 187.949219 C 210.238281 181.0625 204.65625 175.476562 197.769531 175.476562 L 154.125 175.476562 L 154.125 119.363281 C 154.125 112.488281 159.722656 106.894531 166.59375 106.894531 L 216.476562 106.894531 L 216.476562 269.007812 L 166.59375 269.007812 Z M 278.824219 268.488281 C 278.824219 272.550781 276.832031 276.371094 273.511719 278.699219 L 241.414062 301.164062 L 241.414062 74.726562 L 273.511719 97.191406 C 276.832031 99.519531 278.824219 103.34375 278.824219 107.40625 Z M 278.824219 268.488281 " fill-opacity="1" fill-rule="nonzero"/></g></svg>