<svg xmlns="http://www.w3.org/2000/svg" xmlns:xlink="http://www.w3.org/1999/xlink" width="500" zoomAndPan="magnify" viewBox="0 0 375 374.999991" height="500" preserveAspectRatio="xMidYMid meet" version="1.0"><defs><clipPath id="a617f9277f"><path d="M 42.5625 37.5 L 337.3125 37.5 L 337.3125 342.75 L 42.5625 342.75 Z M 42.5625 37.5 " clip-rule="nonzero"/></clipPath></defs><g clip-path="url(#a617f9277f)"><path fill="#000000" d="M 172.003906 37.5 C 232.550781 37.5 283.375 79.117188 297.488281 135.3125 C 296.949219 135.265625 296.410156 135.238281 295.859375 135.238281 L 267.980469 135.238281 C 258.375 135.238281 250.566406 143.058594 250.566406 152.660156 L 250.566406 247.011719 L 229.792969 247.011719 C 224.230469 247.011719 219.199219 250.039062 216.585938 254.9375 C 213.972656 259.820312 214.265625 265.71875 217.335938 270.324219 L 226.683594 284.335938 C 210.078125 292.089844 191.546875 296.441406 172.003906 296.441406 C 100.554688 296.441406 42.625 238.472656 42.625 166.964844 C 42.625 95.46875 100.554688 37.5 172.003906 37.5 Z M 262.496094 152.660156 L 262.496094 255.914062 C 262.496094 257.582031 261.121094 258.957031 259.453125 258.957031 L 229.792969 258.957031 C 228.636719 258.957031 227.652344 259.546875 227.101562 260.570312 C 226.5625 261.582031 226.617188 262.730469 227.261719 263.699219 L 279.386719 341.792969 C 279.972656 342.664062 280.871094 343.148438 281.914062 343.148438 C 282.964844 343.148438 283.867188 342.664062 284.445312 341.792969 L 336.578125 263.699219 C 337.222656 262.730469 337.269531 261.582031 336.726562 260.570312 C 336.1875 259.546875 335.195312 258.957031 334.046875 258.957031 L 304.386719 258.957031 C 302.710938 258.957031 301.34375 257.582031 301.34375 255.914062 L 301.34375 152.660156 C 301.34375 149.644531 298.882812 147.179688 295.859375 147.179688 L 267.980469 147.179688 C 264.957031 147.179688 262.496094 149.644531 262.496094 152.660156 Z M 121.863281 134.355469 C 121.863281 111.984375 136.546875 95.03125 157.425781 88.863281 L 157.328125 71.855469 C 157.328125 68.289062 160.230469 65.398438 163.789062 65.398438 L 180.238281 65.398438 C 183.789062 65.398438 186.6875 68.300781 186.6875 71.855469 L 186.574219 88.121094 C 190.554688 89.128906 194.296875 90.492188 197.886719 92.492188 C 210.988281 99.78125 218.699219 112.464844 221.199219 127.066406 C 221.53125 128.988281 221.027344 130.839844 219.769531 132.328125 C 218.507812 133.804688 216.785156 134.609375 214.84375 134.609375 L 199.75 134.609375 C 196.882812 134.609375 194.410156 132.773438 193.574219 130.023438 C 187.816406 110.941406 152.1875 108.921875 152.1875 132.382812 C 152.1875 145.179688 168.746094 149.949219 178.484375 153.503906 C 201.65625 161.96875 222.148438 170.917969 222.148438 199.578125 C 222.148438 221.949219 207.464844 238.898438 186.582031 245.078125 L 186.6875 262.078125 C 186.6875 265.632812 183.78125 268.53125 180.238281 268.53125 L 163.789062 268.53125 C 160.230469 268.53125 157.328125 265.640625 157.328125 262.078125 L 157.433594 245.820312 C 153.457031 244.8125 149.714844 243.449219 146.132812 241.449219 C 133.019531 234.148438 125.320312 221.464844 122.808594 206.867188 C 122.476562 204.953125 122.988281 203.101562 124.238281 201.613281 C 125.488281 200.125 127.222656 199.328125 129.164062 199.328125 L 144.257812 199.328125 C 147.128906 199.328125 149.601562 201.160156 150.433594 203.910156 C 156.203125 223 191.824219 225.011719 191.824219 201.546875 C 191.824219 188 172.800781 183.109375 162.617188 179.355469 C 140.410156 171.195312 121.863281 161.515625 121.863281 134.355469 Z M 121.863281 134.355469 " fill-opacity="1" fill-rule="evenodd"/></g></svg>