<svg xmlns="http://www.w3.org/2000/svg" xmlns:xlink="http://www.w3.org/1999/xlink" width="500" zoomAndPan="magnify" viewBox="0 0 375 374.999991" height="500" preserveAspectRatio="xMidYMid meet" version="1.0"><defs><clipPath id="bb3a3234a6"><path d="M 62.128906 62.128906 L 312.628906 62.128906 L 312.628906 312.628906 L 62.128906 312.628906 Z M 62.128906 62.128906 " clip-rule="nonzero"/></clipPath></defs><path fill="#000000" d="M 133.914062 213.484375 L 185.601562 213.484375 C 186.449219 213.484375 187.136719 214.175781 187.136719 215.023438 L 187.136719 218.441406 C 187.136719 219.292969 186.449219 219.980469 185.601562 219.980469 L 133.914062 219.980469 C 133.0625 219.980469 132.375 219.292969 132.375 218.441406 L 132.375 215.023438 C 132.375 214.175781 133.0625 213.484375 133.914062 213.484375 Z M 133.914062 213.484375 " fill-opacity="1" fill-rule="nonzero"/><path fill="#000000" d="M 133.914062 201.898438 L 170.988281 201.898438 C 171.835938 201.898438 172.527344 202.589844 172.527344 203.4375 L 172.527344 206.855469 C 172.527344 207.703125 171.835938 208.394531 170.988281 208.394531 L 133.914062 208.394531 C 133.0625 208.394531 132.375 207.703125 132.375 206.855469 L 132.375 203.4375 C 132.375 202.589844 133.0625 201.898438 133.914062 201.898438 Z M 133.914062 201.898438 " fill-opacity="1" fill-rule="nonzero"/><path fill="#000000" d="M 228.105469 183.84375 L 237.785156 183.84375 C 239.910156 183.84375 241.628906 185.566406 241.628906 187.6875 L 241.628906 196.21875 C 241.628906 198.339844 239.910156 200.058594 237.792969 200.058594 L 228.113281 200.058594 C 225.992188 200.058594 224.273438 198.335938 224.273438 196.21875 L 224.273438 187.6875 C 224.273438 185.566406 225.996094 183.847656 228.113281 183.847656 Z M 228.105469 183.84375 " fill-opacity="1" fill-rule="nonzero"/><g clip-path="url(#bb3a3234a6)"><path fill="#000000" d="M 187.386719 62.128906 C 118.207031 62.128906 62.128906 118.207031 62.128906 187.386719 C 62.128906 256.566406 118.207031 312.648438 187.386719 312.648438 C 256.566406 312.648438 312.648438 256.566406 312.648438 187.386719 C 312.648438 118.207031 256.566406 62.128906 187.386719 62.128906 Z M 261.667969 227.734375 C 261.667969 233.898438 256.671875 238.894531 250.507812 238.894531 L 124.269531 238.894531 C 118.101562 238.894531 113.105469 233.898438 113.105469 227.734375 L 113.105469 172.015625 L 261.671875 172.015625 L 261.671875 227.734375 Z M 261.667969 154.433594 L 113.101562 154.433594 L 113.101562 147.042969 C 113.101562 140.875 118.097656 135.878906 124.261719 135.878906 L 250.5 135.878906 C 256.667969 135.878906 261.664062 140.875 261.664062 147.042969 L 261.664062 154.433594 Z M 261.667969 154.433594 " fill-opacity="1" fill-rule="nonzero"/></g></svg>