<svg xmlns="http://www.w3.org/2000/svg" xmlns:xlink="http://www.w3.org/1999/xlink" width="500" zoomAndPan="magnify" viewBox="0 0 375 374.999991" height="500" preserveAspectRatio="xMidYMid meet" version="1.0"><defs><clipPath id="d9d9b4ae3e"><path d="M 68.371094 68.371094 L 306.871094 68.371094 L 306.871094 306.871094 L 68.371094 306.871094 Z M 68.371094 68.371094 " clip-rule="nonzero"/></clipPath></defs><g clip-path="url(#d9d9b4ae3e)"><path fill="#ffffff" d="M 187.496094 68.371094 C 185.546875 68.371094 183.597656 68.417969 181.652344 68.511719 C 179.703125 68.609375 177.761719 68.753906 175.820312 68.941406 C 173.878906 69.132812 171.945312 69.371094 170.015625 69.660156 C 168.089844 69.945312 166.167969 70.277344 164.257812 70.660156 C 162.34375 71.039062 160.441406 71.464844 158.550781 71.941406 C 156.660156 72.414062 154.78125 72.933594 152.914062 73.5 C 151.050781 74.066406 149.199219 74.675781 147.363281 75.332031 C 145.527344 75.988281 143.710938 76.691406 141.910156 77.4375 C 140.105469 78.183594 138.324219 78.972656 136.5625 79.808594 C 134.800781 80.640625 133.058594 81.515625 131.339844 82.4375 C 129.621094 83.355469 127.925781 84.316406 126.253906 85.316406 C 124.582031 86.320312 122.933594 87.363281 121.3125 88.445312 C 119.691406 89.527344 118.097656 90.652344 116.53125 91.8125 C 114.964844 92.972656 113.429688 94.171875 111.921875 95.410156 C 110.417969 96.648438 108.941406 97.921875 107.496094 99.230469 C 106.050781 100.539062 104.640625 101.882812 103.261719 103.261719 C 101.882812 104.640625 100.539062 106.050781 99.230469 107.496094 C 97.921875 108.941406 96.648438 110.417969 95.410156 111.921875 C 94.171875 113.429688 92.972656 114.964844 91.8125 116.53125 C 90.652344 118.097656 89.527344 119.691406 88.445312 121.3125 C 87.363281 122.933594 86.320312 124.582031 85.316406 126.253906 C 84.316406 127.925781 83.355469 129.621094 82.4375 131.339844 C 81.515625 133.058594 80.640625 134.800781 79.808594 136.5625 C 78.972656 138.324219 78.183594 140.105469 77.4375 141.910156 C 76.691406 143.710938 75.988281 145.527344 75.332031 147.363281 C 74.675781 149.199219 74.066406 151.050781 73.5 152.914062 C 72.933594 154.78125 72.414062 156.660156 71.941406 158.550781 C 71.464844 160.441406 71.039062 162.34375 70.660156 164.257812 C 70.277344 166.167969 69.945312 168.089844 69.660156 170.015625 C 69.371094 171.945312 69.132812 173.878906 68.941406 175.820312 C 68.753906 177.761719 68.609375 179.703125 68.511719 181.652344 C 68.417969 183.597656 68.371094 185.546875 68.371094 187.496094 C 68.371094 189.445312 68.417969 191.394531 68.511719 193.339844 C 68.609375 195.289062 68.753906 197.234375 68.941406 199.171875 C 69.132812 201.113281 69.371094 203.046875 69.660156 204.976562 C 69.945312 206.90625 70.277344 208.824219 70.660156 210.738281 C 71.039062 212.648438 71.464844 214.550781 71.941406 216.441406 C 72.414062 218.332031 72.933594 220.210938 73.5 222.078125 C 74.066406 223.941406 74.675781 225.792969 75.332031 227.628906 C 75.988281 229.464844 76.691406 231.28125 77.4375 233.085938 C 78.183594 234.886719 78.972656 236.667969 79.808594 238.429688 C 80.640625 240.191406 81.515625 241.933594 82.4375 243.652344 C 83.355469 245.371094 84.316406 247.066406 85.316406 248.738281 C 86.320312 250.414062 87.363281 252.058594 88.445312 253.679688 C 89.527344 255.300781 90.652344 256.894531 91.8125 258.460938 C 92.972656 260.027344 94.171875 261.5625 95.410156 263.070312 C 96.648438 264.578125 97.921875 266.050781 99.230469 267.496094 C 100.539062 268.941406 101.882812 270.351562 103.261719 271.730469 C 104.640625 273.109375 106.050781 274.453125 107.496094 275.765625 C 108.941406 277.074219 110.417969 278.347656 111.921875 279.582031 C 113.429688 280.820312 114.964844 282.019531 116.53125 283.179688 C 118.097656 284.339844 119.691406 285.464844 121.3125 286.546875 C 122.933594 287.628906 124.582031 288.671875 126.253906 289.675781 C 127.925781 290.675781 129.621094 291.636719 131.339844 292.558594 C 133.058594 293.476562 134.800781 294.351562 136.5625 295.1875 C 138.324219 296.019531 140.105469 296.808594 141.910156 297.554688 C 143.710938 298.300781 145.527344 299.003906 147.363281 299.660156 C 149.199219 300.316406 151.050781 300.929688 152.914062 301.492188 C 154.78125 302.058594 156.660156 302.578125 158.550781 303.054688 C 160.441406 303.527344 162.34375 303.953125 164.257812 304.335938 C 166.167969 304.714844 168.089844 305.046875 170.015625 305.335938 C 171.945312 305.621094 173.878906 305.859375 175.820312 306.050781 C 177.761719 306.242188 179.703125 306.382812 181.652344 306.480469 C 183.597656 306.574219 185.546875 306.625 187.496094 306.625 C 189.445312 306.625 191.394531 306.574219 193.339844 306.480469 C 195.289062 306.382812 197.234375 306.242188 199.171875 306.050781 C 201.113281 305.859375 203.046875 305.621094 204.976562 305.335938 C 206.90625 305.046875 208.824219 304.714844 210.738281 304.335938 C 212.648438 303.953125 214.550781 303.527344 216.441406 303.054688 C 218.332031 302.578125 220.210938 302.058594 222.078125 301.492188 C 223.941406 300.929688 225.792969 300.316406 227.628906 299.660156 C 229.464844 299.003906 231.28125 298.300781 233.085938 297.554688 C 234.886719 296.808594 236.667969 296.019531 238.429688 295.1875 C 240.191406 294.351562 241.933594 293.476562 243.652344 292.558594 C 245.371094 291.636719 247.066406 290.675781 248.738281 289.675781 C 250.414062 288.671875 252.058594 287.628906 253.679688 286.546875 C 255.300781 285.464844 256.894531 284.339844 258.460938 283.179688 C 260.027344 282.019531 261.5625 280.820312 263.070312 279.582031 C 264.578125 278.347656 266.050781 277.074219 267.496094 275.765625 C 268.941406 274.453125 270.351562 273.109375 271.730469 271.730469 C 273.109375 270.351562 274.453125 268.941406 275.765625 267.496094 C 277.074219 266.050781 278.347656 264.578125 279.582031 263.070312 C 280.820312 261.5625 282.019531 260.027344 283.179688 258.460938 C 284.339844 256.894531 285.464844 255.300781 286.546875 253.679688 C 287.628906 252.058594 288.671875 250.414062 289.675781 248.738281 C 290.675781 247.066406 291.636719 245.371094 292.558594 243.652344 C 293.476562 241.933594 294.351562 240.191406 295.1875 238.429688 C 296.019531 236.667969 296.808594 234.886719 297.554688 233.085938 C 298.300781 231.28125 299.003906 229.464844 299.660156 227.628906 C 300.316406 225.792969 300.929688 223.941406 301.492188 222.078125 C 302.058594 220.210938 302.578125 218.332031 303.054688 216.441406 C 303.527344 214.550781 303.953125 212.648438 304.335938 210.738281 C 304.714844 208.824219 305.046875 206.90625 305.335938 204.976562 C 305.621094 203.046875 305.859375 201.113281 306.050781 199.171875 C 306.242188 197.234375 306.382812 195.289062 306.480469 193.339844 C 306.574219 191.394531 306.625 189.445312 306.625 187.496094 C 306.625 185.546875 306.574219 183.597656 306.480469 181.652344 C 306.382812 179.703125 306.238281 177.761719 306.046875 175.820312 C 305.855469 173.878906 305.617188 171.945312 305.332031 170.019531 C 305.046875 168.089844 304.710938 166.167969 304.332031 164.257812 C 303.953125 162.34375 303.523438 160.445312 303.050781 158.550781 C 302.578125 156.660156 302.054688 154.78125 301.492188 152.917969 C 300.925781 151.050781 300.3125 149.203125 299.65625 147.367188 C 299 145.53125 298.296875 143.710938 297.550781 141.910156 C 296.804688 140.109375 296.015625 138.328125 295.183594 136.566406 C 294.347656 134.804688 293.472656 133.0625 292.550781 131.34375 C 291.632812 129.625 290.671875 127.929688 289.671875 126.257812 C 288.667969 124.585938 287.625 122.9375 286.542969 121.316406 C 285.460938 119.695312 284.335938 118.101562 283.175781 116.535156 C 282.015625 114.96875 280.816406 113.433594 279.578125 111.925781 C 278.339844 110.421875 277.070312 108.945312 275.757812 107.5 C 274.449219 106.054688 273.105469 104.644531 271.726562 103.265625 C 270.347656 101.886719 268.9375 100.542969 267.492188 99.234375 C 266.046875 97.925781 264.574219 96.652344 263.066406 95.414062 C 261.558594 94.179688 260.023438 92.980469 258.457031 91.816406 C 256.890625 90.65625 255.296875 89.535156 253.675781 88.449219 C 252.054688 87.367188 250.410156 86.324219 248.738281 85.324219 C 247.066406 84.320312 245.367188 83.359375 243.648438 82.441406 C 241.929688 81.519531 240.191406 80.644531 238.425781 79.8125 C 236.664062 78.976562 234.882812 78.1875 233.082031 77.441406 C 231.28125 76.695312 229.460938 75.992188 227.628906 75.335938 C 225.792969 74.679688 223.941406 74.070312 222.074219 73.503906 C 220.210938 72.9375 218.332031 72.417969 216.441406 71.941406 C 214.550781 71.46875 212.648438 71.042969 210.734375 70.660156 C 208.824219 70.28125 206.902344 69.945312 204.976562 69.660156 C 203.046875 69.375 201.113281 69.136719 199.171875 68.945312 C 197.230469 68.753906 195.289062 68.609375 193.339844 68.515625 C 191.394531 68.417969 189.445312 68.371094 187.496094 68.371094 Z M 261.617188 168.546875 C 261.40625 169.222656 261.097656 169.847656 260.6875 170.421875 C 260.277344 170.996094 259.785156 171.488281 259.214844 171.90625 C 258.648438 172.320312 258.027344 172.636719 257.355469 172.851562 C 256.679688 173.066406 255.992188 173.171875 255.289062 173.164062 L 248.660156 173.164062 L 248.660156 240.136719 C 248.660156 240.800781 248.625 241.460938 248.5625 242.125 C 248.496094 242.785156 248.398438 243.441406 248.265625 244.09375 C 248.136719 244.742188 247.976562 245.386719 247.78125 246.023438 C 247.589844 246.65625 247.363281 247.28125 247.109375 247.894531 C 246.855469 248.511719 246.570312 249.109375 246.257812 249.695312 C 245.945312 250.28125 245.601562 250.851562 245.234375 251.402344 C 244.863281 251.953125 244.46875 252.488281 244.046875 253 C 243.625 253.515625 243.179688 254.003906 242.710938 254.476562 C 242.242188 254.945312 241.75 255.390625 241.238281 255.8125 C 240.722656 256.234375 240.191406 256.628906 239.636719 256.996094 C 239.085938 257.367188 238.515625 257.707031 237.929688 258.023438 C 237.34375 258.335938 236.746094 258.621094 236.132812 258.875 C 235.519531 259.128906 234.894531 259.351562 234.257812 259.546875 C 233.625 259.738281 232.980469 259.902344 232.328125 260.03125 C 231.675781 260.160156 231.019531 260.257812 230.359375 260.324219 C 229.699219 260.390625 229.035156 260.421875 228.371094 260.425781 L 208.382812 260.425781 C 207.859375 260.421875 207.359375 260.316406 206.882812 260.113281 C 206.402344 259.914062 205.980469 259.625 205.613281 259.257812 C 205.246094 258.886719 204.964844 258.460938 204.765625 257.980469 C 204.570312 257.5 204.472656 257 204.472656 256.476562 L 204.472656 221.449219 C 204.472656 220.847656 204.410156 220.257812 204.292969 219.667969 C 204.175781 219.082031 204.003906 218.511719 203.773438 217.960938 C 203.542969 217.40625 203.261719 216.882812 202.929688 216.382812 C 202.597656 215.886719 202.21875 215.425781 201.796875 215.003906 C 201.375 214.578125 200.914062 214.203125 200.414062 213.867188 C 199.917969 213.535156 199.390625 213.253906 198.839844 213.023438 C 198.285156 212.796875 197.714844 212.621094 197.128906 212.503906 C 196.542969 212.386719 195.949219 212.328125 195.351562 212.328125 L 179.640625 212.328125 C 179.042969 212.328125 178.449219 212.386719 177.863281 212.503906 C 177.277344 212.621094 176.707031 212.796875 176.152344 213.023438 C 175.601562 213.253906 175.074219 213.535156 174.578125 213.867188 C 174.082031 214.203125 173.621094 214.578125 173.195312 215.003906 C 172.773438 215.425781 172.394531 215.886719 172.0625 216.382812 C 171.730469 216.882812 171.449219 217.40625 171.21875 217.960938 C 170.988281 218.511719 170.816406 219.082031 170.699219 219.667969 C 170.582031 220.257812 170.523438 220.847656 170.519531 221.449219 L 170.519531 256.476562 C 170.523438 257 170.421875 257.5 170.226562 257.980469 C 170.027344 258.460938 169.746094 258.886719 169.378906 259.257812 C 169.015625 259.625 168.589844 259.914062 168.113281 260.113281 C 167.632812 260.316406 167.132812 260.421875 166.613281 260.425781 L 146.621094 260.425781 C 145.957031 260.421875 145.292969 260.390625 144.632812 260.324219 C 143.972656 260.257812 143.316406 260.160156 142.664062 260.03125 C 142.011719 259.902344 141.371094 259.738281 140.734375 259.546875 C 140.097656 259.351562 139.472656 259.128906 138.859375 258.875 C 138.246094 258.621094 137.648438 258.335938 137.0625 258.023438 C 136.476562 257.707031 135.90625 257.367188 135.355469 256.996094 C 134.800781 256.628906 134.269531 256.234375 133.757812 255.8125 C 133.242188 255.390625 132.75 254.945312 132.28125 254.476562 C 131.8125 254.003906 131.367188 253.515625 130.945312 253 C 130.523438 252.488281 130.128906 251.953125 129.757812 251.402344 C 129.390625 250.851562 129.046875 250.28125 128.734375 249.695312 C 128.421875 249.109375 128.136719 248.511719 127.882812 247.894531 C 127.628906 247.28125 127.40625 246.65625 127.210938 246.023438 C 127.019531 245.386719 126.855469 244.742188 126.726562 244.09375 C 126.597656 243.441406 126.496094 242.785156 126.433594 242.125 C 126.367188 241.460938 126.332031 240.800781 126.332031 240.136719 L 126.332031 173.164062 L 119.707031 173.164062 C 119.003906 173.164062 118.316406 173.058594 117.648438 172.839844 C 116.980469 172.625 116.363281 172.308594 115.792969 171.894531 C 115.226562 171.480469 114.734375 170.992188 114.324219 170.421875 C 113.910156 169.851562 113.597656 169.234375 113.382812 168.566406 C 113.167969 167.894531 113.0625 167.210938 113.0625 166.507812 C 113.066406 165.804688 113.175781 165.121094 113.398438 164.453125 C 113.617188 163.785156 113.9375 163.167969 114.351562 162.601562 C 114.769531 162.035156 115.261719 161.546875 115.835938 161.140625 L 175.734375 118.367188 C 176.585938 117.757812 177.480469 117.21875 178.417969 116.746094 C 179.355469 116.277344 180.320312 115.882812 181.320312 115.5625 C 182.316406 115.242188 183.335938 115 184.371094 114.839844 C 185.40625 114.675781 186.449219 114.597656 187.496094 114.597656 C 188.542969 114.597656 189.585938 114.675781 190.621094 114.839844 C 191.65625 115 192.675781 115.242188 193.671875 115.5625 C 194.671875 115.882812 195.636719 116.277344 196.574219 116.746094 C 197.511719 117.21875 198.40625 117.757812 199.261719 118.367188 L 259.160156 161.140625 C 259.730469 161.546875 260.226562 162.03125 260.644531 162.59375 C 261.0625 163.160156 261.382812 163.773438 261.601562 164.441406 C 261.824219 165.105469 261.933594 165.792969 261.9375 166.492188 C 261.941406 167.195312 261.832031 167.878906 261.617188 168.546875 Z M 261.617188 168.546875 " fill-opacity="1" fill-rule="nonzero"/></g></svg>