<svg xmlns="http://www.w3.org/2000/svg" xmlns:xlink="http://www.w3.org/1999/xlink" width="500" zoomAndPan="magnify" viewBox="0 0 375 374.999991" height="500" preserveAspectRatio="xMidYMid meet" version="1.0"><defs><clipPath id="9a635dae3f"><path d="M 58.277344 58.277344 L 317.027344 58.277344 L 317.027344 317.027344 L 58.277344 317.027344 Z M 58.277344 58.277344 " clip-rule="nonzero"/></clipPath></defs><path fill="#000000" d="M 93.792969 109.011719 C 102.183594 109.011719 109.011719 102.183594 109.011719 93.792969 C 109.011719 85.398438 102.183594 78.570312 93.792969 78.570312 C 85.398438 78.570312 78.570312 85.398438 78.570312 93.792969 C 78.570312 102.183594 85.398438 109.011719 93.792969 109.011719 Z M 93.792969 109.011719 " fill-opacity="1" fill-rule="nonzero"/><path fill="#000000" d="M 134.378906 109.011719 C 142.773438 109.011719 149.601562 102.183594 149.601562 93.792969 C 149.601562 85.398438 142.773438 78.570312 134.378906 78.570312 C 125.988281 78.570312 119.160156 85.398438 119.160156 93.792969 C 119.160156 102.183594 125.988281 109.011719 134.378906 109.011719 Z M 134.378906 109.011719 " fill-opacity="1" fill-rule="nonzero"/><path fill="#000000" d="M 164.820312 88.71875 L 220.628906 88.71875 C 223.429688 88.71875 225.703125 86.445312 225.703125 83.644531 C 225.703125 80.84375 223.429688 78.570312 220.628906 78.570312 L 164.820312 78.570312 C 162.019531 78.570312 159.746094 80.84375 159.746094 83.644531 C 159.746094 86.445312 162.019531 88.71875 164.820312 88.71875 Z M 164.820312 88.71875 " fill-opacity="1" fill-rule="nonzero"/><path fill="#000000" d="M 164.820312 109.011719 L 220.628906 109.011719 C 223.429688 109.011719 225.703125 106.742188 225.703125 103.9375 C 225.703125 101.136719 223.429688 98.867188 220.628906 98.867188 L 164.820312 98.867188 C 162.019531 98.867188 159.746094 101.136719 159.746094 103.9375 C 159.746094 106.742188 162.019531 109.011719 164.820312 109.011719 Z M 164.820312 109.011719 " fill-opacity="1" fill-rule="nonzero"/><path fill="#000000" d="M 93.792969 190.1875 C 102.183594 190.1875 109.011719 183.359375 109.011719 174.96875 C 109.011719 166.574219 102.183594 159.746094 93.792969 159.746094 C 85.398438 159.746094 78.570312 166.574219 78.570312 174.96875 C 78.570312 183.359375 85.398438 190.1875 93.792969 190.1875 Z M 93.792969 190.1875 " fill-opacity="1" fill-rule="nonzero"/><path fill="#000000" d="M 134.378906 190.1875 C 142.773438 190.1875 149.601562 183.359375 149.601562 174.96875 C 149.601562 166.574219 142.773438 159.746094 134.378906 159.746094 C 125.988281 159.746094 119.160156 166.574219 119.160156 174.96875 C 119.160156 183.359375 125.988281 190.1875 134.378906 190.1875 Z M 134.378906 190.1875 " fill-opacity="1" fill-rule="nonzero"/><path fill="#000000" d="M 164.820312 169.894531 L 220.628906 169.894531 C 223.429688 169.894531 225.703125 167.625 225.703125 164.820312 C 225.703125 162.019531 223.429688 159.746094 220.628906 159.746094 L 164.820312 159.746094 C 162.019531 159.746094 159.746094 162.019531 159.746094 164.820312 C 159.746094 167.625 162.019531 169.894531 164.820312 169.894531 Z M 164.820312 169.894531 " fill-opacity="1" fill-rule="nonzero"/><path fill="#000000" d="M 164.820312 190.1875 L 220.628906 190.1875 C 223.429688 190.1875 225.703125 187.917969 225.703125 185.117188 C 225.703125 182.3125 223.429688 180.042969 220.628906 180.042969 L 164.820312 180.042969 C 162.019531 180.042969 159.746094 182.3125 159.746094 185.117188 C 159.746094 187.917969 162.019531 190.1875 164.820312 190.1875 Z M 164.820312 190.1875 " fill-opacity="1" fill-rule="nonzero"/><path fill="#000000" d="M 93.792969 240.925781 C 85.398438 240.925781 78.570312 247.753906 78.570312 256.144531 C 78.570312 264.539062 85.398438 271.367188 93.792969 271.367188 C 102.183594 271.367188 109.011719 264.539062 109.011719 256.144531 C 109.011719 247.753906 102.183594 240.925781 93.792969 240.925781 Z M 93.792969 240.925781 " fill-opacity="1" fill-rule="nonzero"/><path fill="#000000" d="M 134.378906 240.925781 C 125.988281 240.925781 119.160156 247.753906 119.160156 256.144531 C 119.160156 264.539062 125.988281 271.367188 134.378906 271.367188 C 142.773438 271.367188 149.601562 264.539062 149.601562 256.144531 C 149.601562 247.753906 142.773438 240.925781 134.378906 240.925781 Z M 134.378906 240.925781 " fill-opacity="1" fill-rule="nonzero"/><g clip-path="url(#9a635dae3f)"><path fill="#000000" d="M 317.027344 253.609375 C 317.027344 215.660156 283.761719 186.109375 245.996094 190.648438 L 245.996094 144.527344 C 245.996094 141.726562 243.726562 139.453125 240.925781 139.453125 L 230.777344 139.453125 L 230.777344 129.304688 L 240.925781 129.304688 C 243.726562 129.304688 245.996094 127.035156 245.996094 124.234375 L 245.996094 63.351562 C 245.996094 60.546875 243.726562 58.277344 240.925781 58.277344 L 63.351562 58.277344 C 60.550781 58.277344 58.277344 60.546875 58.277344 63.351562 L 58.277344 124.234375 C 58.277344 127.035156 60.550781 129.304688 63.351562 129.304688 L 73.496094 129.304688 L 73.496094 139.453125 L 63.351562 139.453125 C 60.550781 139.453125 58.277344 141.726562 58.277344 144.527344 L 58.277344 205.410156 C 58.277344 208.210938 60.550781 210.484375 63.351562 210.484375 L 73.496094 210.484375 L 73.496094 220.628906 L 63.351562 220.628906 C 60.550781 220.628906 58.277344 222.902344 58.277344 225.703125 L 58.277344 286.585938 C 58.277344 289.386719 60.550781 291.660156 63.351562 291.660156 L 202.90625 291.660156 C 214.769531 307.425781 233.367188 317.027344 253.609375 317.027344 C 288.550781 317.027344 317.027344 288.589844 317.027344 253.609375 Z M 287.691406 280.515625 C 285.707031 278.535156 282.496094 278.535156 280.515625 280.515625 C 278.53125 282.496094 278.53125 285.707031 280.515625 287.691406 L 287.5 294.675781 C 279.511719 301.28125 269.566406 305.601562 258.679688 306.636719 L 258.679688 296.734375 C 258.679688 293.929688 256.410156 291.660156 253.609375 291.660156 C 250.804688 291.660156 248.535156 293.929688 248.535156 296.734375 L 248.535156 306.636719 C 237.648438 305.601562 227.703125 301.28125 219.714844 294.675781 L 226.703125 287.691406 C 228.683594 285.707031 228.683594 282.496094 226.703125 280.515625 C 224.71875 278.535156 221.507812 278.535156 219.527344 280.515625 L 212.539062 287.5 C 205.933594 279.511719 201.613281 269.566406 200.578125 258.679688 L 210.484375 258.679688 C 213.285156 258.679688 215.554688 256.410156 215.554688 253.609375 C 215.554688 250.804688 213.285156 248.535156 210.484375 248.535156 L 200.578125 248.535156 C 201.613281 237.648438 205.933594 227.703125 212.539062 219.714844 L 219.527344 226.703125 C 221.507812 228.683594 224.71875 228.683594 226.703125 226.703125 C 228.683594 224.71875 228.683594 221.507812 226.703125 219.527344 L 219.714844 212.539062 C 227.703125 205.933594 237.648438 201.613281 248.535156 200.578125 L 248.535156 210.484375 C 248.535156 213.285156 250.804688 215.554688 253.609375 215.554688 C 256.410156 215.554688 258.679688 213.285156 258.679688 210.484375 L 258.679688 200.578125 C 269.566406 201.613281 279.511719 205.933594 287.5 212.539062 L 280.515625 219.527344 C 278.53125 221.507812 278.53125 224.71875 280.515625 226.703125 C 282.496094 228.683594 285.707031 228.683594 287.691406 226.703125 L 294.675781 219.714844 C 301.28125 227.703125 305.601562 237.648438 306.636719 248.535156 L 296.734375 248.535156 C 293.929688 248.535156 291.660156 250.804688 291.660156 253.609375 C 291.660156 256.410156 293.929688 258.679688 296.734375 258.679688 L 306.636719 258.679688 C 305.601562 269.566406 301.28125 279.511719 294.675781 287.5 Z M 68.425781 68.425781 L 235.851562 68.425781 L 235.851562 119.160156 C 229.925781 119.160156 74.371094 119.160156 68.425781 119.160156 Z M 68.425781 149.601562 C 74.347656 149.601562 229.90625 149.601562 235.851562 149.601562 L 235.851562 192.722656 C 229.90625 194.457031 224.320312 197.042969 219.234375 200.335938 C 212.988281 200.335938 73.714844 200.335938 68.425781 200.335938 Z M 68.425781 281.511719 L 68.425781 230.777344 C 71.824219 230.777344 190.058594 230.777344 194.441406 230.777344 C 193.179688 234.039062 192.175781 237.429688 191.464844 240.925781 L 164.820312 240.925781 C 162.019531 240.925781 159.746094 243.195312 159.746094 245.996094 C 159.746094 248.800781 162.019531 251.070312 164.820312 251.070312 L 190.242188 251.070312 C 190.109375 254.433594 190.226562 257.703125 190.648438 261.21875 L 164.820312 261.21875 C 162.019531 261.21875 159.746094 263.488281 159.746094 266.292969 C 159.746094 269.09375 162.019531 271.367188 164.820312 271.367188 L 192.722656 271.367188 C 193.75 274.882812 195.074219 278.273438 196.667969 281.511719 Z M 68.425781 281.511719 " fill-opacity="1" fill-rule="nonzero"/></g><path fill="#000000" d="M 258.679688 251.507812 L 258.679688 230.777344 C 258.679688 227.976562 256.410156 225.703125 253.609375 225.703125 C 250.804688 225.703125 248.535156 227.976562 248.535156 230.777344 L 248.535156 253.609375 C 248.535156 254.953125 249.070312 256.242188 250.019531 257.195312 L 267.777344 274.953125 C 269.753906 276.925781 272.929688 276.914062 274.863281 275.039062 C 276.757812 273.207031 277.144531 269.96875 274.953125 267.777344 Z M 258.679688 251.507812 " fill-opacity="1" fill-rule="nonzero"/></svg>