<svg xmlns="http://www.w3.org/2000/svg" xmlns:xlink="http://www.w3.org/1999/xlink" width="500" zoomAndPan="magnify" viewBox="0 0 375 374.999991" height="500" preserveAspectRatio="xMidYMid meet" version="1.0"><defs><g/><clipPath id="96813f3bf3"><path d="M 37.5 150.960938 L 90.261719 150.960938 L 90.261719 203.113281 L 37.5 203.113281 Z M 37.5 150.960938 " clip-rule="nonzero"/></clipPath><clipPath id="62d8fb5641"><path d="M 63.574219 150.960938 L 64.140625 150.960938 C 71.054688 150.960938 77.6875 153.710938 82.578125 158.601562 C 87.46875 163.488281 90.214844 170.121094 90.214844 177.039062 C 90.214844 183.953125 87.46875 190.585938 82.578125 195.476562 C 77.6875 200.363281 71.054688 203.113281 64.140625 203.113281 L 63.574219 203.113281 C 56.660156 203.113281 50.027344 200.363281 45.136719 195.476562 C 40.246094 190.585938 37.5 183.953125 37.5 177.039062 C 37.5 170.121094 40.246094 163.488281 45.136719 158.601562 C 50.027344 153.710938 56.660156 150.960938 63.574219 150.960938 Z M 63.574219 150.960938 " clip-rule="nonzero"/></clipPath><clipPath id="76f4e581ba"><path d="M 0.5 0.960938 L 53.238281 0.960938 L 53.238281 53.113281 L 0.5 53.113281 Z M 0.5 0.960938 " clip-rule="nonzero"/></clipPath><clipPath id="eed1a00a80"><path d="M 26.574219 0.960938 L 27.140625 0.960938 C 34.054688 0.960938 40.6875 3.710938 45.578125 8.601562 C 50.46875 13.488281 53.214844 20.121094 53.214844 27.039062 C 53.214844 33.953125 50.46875 40.585938 45.578125 45.476562 C 40.6875 50.363281 34.054688 53.113281 27.140625 53.113281 L 26.574219 53.113281 C 19.660156 53.113281 13.027344 50.363281 8.136719 45.476562 C 3.246094 40.585938 0.5 33.953125 0.5 27.039062 C 0.5 20.121094 3.246094 13.488281 8.136719 8.601562 C 13.027344 3.710938 19.660156 0.960938 26.574219 0.960938 Z M 26.574219 0.960938 " clip-rule="nonzero"/></clipPath><clipPath id="1286a06c95"><rect x="0" width="54" y="0" height="54"/></clipPath><clipPath id="b8c6db32df"><path d="M 47 157.769531 L 80.652344 157.769531 L 80.652344 175 L 47 175 Z M 47 157.769531 " clip-rule="nonzero"/></clipPath><clipPath id="52cbc03600"><path d="M 54.09375 170 L 62 170 L 62 176 L 54.09375 176 Z M 54.09375 170 " clip-rule="nonzero"/></clipPath><clipPath id="8e5582f34e"><path d="M 68 170 L 75.84375 170 L 75.84375 176 L 68 176 Z M 68 170 " clip-rule="nonzero"/></clipPath><clipPath id="3d5315630e"><path d="M 57 178 L 72 178 L 72 184.488281 L 57 184.488281 Z M 57 178 " clip-rule="nonzero"/></clipPath><clipPath id="c735b2a8e3"><path d="M 50 8 L 59 8 L 59 20.878906 L 50 20.878906 Z M 50 8 " clip-rule="nonzero"/></clipPath><clipPath id="71e1a20071"><rect x="0" width="214" y="0" height="21"/></clipPath></defs><g clip-path="url(#96813f3bf3)"><g clip-path="url(#62d8fb5641)"><g transform="matrix(1, 0, 0, 1, 37, 150)"><g clip-path="url(#1286a06c95)"><g clip-path="url(#76f4e581ba)"><g clip-path="url(#eed1a00a80)"><path fill="#34a853" d="M 0.5 0.960938 L 53.261719 0.960938 L 53.261719 53.113281 L 0.5 53.113281 Z M 0.5 0.960938 " fill-opacity="1" fill-rule="nonzero"/></g></g></g></g></g></g><path fill="#38724d" d="M 77.496094 163.992188 L 50.953125 165.113281 C 51.390625 180.417969 51.5625 189.285156 51.46875 191.710938 C 51.476562 192.671875 51.648438 193.539062 51.988281 194.316406 C 52.671875 195.613281 56.855469 196.125 64.539062 195.851562 C 65.742188 195.804688 69.425781 195.566406 75.589844 195.136719 C 76.550781 194.902344 77.171875 194.375 77.453125 193.550781 C 77.722656 192.867188 77.859375 191.300781 77.859375 188.859375 L 77.496094 163.992188 " fill-opacity="1" fill-rule="nonzero"/><g clip-path="url(#b8c6db32df)"><path fill="#38724d" d="M 66.554688 157.792969 L 65.6875 157.796875 C 62.3125 157.910156 59.371094 158.214844 56.863281 158.710938 L 55.964844 158.925781 C 55.371094 159.085938 54.800781 159.273438 54.25 159.484375 C 53.144531 159.90625 52.113281 160.4375 51.15625 161.074219 C 50.105469 161.796875 49.226562 162.644531 48.523438 163.613281 C 47.816406 164.757812 47.476562 165.449219 47.496094 165.683594 C 47.101562 166.996094 47.335938 168.476562 48.203125 170.121094 C 48.449219 170.546875 48.738281 170.914062 49.066406 171.21875 C 49.398438 171.523438 49.769531 171.765625 50.1875 171.949219 L 50.839844 172.171875 L 51.554688 172.304688 L 74.128906 174.957031 C 77.613281 171.921875 79.570312 169.929688 79.996094 168.984375 C 80.476562 168.152344 80.714844 167.269531 80.710938 166.335938 C 80.773438 165.839844 80.59375 165.066406 80.160156 164.015625 C 79.792969 163.152344 79.308594 162.378906 78.699219 161.695312 L 77.699219 160.738281 C 76.972656 160.144531 76.128906 159.644531 75.160156 159.234375 C 74.195312 158.824219 73.105469 158.503906 71.902344 158.277344 C 70.1875 157.96875 68.402344 157.808594 66.554688 157.792969 " fill-opacity="1" fill-rule="nonzero"/></g><path fill="#ffffff" d="M 76.570312 164.761719 L 52.503906 165.507812 C 52.746094 179.382812 52.8125 187.421875 52.699219 189.621094 C 52.695312 190.492188 52.84375 191.28125 53.144531 191.988281 C 53.75 193.167969 57.535156 193.675781 64.5 193.503906 C 65.59375 193.476562 68.9375 193.296875 74.527344 192.96875 C 75.398438 192.769531 75.96875 192.296875 76.230469 191.554688 C 76.484375 190.933594 76.621094 189.515625 76.644531 187.304688 L 76.570312 164.761719 " fill-opacity="1" fill-rule="nonzero"/><path fill="#ffffff" d="M 66.71875 159.035156 L 65.933594 159.027344 C 62.871094 159.097656 60.203125 159.339844 57.925781 159.765625 L 57.109375 159.953125 C 56.570312 160.089844 56.050781 160.253906 55.546875 160.4375 C 54.542969 160.8125 53.601562 161.28125 52.730469 161.851562 C 51.769531 162.492188 50.964844 163.25 50.316406 164.125 C 49.664062 165.15625 49.347656 165.777344 49.363281 165.988281 C 48.992188 167.175781 49.191406 168.519531 49.960938 170.019531 C 50.179688 170.40625 50.4375 170.742188 50.734375 171.023438 C 51.03125 171.300781 51.363281 171.527344 51.738281 171.695312 L 52.328125 171.90625 L 52.976562 172.03125 L 73.410156 174.667969 C 76.597656 171.953125 78.390625 170.167969 78.785156 169.3125 C 79.230469 168.566406 79.457031 167.765625 79.460938 166.921875 C 79.523438 166.46875 79.367188 165.769531 78.988281 164.8125 C 78.664062 164.023438 78.230469 163.316406 77.6875 162.691406 L 76.789062 161.816406 C 76.136719 161.269531 75.375 160.808594 74.503906 160.425781 C 73.632812 160.046875 72.648438 159.746094 71.558594 159.527344 C 70.007812 159.230469 68.394531 159.066406 66.71875 159.035156 " fill-opacity="1" fill-rule="nonzero"/><g clip-path="url(#52cbc03600)"><path fill="#000000" d="M 59.988281 174.019531 C 60.175781 174.425781 60.214844 175 60.695312 175.183594 C 61.183594 175.378906 61.75 174.914062 61.636719 174.40625 C 61.066406 171.347656 57.632812 169.496094 55.445312 172.328125 C 55 173.085938 54.09375 174.160156 54.621094 175.035156 C 55.667969 175.921875 56 173.617188 56.640625 173.117188 C 57.710938 171.671875 59.53125 172.527344 59.988281 174.019531 Z M 59.988281 174.019531 " fill-opacity="1" fill-rule="nonzero"/></g><g clip-path="url(#8e5582f34e)"><path fill="#000000" d="M 71.6875 170.722656 C 70 171.070312 67.824219 172.835938 68.472656 174.691406 C 68.703125 175.070312 69.328125 175.046875 69.523438 174.648438 C 69.671875 174.304688 69.679688 173.917969 69.910156 173.601562 C 71.242188 171.605469 73.335938 171.59375 74.25 173.933594 C 74.378906 174.226562 74.40625 174.574219 74.636719 174.820312 C 75.003906 175.28125 75.800781 175.023438 75.839844 174.445312 C 75.675781 172.539062 73.8125 170.273438 71.6875 170.722656 Z M 71.6875 170.722656 " fill-opacity="1" fill-rule="nonzero"/></g><g clip-path="url(#3d5315630e)"><path fill="#000000" d="M 71.375 178.117188 C 71.007812 178.015625 70.574219 178.238281 70.484375 178.617188 C 70.429688 178.847656 70.359375 179.078125 70.28125 179.304688 C 70.199219 179.527344 70.105469 179.746094 70.003906 179.957031 C 69.886719 180.179688 69.757812 180.394531 69.613281 180.605469 C 69.46875 180.8125 69.3125 181.007812 69.148438 181.199219 C 68.984375 181.371094 68.8125 181.539062 68.632812 181.695312 C 68.421875 181.871094 68.207031 182.03125 67.980469 182.183594 C 67.78125 182.3125 67.574219 182.429688 67.363281 182.535156 C 67.148438 182.640625 66.929688 182.730469 66.703125 182.808594 C 66.449219 182.890625 66.191406 182.960938 65.929688 183.019531 C 65.695312 183.0625 65.457031 183.09375 65.21875 183.113281 C 64.949219 183.125 64.679688 183.125 64.410156 183.109375 C 64.152344 183.089844 63.898438 183.054688 63.644531 183.007812 C 63.375 182.953125 63.109375 182.878906 62.847656 182.789062 C 62.613281 182.707031 62.382812 182.609375 62.15625 182.5 C 61.910156 182.375 61.671875 182.242188 61.445312 182.089844 C 61.257812 181.960938 61.078125 181.824219 60.90625 181.675781 C 60.699219 181.492188 60.496094 181.296875 60.3125 181.089844 C 60.140625 180.894531 59.988281 180.6875 59.839844 180.476562 C 59.710938 180.28125 59.589844 180.085938 59.484375 179.878906 C 59.375 179.652344 59.28125 179.417969 59.183594 179.1875 C 59.148438 179.097656 59.117188 179.007812 59.078125 178.921875 C 58.980469 178.6875 58.800781 178.527344 58.542969 178.480469 C 58.179688 178.417969 57.839844 178.757812 57.855469 179.105469 C 57.859375 179.230469 57.882812 179.34375 57.914062 179.460938 C 57.984375 179.730469 58.078125 179.992188 58.195312 180.242188 C 58.421875 180.742188 58.6875 181.226562 59.027344 181.660156 C 59.269531 181.972656 59.523438 182.269531 59.8125 182.539062 C 60.09375 182.796875 60.390625 183.03125 60.703125 183.242188 C 61.46875 183.761719 62.328125 184.128906 63.238281 184.320312 C 63.539062 184.382812 63.84375 184.429688 64.148438 184.453125 C 64.375 184.472656 64.601562 184.484375 64.828125 184.480469 C 65.347656 184.476562 65.867188 184.414062 66.375 184.308594 C 66.847656 184.207031 67.320312 184.054688 67.761719 183.859375 C 68.21875 183.65625 68.664062 183.421875 69.066406 183.128906 C 69.832031 182.574219 70.496094 181.875 70.996094 181.078125 C 71.398438 180.433594 71.707031 179.734375 71.882812 178.996094 C 71.929688 178.808594 71.910156 178.617188 71.8125 178.449219 C 71.714844 178.289062 71.558594 178.167969 71.375 178.117188 Z M 71.375 178.117188 " fill-opacity="1" fill-rule="nonzero"/></g><g fill="#000000" fill-opacity="1"><g transform="translate(95.583967, 189.187824)"><g><path d="M 0.328125 -26.890625 L 0.328125 -33.625 L 23.96875 -33.625 L 23.96875 -26.890625 L 15.96875 -26.890625 L 15.96875 0 L 8.3125 0 L 8.3125 -26.890625 Z M 0.328125 -26.890625 "/></g></g></g><g fill="#000000" fill-opacity="1"><g transform="translate(118.564515, 189.187824)"><g><path d="M 0.9375 -16.828125 C 0.9375 -21.691406 2.59375 -25.804688 5.90625 -29.171875 C 9.21875 -32.546875 13.210938 -34.234375 17.890625 -34.234375 C 22.585938 -34.234375 26.578125 -32.554688 29.859375 -29.203125 C 33.148438 -25.847656 34.796875 -21.722656 34.796875 -16.828125 C 34.796875 -11.910156 33.179688 -7.773438 29.953125 -4.421875 C 26.722656 -1.066406 22.703125 0.609375 17.890625 0.609375 C 12.972656 0.609375 8.914062 -1.050781 5.71875 -4.375 C 2.53125 -7.707031 0.9375 -11.859375 0.9375 -16.828125 Z M 9.203125 -16.828125 C 9.203125 -15.066406 9.472656 -13.457031 10.015625 -12 C 10.566406 -10.550781 11.519531 -9.320312 12.875 -8.3125 C 14.238281 -7.3125 15.910156 -6.8125 17.890625 -6.8125 C 20.742188 -6.8125 22.894531 -7.785156 24.34375 -9.734375 C 25.800781 -11.691406 26.53125 -14.054688 26.53125 -16.828125 C 26.53125 -19.578125 25.789062 -21.9375 24.3125 -23.90625 C 22.832031 -25.875 20.691406 -26.859375 17.890625 -26.859375 C 15.117188 -26.859375 12.976562 -25.875 11.46875 -23.90625 C 9.957031 -21.9375 9.203125 -19.578125 9.203125 -16.828125 Z M 9.203125 -16.828125 "/></g></g></g><g fill="#000000" fill-opacity="1"><g transform="translate(154.298884, 189.187824)"><g><path d="M 19.515625 -33.625 L 33.09375 0 L 24.859375 0 L 22.375 -6.71875 L 9.578125 -6.71875 L 7.09375 0 L -1.140625 0 L 12.421875 -33.625 Z M 19.765625 -13.453125 L 16.015625 -23.234375 L 15.9375 -23.234375 L 12.1875 -13.453125 Z M 19.765625 -13.453125 "/></g></g></g><g fill="#000000" fill-opacity="1"><g transform="translate(185.428756, 189.187824)"><g><path d="M 14.828125 -34.234375 C 16.648438 -34.234375 18.429688 -33.96875 20.171875 -33.4375 C 21.910156 -32.90625 23.203125 -32.378906 24.046875 -31.859375 L 25.265625 -31.046875 L 22.171875 -24.9375 C 21.921875 -25.101562 21.578125 -25.3125 21.140625 -25.5625 C 20.710938 -25.820312 19.898438 -26.171875 18.703125 -26.609375 C 17.503906 -27.046875 16.390625 -27.265625 15.359375 -27.265625 C 14.085938 -27.265625 13.101562 -26.988281 12.40625 -26.4375 C 11.71875 -25.894531 11.375 -25.164062 11.375 -24.25 C 11.375 -23.78125 11.535156 -23.347656 11.859375 -22.953125 C 12.179688 -22.566406 12.734375 -22.148438 13.515625 -21.703125 C 14.304688 -21.253906 15 -20.894531 15.59375 -20.625 C 16.195312 -20.351562 17.125 -19.941406 18.375 -19.390625 C 20.550781 -18.472656 22.40625 -17.21875 23.9375 -15.625 C 25.476562 -14.039062 26.25 -12.242188 26.25 -10.234375 C 26.25 -8.296875 25.898438 -6.609375 25.203125 -5.171875 C 24.515625 -3.734375 23.5625 -2.609375 22.34375 -1.796875 C 21.132812 -0.984375 19.796875 -0.378906 18.328125 0.015625 C 16.867188 0.410156 15.28125 0.609375 13.5625 0.609375 C 12.101562 0.609375 10.664062 0.457031 9.25 0.15625 C 7.832031 -0.132812 6.648438 -0.503906 5.703125 -0.953125 C 4.753906 -1.398438 3.898438 -1.84375 3.140625 -2.28125 C 2.378906 -2.71875 1.820312 -3.082031 1.46875 -3.375 L 0.9375 -3.828125 L 4.765625 -10.265625 C 5.085938 -9.992188 5.535156 -9.644531 6.109375 -9.21875 C 6.679688 -8.800781 7.691406 -8.238281 9.140625 -7.53125 C 10.597656 -6.832031 11.882812 -6.484375 13 -6.484375 C 16.226562 -6.484375 17.84375 -7.582031 17.84375 -9.78125 C 17.84375 -10.238281 17.726562 -10.664062 17.5 -11.0625 C 17.269531 -11.457031 16.863281 -11.851562 16.28125 -12.25 C 15.695312 -12.644531 15.179688 -12.957031 14.734375 -13.1875 C 14.285156 -13.414062 13.550781 -13.765625 12.53125 -14.234375 C 11.507812 -14.710938 10.753906 -15.078125 10.265625 -15.328125 C 8.234375 -16.328125 6.660156 -17.582031 5.546875 -19.09375 C 4.429688 -20.601562 3.875 -22.226562 3.875 -23.96875 C 3.875 -26.976562 4.984375 -29.441406 7.203125 -31.359375 C 9.429688 -33.273438 11.972656 -34.234375 14.828125 -34.234375 Z M 14.828125 -34.234375 "/></g></g></g><g fill="#000000" fill-opacity="1"><g transform="translate(210.853933, 189.187824)"><g><path d="M 0.328125 -26.890625 L 0.328125 -33.625 L 23.96875 -33.625 L 23.96875 -26.890625 L 15.96875 -26.890625 L 15.96875 0 L 8.3125 0 L 8.3125 -26.890625 Z M 0.328125 -26.890625 "/></g></g></g><g fill="#000000" fill-opacity="1"><g transform="translate(235.138638, 189.187824)"><g><path d="M 21.875 -33.625 L 21.875 -26.890625 L 10.109375 -26.890625 L 10.109375 -20.21875 L 20.984375 -20.21875 L 20.984375 -13.484375 L 10.109375 -13.484375 L 10.109375 0 L 2.4375 0 L 2.4375 -33.625 Z M 21.875 -33.625 "/></g></g></g><g fill="#000000" fill-opacity="1"><g transform="translate(258.241705, 189.187824)"><g><path d="M 10.109375 -33.625 L 10.109375 -6.71875 L 21.671875 -6.71875 L 21.671875 0 L 2.4375 0 L 2.4375 -33.625 Z M 10.109375 -33.625 "/></g></g></g><g fill="#000000" fill-opacity="1"><g transform="translate(281.8746, 189.187824)"><g><path d="M 19.515625 -33.625 L 33.09375 0 L 24.859375 0 L 22.375 -6.71875 L 9.578125 -6.71875 L 7.09375 0 L -1.140625 0 L 12.421875 -33.625 Z M 19.765625 -13.453125 L 16.015625 -23.234375 L 15.9375 -23.234375 L 12.1875 -13.453125 Z M 19.765625 -13.453125 "/></g></g></g><g fill="#000000" fill-opacity="1"><g transform="translate(311.863326, 189.187824)"><g><path d="M 0.328125 -26.890625 L 0.328125 -33.625 L 23.96875 -33.625 L 23.96875 -26.890625 L 15.96875 -26.890625 L 15.96875 0 L 8.3125 0 L 8.3125 -26.890625 Z M 0.328125 -26.890625 "/></g></g></g><g transform="matrix(1, 0, 0, 1, 125, 192)"><g clip-path="url(#71e1a20071)"><g fill="#000000" fill-opacity="1"><g transform="translate(0.737034, 15.942832)"><g><path d="M 11.21875 -5.6875 C 11.21875 -6.96875 10.757812 -8.0625 9.84375 -8.96875 C 8.9375 -9.875 7.84375 -10.328125 6.5625 -10.328125 C 5.28125 -10.328125 4.1875 -9.875 3.28125 -8.96875 C 2.363281 -8.0625 1.90625 -6.96875 1.90625 -5.6875 C 1.90625 -4.40625 2.363281 -3.304688 3.28125 -2.390625 C 4.1875 -1.484375 5.28125 -1.03125 6.5625 -1.03125 C 7.84375 -1.03125 8.9375 -1.484375 9.84375 -2.390625 C 10.757812 -3.304688 11.21875 -4.40625 11.21875 -5.6875 Z M 12.375 -5.6875 C 12.375 -4.894531 12.226562 -4.140625 11.9375 -3.421875 C 11.625 -2.710938 11.207031 -2.097656 10.6875 -1.578125 C 10.15625 -1.046875 9.53125 -0.628906 8.8125 -0.328125 C 8.101562 -0.015625 7.351562 0.140625 6.5625 0.140625 C 5.757812 0.140625 5.007812 -0.015625 4.3125 -0.328125 C 3.601562 -0.628906 2.988281 -1.046875 2.46875 -1.578125 C 1.9375 -2.097656 1.519531 -2.710938 1.21875 -3.421875 C 0.90625 -4.140625 0.75 -4.894531 0.75 -5.6875 C 0.75 -6.488281 0.90625 -7.242188 1.21875 -7.953125 C 1.519531 -8.660156 1.9375 -9.273438 2.46875 -9.796875 C 2.988281 -10.316406 3.601562 -10.734375 4.3125 -11.046875 C 5.007812 -11.347656 5.757812 -11.5 6.5625 -11.5 C 7.351562 -11.5 8.101562 -11.347656 8.8125 -11.046875 C 9.53125 -10.734375 10.15625 -10.316406 10.6875 -9.796875 C 11.207031 -9.273438 11.625 -8.660156 11.9375 -7.953125 C 12.226562 -7.242188 12.375 -6.488281 12.375 -5.6875 Z M 12.375 -5.6875 "/></g></g></g><g fill="#000000" fill-opacity="1"><g transform="translate(13.858995, 15.942832)"><g/></g></g><g fill="#000000" fill-opacity="1"><g transform="translate(18.349399, 15.942832)"><g><path d="M 4.390625 -5.34375 C 2.085938 -5.875 0.9375 -6.859375 0.9375 -8.296875 C 0.9375 -9.367188 1.304688 -10.171875 2.046875 -10.703125 C 2.785156 -11.222656 3.65625 -11.484375 4.65625 -11.484375 C 6.863281 -11.484375 8.175781 -10.660156 8.59375 -9.015625 L 7.328125 -9.015625 C 7.097656 -9.992188 6.207031 -10.484375 4.65625 -10.484375 C 3.570312 -10.484375 2.8125 -10.160156 2.375 -9.515625 C 2.207031 -9.273438 2.125 -8.972656 2.125 -8.609375 C 2.125 -7.910156 2.503906 -7.367188 3.265625 -6.984375 C 3.617188 -6.796875 4.375 -6.550781 5.53125 -6.25 C 6.675781 -5.957031 7.507812 -5.628906 8.03125 -5.265625 C 8.757812 -4.753906 9.125 -4.035156 9.125 -3.109375 C 9.125 -1.960938 8.671875 -1.097656 7.765625 -0.515625 C 7.015625 -0.0234375 6.082031 0.21875 4.96875 0.21875 C 2.46875 0.21875 1.015625 -0.734375 0.609375 -2.640625 L 2 -2.640625 C 2.207031 -1.441406 3.195312 -0.84375 4.96875 -0.84375 C 6.238281 -0.84375 7.125 -1.191406 7.625 -1.890625 C 7.820312 -2.171875 7.921875 -2.550781 7.921875 -3.03125 C 7.921875 -3.5 7.738281 -3.878906 7.375 -4.171875 C 6.851562 -4.597656 5.859375 -4.988281 4.390625 -5.34375 Z M 4.390625 -5.34375 "/></g></g></g><g fill="#000000" fill-opacity="1"><g transform="translate(27.895677, 15.942832)"><g><path d="M 8.40625 -3.828125 L 8.40625 -3.21875 L 1.96875 -3.21875 C 2.070312 -2.582031 2.375 -2.066406 2.875 -1.671875 C 3.382812 -1.253906 3.953125 -1.046875 4.578125 -1.046875 C 4.992188 -1.046875 5.398438 -1.144531 5.796875 -1.34375 C 6.171875 -1.53125 6.484375 -1.796875 6.734375 -2.140625 L 8.078125 -2.140625 C 7.765625 -1.441406 7.296875 -0.894531 6.671875 -0.5 C 6.035156 -0.09375 5.398438 0.109375 4.765625 0.109375 C 4.109375 0.109375 3.550781 0.0078125 3.09375 -0.1875 C 2.625 -0.382812 2.21875 -0.65625 1.875 -1 C 1.125 -1.726562 0.75 -2.625 0.75 -3.6875 C 0.75 -4.75 1.125 -5.65625 1.875 -6.40625 C 2.625 -7.144531 3.523438 -7.515625 4.578125 -7.515625 C 5.597656 -7.515625 6.488281 -7.15625 7.25 -6.4375 C 8.019531 -5.707031 8.40625 -4.835938 8.40625 -3.828125 Z M 7.171875 -4.203125 C 7.035156 -4.828125 6.722656 -5.34375 6.234375 -5.75 C 5.753906 -6.15625 5.203125 -6.359375 4.578125 -6.359375 C 3.617188 -6.359375 2.867188 -5.929688 2.328125 -5.078125 C 2.160156 -4.804688 2.046875 -4.515625 1.984375 -4.203125 Z M 7.171875 -4.203125 "/></g></g></g><g fill="#000000" fill-opacity="1"><g transform="translate(36.959643, 15.942832)"><g><path d="M 6.3125 -1.25 C 5.757812 -0.3125 4.941406 0.15625 3.859375 0.15625 C 3.035156 0.15625 2.394531 -0.117188 1.9375 -0.671875 C 1.476562 -1.210938 1.25 -1.90625 1.25 -2.75 L 1.25 -7.328125 L 2.40625 -7.328125 L 2.40625 -2.75 C 2.40625 -2.269531 2.519531 -1.863281 2.75 -1.53125 C 2.957031 -1.1875 3.3125 -1.015625 3.8125 -1.015625 C 4.71875 -1.015625 5.359375 -1.300781 5.734375 -1.875 C 6.117188 -2.445312 6.3125 -3.242188 6.3125 -4.265625 L 6.3125 -7.328125 L 7.46875 -7.328125 L 7.46875 0 L 6.3125 0 Z M 6.3125 -1.25 "/></g></g></g><g fill="#000000" fill-opacity="1"><g transform="translate(45.424894, 15.942832)"><g/></g></g><g clip-path="url(#c735b2a8e3)"><g fill="#000000" fill-opacity="1"><g transform="translate(49.915297, 15.942832)"><g><path d="M 7.171875 -3.65625 C 7.171875 -4.363281 6.925781 -4.988281 6.4375 -5.53125 C 5.9375 -6.0625 5.320312 -6.328125 4.59375 -6.328125 C 3.882812 -6.328125 3.273438 -6.0625 2.765625 -5.53125 C 2.265625 -5.007812 2.015625 -4.382812 2.015625 -3.65625 C 2.015625 -2.9375 2.265625 -2.316406 2.765625 -1.796875 C 3.273438 -1.265625 3.882812 -1 4.59375 -1 C 5.320312 -1 5.9375 -1.265625 6.4375 -1.796875 C 6.925781 -2.328125 7.171875 -2.945312 7.171875 -3.65625 Z M 1.984375 1 C 2.085938 1.457031 2.328125 1.863281 2.703125 2.21875 C 3.210938 2.738281 3.828125 3 4.546875 3 C 5.265625 3 5.882812 2.738281 6.40625 2.21875 C 6.914062 1.707031 7.171875 1.085938 7.171875 0.359375 L 7.171875 -1.234375 C 7.117188 -1.148438 7.054688 -1.070312 6.984375 -1 C 6.285156 -0.21875 5.429688 0.171875 4.421875 0.171875 C 3.398438 0.171875 2.546875 -0.21875 1.859375 -1 C 1.179688 -1.75 0.84375 -2.632812 0.84375 -3.65625 C 0.84375 -4.675781 1.179688 -5.566406 1.859375 -6.328125 C 2.546875 -7.097656 3.398438 -7.484375 4.421875 -7.484375 C 5.398438 -7.484375 6.253906 -7.097656 6.984375 -6.328125 C 7.054688 -6.242188 7.117188 -6.164062 7.171875 -6.09375 L 7.171875 -7.328125 L 8.34375 -7.328125 L 8.34375 0.359375 C 8.34375 1.410156 7.96875 2.304688 7.21875 3.046875 C 6.476562 3.785156 5.585938 4.15625 4.546875 4.15625 C 3.503906 4.15625 2.609375 3.785156 1.859375 3.046875 C 1.273438 2.453125 0.921875 1.769531 0.796875 1 Z M 1.984375 1 "/></g></g></g></g><g fill="#000000" fill-opacity="1"><g transform="translate(59.494832, 15.942832)"><g><path d="M 8.40625 -3.828125 L 8.40625 -3.21875 L 1.96875 -3.21875 C 2.070312 -2.582031 2.375 -2.066406 2.875 -1.671875 C 3.382812 -1.253906 3.953125 -1.046875 4.578125 -1.046875 C 4.992188 -1.046875 5.398438 -1.144531 5.796875 -1.34375 C 6.171875 -1.53125 6.484375 -1.796875 6.734375 -2.140625 L 8.078125 -2.140625 C 7.765625 -1.441406 7.296875 -0.894531 6.671875 -0.5 C 6.035156 -0.09375 5.398438 0.109375 4.765625 0.109375 C 4.109375 0.109375 3.550781 0.0078125 3.09375 -0.1875 C 2.625 -0.382812 2.21875 -0.65625 1.875 -1 C 1.125 -1.726562 0.75 -2.625 0.75 -3.6875 C 0.75 -4.75 1.125 -5.65625 1.875 -6.40625 C 2.625 -7.144531 3.523438 -7.515625 4.578125 -7.515625 C 5.597656 -7.515625 6.488281 -7.15625 7.25 -6.4375 C 8.019531 -5.707031 8.40625 -4.835938 8.40625 -3.828125 Z M 7.171875 -4.203125 C 7.035156 -4.828125 6.722656 -5.34375 6.234375 -5.75 C 5.753906 -6.15625 5.203125 -6.359375 4.578125 -6.359375 C 3.617188 -6.359375 2.867188 -5.929688 2.328125 -5.078125 C 2.160156 -4.804688 2.046875 -4.515625 1.984375 -4.203125 Z M 7.171875 -4.203125 "/></g></g></g><g fill="#000000" fill-opacity="1"><g transform="translate(68.558798, 15.942832)"><g><path d="M 5.015625 -5.8125 C 4.742188 -6.050781 4.453125 -6.171875 4.140625 -6.171875 C 3.835938 -6.171875 3.582031 -6.085938 3.375 -5.921875 C 3.15625 -5.742188 2.972656 -5.535156 2.828125 -5.296875 C 2.546875 -4.804688 2.40625 -4.257812 2.40625 -3.65625 L 2.40625 0 L 1.25 0 L 1.25 -7.328125 L 2.40625 -7.328125 L 2.40625 -5.8125 L 2.46875 -6.109375 C 2.851562 -7.015625 3.457031 -7.46875 4.28125 -7.46875 C 4.53125 -7.46875 4.773438 -7.421875 5.015625 -7.328125 Z M 5.015625 -5.8125 "/></g></g></g><g fill="#000000" fill-opacity="1"><g transform="translate(73.731077, 15.942832)"><g><path d="M 8.40625 -3.828125 L 8.40625 -3.21875 L 1.96875 -3.21875 C 2.070312 -2.582031 2.375 -2.066406 2.875 -1.671875 C 3.382812 -1.253906 3.953125 -1.046875 4.578125 -1.046875 C 4.992188 -1.046875 5.398438 -1.144531 5.796875 -1.34375 C 6.171875 -1.53125 6.484375 -1.796875 6.734375 -2.140625 L 8.078125 -2.140625 C 7.765625 -1.441406 7.296875 -0.894531 6.671875 -0.5 C 6.035156 -0.09375 5.398438 0.109375 4.765625 0.109375 C 4.109375 0.109375 3.550781 0.0078125 3.09375 -0.1875 C 2.625 -0.382812 2.21875 -0.65625 1.875 -1 C 1.125 -1.726562 0.75 -2.625 0.75 -3.6875 C 0.75 -4.75 1.125 -5.65625 1.875 -6.40625 C 2.625 -7.144531 3.523438 -7.515625 4.578125 -7.515625 C 5.597656 -7.515625 6.488281 -7.15625 7.25 -6.4375 C 8.019531 -5.707031 8.40625 -4.835938 8.40625 -3.828125 Z M 7.171875 -4.203125 C 7.035156 -4.828125 6.722656 -5.34375 6.234375 -5.75 C 5.753906 -6.15625 5.203125 -6.359375 4.578125 -6.359375 C 3.617188 -6.359375 2.867188 -5.929688 2.328125 -5.078125 C 2.160156 -4.804688 2.046875 -4.515625 1.984375 -4.203125 Z M 7.171875 -4.203125 "/></g></g></g><g fill="#000000" fill-opacity="1"><g transform="translate(82.795043, 15.942832)"><g><path d="M 6.3125 0 L 6.3125 -4.578125 C 6.3125 -5.054688 6.203125 -5.46875 5.984375 -5.8125 C 5.765625 -6.144531 5.40625 -6.3125 4.90625 -6.3125 C 4.40625 -6.3125 4 -6.21875 3.6875 -6.03125 C 3.382812 -5.832031 3.140625 -5.585938 2.953125 -5.296875 C 2.585938 -4.734375 2.40625 -3.988281 2.40625 -3.0625 L 2.40625 0 L 1.25 0 L 1.25 -7.328125 L 2.40625 -7.328125 L 2.40625 -6.0625 C 2.65625 -6.46875 2.96875 -6.804688 3.34375 -7.078125 C 3.738281 -7.335938 4.195312 -7.46875 4.71875 -7.46875 C 5.25 -7.46875 5.671875 -7.394531 5.984375 -7.25 C 6.304688 -7.09375 6.582031 -6.890625 6.8125 -6.640625 C 7.25 -6.117188 7.46875 -5.429688 7.46875 -4.578125 L 7.46875 0 Z M 6.3125 0 "/></g></g></g><g fill="#000000" fill-opacity="1"><g transform="translate(91.260294, 15.942832)"><g><path d="M 8.09375 -4.6875 L 6.828125 -4.6875 C 6.617188 -5.15625 6.304688 -5.535156 5.890625 -5.828125 C 5.472656 -6.109375 5.046875 -6.25 4.609375 -6.25 C 4.171875 -6.25 3.800781 -6.1875 3.5 -6.0625 C 3.1875 -5.914062 2.921875 -5.722656 2.703125 -5.484375 C 2.203125 -4.960938 1.953125 -4.351562 1.953125 -3.65625 C 1.953125 -2.945312 2.203125 -2.335938 2.703125 -1.828125 C 3.179688 -1.304688 3.78125 -1.046875 4.5 -1.046875 C 4.957031 -1.046875 5.390625 -1.171875 5.796875 -1.421875 C 6.179688 -1.660156 6.484375 -1.984375 6.703125 -2.390625 L 8.015625 -2.390625 C 7.609375 -1.210938 6.816406 -0.425781 5.640625 -0.03125 C 5.273438 0.101562 4.859375 0.171875 4.390625 0.171875 C 3.921875 0.171875 3.460938 0.0625 3.015625 -0.15625 C 2.554688 -0.351562 2.160156 -0.628906 1.828125 -0.984375 C 1.109375 -1.734375 0.75 -2.625 0.75 -3.65625 C 0.75 -4.695312 1.109375 -5.59375 1.828125 -6.34375 C 2.554688 -7.09375 3.445312 -7.46875 4.5 -7.46875 C 5.332031 -7.46875 6.085938 -7.207031 6.765625 -6.6875 C 7.410156 -6.1875 7.851562 -5.519531 8.09375 -4.6875 Z M 8.09375 -4.6875 "/></g></g></g><g fill="#000000" fill-opacity="1"><g transform="translate(99.925121, 15.942832)"><g><path d="M 2.421875 -9.84375 C 2.566406 -9.707031 2.640625 -9.535156 2.640625 -9.328125 C 2.640625 -9.117188 2.566406 -8.941406 2.421875 -8.796875 C 2.285156 -8.660156 2.113281 -8.59375 1.90625 -8.59375 C 1.695312 -8.59375 1.519531 -8.660156 1.375 -8.796875 C 1.238281 -8.941406 1.171875 -9.117188 1.171875 -9.328125 C 1.171875 -9.535156 1.238281 -9.707031 1.375 -9.84375 C 1.519531 -9.988281 1.695312 -10.0625 1.90625 -10.0625 C 2.113281 -10.0625 2.285156 -9.988281 2.421875 -9.84375 Z M 2.5 0 L 1.328125 0 L 1.328125 -7.328125 L 2.5 -7.328125 Z M 2.5 0 "/></g></g></g><g fill="#000000" fill-opacity="1"><g transform="translate(103.733649, 15.942832)"><g><path d="M 7.078125 -3.65625 C 7.078125 -4.363281 6.832031 -4.988281 6.34375 -5.53125 C 5.84375 -6.0625 5.226562 -6.328125 4.5 -6.328125 C 3.757812 -6.328125 3.144531 -6.0625 2.65625 -5.53125 C 2.15625 -4.988281 1.90625 -4.363281 1.90625 -3.65625 C 1.90625 -2.945312 2.15625 -2.328125 2.65625 -1.796875 C 3.144531 -1.265625 3.757812 -1 4.5 -1 C 5.226562 -1 5.84375 -1.265625 6.34375 -1.796875 C 6.832031 -2.328125 7.078125 -2.945312 7.078125 -3.65625 Z M 8.234375 0 L 7.078125 0 L 7.078125 -1.25 C 7.003906 -1.15625 6.9375 -1.070312 6.875 -1 C 6.175781 -0.21875 5.320312 0.171875 4.3125 0.171875 C 3.300781 0.171875 2.453125 -0.21875 1.765625 -1 C 1.085938 -1.75 0.75 -2.632812 0.75 -3.65625 C 0.75 -4.675781 1.085938 -5.566406 1.765625 -6.328125 C 2.453125 -7.097656 3.300781 -7.484375 4.3125 -7.484375 C 5.320312 -7.484375 6.175781 -7.097656 6.875 -6.328125 C 6.9375 -6.242188 7.003906 -6.160156 7.078125 -6.078125 L 7.078125 -7.328125 L 8.234375 -7.328125 Z M 8.234375 0 "/></g></g></g><g fill="#000000" fill-opacity="1"><g transform="translate(113.213402, 15.942832)"><g><path d="M 7.078125 -3.65625 C 7.078125 -4.363281 6.832031 -4.988281 6.34375 -5.53125 C 5.84375 -6.0625 5.226562 -6.328125 4.5 -6.328125 C 3.757812 -6.328125 3.144531 -6.0625 2.65625 -5.53125 C 2.15625 -4.988281 1.90625 -4.363281 1.90625 -3.65625 C 1.90625 -2.945312 2.15625 -2.328125 2.65625 -1.796875 C 3.144531 -1.265625 3.757812 -1 4.5 -1 C 5.226562 -1 5.84375 -1.265625 6.34375 -1.796875 C 6.832031 -2.328125 7.078125 -2.945312 7.078125 -3.65625 Z M 8.234375 0 L 7.078125 0 L 7.078125 -1.25 C 7.003906 -1.15625 6.9375 -1.070312 6.875 -1 C 6.175781 -0.21875 5.320312 0.171875 4.3125 0.171875 C 3.300781 0.171875 2.453125 -0.21875 1.765625 -1 C 1.085938 -1.75 0.75 -2.632812 0.75 -3.65625 C 0.75 -4.675781 1.085938 -5.566406 1.765625 -6.328125 C 2.453125 -7.097656 3.300781 -7.484375 4.3125 -7.484375 C 5.320312 -7.484375 6.175781 -7.097656 6.875 -6.328125 C 6.9375 -6.242188 7.003906 -6.160156 7.078125 -6.078125 L 7.078125 -12.484375 L 8.234375 -12.484375 Z M 8.234375 0 "/></g></g></g><g fill="#000000" fill-opacity="1"><g transform="translate(122.693154, 15.942832)"><g><path d="M 7.234375 -3.6875 C 7.234375 -4.425781 6.972656 -5.054688 6.453125 -5.578125 C 5.929688 -6.097656 5.304688 -6.359375 4.578125 -6.359375 C 3.847656 -6.359375 3.222656 -6.097656 2.703125 -5.578125 C 2.171875 -5.054688 1.90625 -4.425781 1.90625 -3.6875 C 1.90625 -2.96875 2.171875 -2.347656 2.703125 -1.828125 C 3.222656 -1.304688 3.847656 -1.046875 4.578125 -1.046875 C 5.304688 -1.046875 5.929688 -1.304688 6.453125 -1.828125 C 6.972656 -2.347656 7.234375 -2.96875 7.234375 -3.6875 Z M 8.40625 -3.6875 C 8.40625 -2.625 8.03125 -1.726562 7.28125 -1 C 6.519531 -0.257812 5.617188 0.109375 4.578125 0.109375 C 3.535156 0.109375 2.632812 -0.257812 1.875 -1 C 1.125 -1.726562 0.75 -2.625 0.75 -3.6875 C 0.75 -4.75 1.125 -5.65625 1.875 -6.40625 C 2.625 -7.144531 3.523438 -7.515625 4.578125 -7.515625 C 5.628906 -7.515625 6.53125 -7.144531 7.28125 -6.40625 C 8.03125 -5.65625 8.40625 -4.75 8.40625 -3.6875 Z M 8.40625 -3.6875 "/></g></g></g><g fill="#000000" fill-opacity="1"><g transform="translate(131.840281, 15.942832)"><g><path d="M 5.015625 -5.8125 C 4.742188 -6.050781 4.453125 -6.171875 4.140625 -6.171875 C 3.835938 -6.171875 3.582031 -6.085938 3.375 -5.921875 C 3.15625 -5.742188 2.972656 -5.535156 2.828125 -5.296875 C 2.546875 -4.804688 2.40625 -4.257812 2.40625 -3.65625 L 2.40625 0 L 1.25 0 L 1.25 -7.328125 L 2.40625 -7.328125 L 2.40625 -5.8125 L 2.46875 -6.109375 C 2.851562 -7.015625 3.457031 -7.46875 4.28125 -7.46875 C 4.53125 -7.46875 4.773438 -7.421875 5.015625 -7.328125 Z M 5.015625 -5.8125 "/></g></g></g><g fill="#000000" fill-opacity="1"><g transform="translate(137.012559, 15.942832)"><g/></g></g><g fill="#000000" fill-opacity="1"><g transform="translate(141.502962, 15.942832)"><g><path d="M 7.078125 -3.65625 C 7.078125 -4.363281 6.832031 -4.988281 6.34375 -5.53125 C 5.84375 -6.0625 5.226562 -6.328125 4.5 -6.328125 C 3.757812 -6.328125 3.144531 -6.0625 2.65625 -5.53125 C 2.15625 -4.988281 1.90625 -4.363281 1.90625 -3.65625 C 1.90625 -2.945312 2.15625 -2.328125 2.65625 -1.796875 C 3.144531 -1.265625 3.757812 -1 4.5 -1 C 5.226562 -1 5.84375 -1.265625 6.34375 -1.796875 C 6.832031 -2.328125 7.078125 -2.945312 7.078125 -3.65625 Z M 8.234375 0 L 7.078125 0 L 7.078125 -1.25 C 7.003906 -1.15625 6.9375 -1.070312 6.875 -1 C 6.175781 -0.21875 5.320312 0.171875 4.3125 0.171875 C 3.300781 0.171875 2.453125 -0.21875 1.765625 -1 C 1.085938 -1.75 0.75 -2.632812 0.75 -3.65625 C 0.75 -4.675781 1.085938 -5.566406 1.765625 -6.328125 C 2.453125 -7.097656 3.300781 -7.484375 4.3125 -7.484375 C 5.320312 -7.484375 6.175781 -7.097656 6.875 -6.328125 C 6.9375 -6.242188 7.003906 -6.160156 7.078125 -6.078125 L 7.078125 -12.484375 L 8.234375 -12.484375 Z M 8.234375 0 "/></g></g></g><g fill="#000000" fill-opacity="1"><g transform="translate(150.982715, 15.942832)"><g><path d="M 8.40625 -3.828125 L 8.40625 -3.21875 L 1.96875 -3.21875 C 2.070312 -2.582031 2.375 -2.066406 2.875 -1.671875 C 3.382812 -1.253906 3.953125 -1.046875 4.578125 -1.046875 C 4.992188 -1.046875 5.398438 -1.144531 5.796875 -1.34375 C 6.171875 -1.53125 6.484375 -1.796875 6.734375 -2.140625 L 8.078125 -2.140625 C 7.765625 -1.441406 7.296875 -0.894531 6.671875 -0.5 C 6.035156 -0.09375 5.398438 0.109375 4.765625 0.109375 C 4.109375 0.109375 3.550781 0.0078125 3.09375 -0.1875 C 2.625 -0.382812 2.21875 -0.65625 1.875 -1 C 1.125 -1.726562 0.75 -2.625 0.75 -3.6875 C 0.75 -4.75 1.125 -5.65625 1.875 -6.40625 C 2.625 -7.144531 3.523438 -7.515625 4.578125 -7.515625 C 5.597656 -7.515625 6.488281 -7.15625 7.25 -6.4375 C 8.019531 -5.707031 8.40625 -4.835938 8.40625 -3.828125 Z M 7.171875 -4.203125 C 7.035156 -4.828125 6.722656 -5.34375 6.234375 -5.75 C 5.753906 -6.15625 5.203125 -6.359375 4.578125 -6.359375 C 3.617188 -6.359375 2.867188 -5.929688 2.328125 -5.078125 C 2.160156 -4.804688 2.046875 -4.515625 1.984375 -4.203125 Z M 7.171875 -4.203125 "/></g></g></g><g fill="#000000" fill-opacity="1"><g transform="translate(160.046682, 15.942832)"><g/></g></g><g fill="#000000" fill-opacity="1"><g transform="translate(164.537085, 15.942832)"><g><path d="M 8.09375 -4.6875 L 6.828125 -4.6875 C 6.617188 -5.15625 6.304688 -5.535156 5.890625 -5.828125 C 5.472656 -6.109375 5.046875 -6.25 4.609375 -6.25 C 4.171875 -6.25 3.800781 -6.1875 3.5 -6.0625 C 3.1875 -5.914062 2.921875 -5.722656 2.703125 -5.484375 C 2.203125 -4.960938 1.953125 -4.351562 1.953125 -3.65625 C 1.953125 -2.945312 2.203125 -2.335938 2.703125 -1.828125 C 3.179688 -1.304688 3.78125 -1.046875 4.5 -1.046875 C 4.957031 -1.046875 5.390625 -1.171875 5.796875 -1.421875 C 6.179688 -1.660156 6.484375 -1.984375 6.703125 -2.390625 L 8.015625 -2.390625 C 7.609375 -1.210938 6.816406 -0.425781 5.640625 -0.03125 C 5.273438 0.101562 4.859375 0.171875 4.390625 0.171875 C 3.921875 0.171875 3.460938 0.0625 3.015625 -0.15625 C 2.554688 -0.351562 2.160156 -0.628906 1.828125 -0.984375 C 1.109375 -1.734375 0.75 -2.625 0.75 -3.65625 C 0.75 -4.695312 1.109375 -5.59375 1.828125 -6.34375 C 2.554688 -7.09375 3.445312 -7.46875 4.5 -7.46875 C 5.332031 -7.46875 6.085938 -7.207031 6.765625 -6.6875 C 7.410156 -6.1875 7.851562 -5.519531 8.09375 -4.6875 Z M 8.09375 -4.6875 "/></g></g></g><g fill="#000000" fill-opacity="1"><g transform="translate(173.201912, 15.942832)"><g><path d="M 7.234375 -3.6875 C 7.234375 -4.425781 6.972656 -5.054688 6.453125 -5.578125 C 5.929688 -6.097656 5.304688 -6.359375 4.578125 -6.359375 C 3.847656 -6.359375 3.222656 -6.097656 2.703125 -5.578125 C 2.171875 -5.054688 1.90625 -4.425781 1.90625 -3.6875 C 1.90625 -2.96875 2.171875 -2.347656 2.703125 -1.828125 C 3.222656 -1.304688 3.847656 -1.046875 4.578125 -1.046875 C 5.304688 -1.046875 5.929688 -1.304688 6.453125 -1.828125 C 6.972656 -2.347656 7.234375 -2.96875 7.234375 -3.6875 Z M 8.40625 -3.6875 C 8.40625 -2.625 8.03125 -1.726562 7.28125 -1 C 6.519531 -0.257812 5.617188 0.109375 4.578125 0.109375 C 3.535156 0.109375 2.632812 -0.257812 1.875 -1 C 1.125 -1.726562 0.75 -2.625 0.75 -3.6875 C 0.75 -4.75 1.125 -5.65625 1.875 -6.40625 C 2.625 -7.144531 3.523438 -7.515625 4.578125 -7.515625 C 5.628906 -7.515625 6.53125 -7.144531 7.28125 -6.40625 C 8.03125 -5.65625 8.40625 -4.75 8.40625 -3.6875 Z M 8.40625 -3.6875 "/></g></g></g><g fill="#000000" fill-opacity="1"><g transform="translate(182.349038, 15.942832)"><g><path d="M 6.3125 0 L 6.3125 -4.578125 C 6.3125 -5.054688 6.203125 -5.46875 5.984375 -5.8125 C 5.765625 -6.144531 5.40625 -6.3125 4.90625 -6.3125 C 4.40625 -6.3125 4 -6.21875 3.6875 -6.03125 C 3.382812 -5.832031 3.140625 -5.585938 2.953125 -5.296875 C 2.585938 -4.734375 2.40625 -3.988281 2.40625 -3.0625 L 2.40625 0 L 1.25 0 L 1.25 -7.328125 L 2.40625 -7.328125 L 2.40625 -6.0625 C 2.65625 -6.46875 2.96875 -6.804688 3.34375 -7.078125 C 3.738281 -7.335938 4.195312 -7.46875 4.71875 -7.46875 C 5.25 -7.46875 5.671875 -7.394531 5.984375 -7.25 C 6.304688 -7.09375 6.582031 -6.890625 6.8125 -6.640625 C 7.25 -6.117188 7.46875 -5.429688 7.46875 -4.578125 L 7.46875 0 Z M 6.3125 0 "/></g></g></g><g fill="#000000" fill-opacity="1"><g transform="translate(190.814289, 15.942832)"><g><path d="M 0.328125 -6.234375 L 0.328125 -7.328125 L 2.15625 -7.328125 L 2.15625 -10.171875 L 3.328125 -10.171875 L 3.328125 -7.328125 L 5.140625 -7.328125 L 5.140625 -6.234375 L 3.328125 -6.234375 L 3.328125 0 L 2.15625 0 L 2.15625 -6.234375 Z M 0.328125 -6.234375 "/></g></g></g><g fill="#000000" fill-opacity="1"><g transform="translate(196.285937, 15.942832)"><g><path d="M 7.078125 -3.65625 C 7.078125 -4.363281 6.832031 -4.988281 6.34375 -5.53125 C 5.84375 -6.0625 5.226562 -6.328125 4.5 -6.328125 C 3.757812 -6.328125 3.144531 -6.0625 2.65625 -5.53125 C 2.15625 -4.988281 1.90625 -4.363281 1.90625 -3.65625 C 1.90625 -2.945312 2.15625 -2.328125 2.65625 -1.796875 C 3.144531 -1.265625 3.757812 -1 4.5 -1 C 5.226562 -1 5.84375 -1.265625 6.34375 -1.796875 C 6.832031 -2.328125 7.078125 -2.945312 7.078125 -3.65625 Z M 8.234375 0 L 7.078125 0 L 7.078125 -1.25 C 7.003906 -1.15625 6.9375 -1.070312 6.875 -1 C 6.175781 -0.21875 5.320312 0.171875 4.3125 0.171875 C 3.300781 0.171875 2.453125 -0.21875 1.765625 -1 C 1.085938 -1.75 0.75 -2.632812 0.75 -3.65625 C 0.75 -4.675781 1.085938 -5.566406 1.765625 -6.328125 C 2.453125 -7.097656 3.300781 -7.484375 4.3125 -7.484375 C 5.320312 -7.484375 6.175781 -7.097656 6.875 -6.328125 C 6.9375 -6.242188 7.003906 -6.160156 7.078125 -6.078125 L 7.078125 -7.328125 L 8.234375 -7.328125 Z M 8.234375 0 "/></g></g></g><g fill="#000000" fill-opacity="1"><g transform="translate(205.76569, 15.942832)"><g><path d="M 2.3125 -1.046875 C 2.601562 -0.847656 2.976562 -0.75 3.4375 -0.75 C 4.507812 -0.75 5.046875 -1.148438 5.046875 -1.953125 C 5.046875 -2.410156 4.660156 -2.765625 3.890625 -3.015625 C 3.566406 -3.117188 3.222656 -3.21875 2.859375 -3.3125 C 2.484375 -3.394531 2.132812 -3.507812 1.8125 -3.65625 C 1.4375 -3.832031 1.15625 -4.054688 0.96875 -4.328125 C 0.78125 -4.585938 0.6875 -4.90625 0.6875 -5.28125 C 0.6875 -6.007812 0.941406 -6.554688 1.453125 -6.921875 C 1.960938 -7.296875 2.570312 -7.484375 3.28125 -7.484375 C 3.988281 -7.484375 4.578125 -7.34375 5.046875 -7.0625 C 5.503906 -6.769531 5.816406 -6.253906 5.984375 -5.515625 L 4.75 -5.515625 C 4.613281 -5.921875 4.414062 -6.191406 4.15625 -6.328125 C 3.914062 -6.453125 3.613281 -6.515625 3.25 -6.515625 C 2.882812 -6.515625 2.570312 -6.441406 2.3125 -6.296875 C 2.039062 -6.128906 1.90625 -5.882812 1.90625 -5.5625 C 1.90625 -5.226562 2.019531 -4.984375 2.25 -4.828125 C 2.457031 -4.679688 2.722656 -4.550781 3.046875 -4.4375 C 3.367188 -4.34375 3.71875 -4.253906 4.09375 -4.171875 C 4.457031 -4.085938 4.804688 -3.96875 5.140625 -3.8125 C 5.898438 -3.457031 6.28125 -2.882812 6.28125 -2.09375 C 6.28125 -1.3125 5.992188 -0.726562 5.421875 -0.34375 C 5.140625 -0.15625 4.820312 -0.015625 4.46875 0.078125 C 4.144531 0.171875 3.78125 0.21875 3.375 0.21875 C 1.675781 0.21875 0.703125 -0.535156 0.453125 -2.046875 L 1.6875 -2.046875 C 1.800781 -1.566406 2.007812 -1.234375 2.3125 -1.046875 Z M 2.3125 -1.046875 "/></g></g></g></g></g></svg>