<svg xmlns="http://www.w3.org/2000/svg" xmlns:xlink="http://www.w3.org/1999/xlink" width="500" zoomAndPan="magnify" viewBox="0 0 375 374.999991" height="500" preserveAspectRatio="xMidYMid meet" version="1.0"><defs><clipPath id="702cdf924e"><path d="M 13 37.5 L 362 37.5 L 362 322 L 13 322 Z M 13 37.5 " clip-rule="nonzero"/></clipPath></defs><path fill="#000000" d="M 330.734375 210.382812 L 332.097656 248.179688 L 323.585938 251.535156 C 316.304688 254.378906 314.710938 256.195312 312.472656 263.992188 C 311.023438 269.019531 309.015625 274.238281 308.007812 275.582031 C 306.996094 276.929688 297.984375 278.601562 287.964844 279.292969 C 277.945312 280.023438 264.09375 281.023438 257.207031 281.582031 C 250.28125 282.109375 221.730469 283.984375 193.726562 285.683594 C 165.722656 287.414062 136.414062 289.425781 128.574219 290.15625 L 114.308594 291.492188 L 111.261719 282.300781 C 108.421875 273.757812 107.601562 273.027344 99.429688 271.941406 C 94.625 271.265625 89.820312 269.84375 88.824219 268.789062 C 87.785156 267.730469 85.835938 246.582031 84.5 221.804688 C 83.136719 197.023438 81.984375 176.269531 81.964844 175.714844 C 81.714844 171.578125 83.328125 169.820312 90.339844 166.714844 C 96.125 164.179688 98.996094 161.1875 100.976562 155.710938 C 104.210938 146.742188 107.652344 145.261719 129.507812 143.417969 C 138.71875 142.636719 153.320312 141.101562 161.949219 140.003906 C 177.808594 138.023438 286.957031 129.613281 296.804688 129.613281 C 300.820312 129.613281 303.085938 131.488281 306.046875 137.265625 C 308.976562 142.9375 312.359375 145.78125 319.199219 148.328125 C 329.773438 152.238281 328.351562 144.503906 330.753906 210.363281 Z M 309.628906 241.777344 C 314.152344 239.433594 317.757812 237.027344 317.640625 236.472656 C 317.527344 235.886719 316.71875 221.753906 315.855469 205.050781 C 314.988281 188.34375 313.980469 172.308594 313.644531 169.4375 C 313.308594 166.5625 312.945312 163.488281 312.867188 162.621094 C 312.75 161.757812 310.492188 161.054688 307.785156 161.054688 C 304.460938 161.054688 301.28125 158.566406 297.792969 153.203125 L 292.683594 145.328125 L 277.023438 145.886719 C 268.425781 146.222656 250.558594 147.367188 237.300781 148.453125 C 226.609375 149.347656 211.902344 150.460938 201.210938 151.222656 C 198.671875 151.382812 196.378906 151.527344 194.398438 151.664062 C 170.890625 153.203125 159.113281 154.289062 137.921875 156.882812 C 128.738281 158.027344 120.109375 158.949219 118.746094 158.949219 C 117.382812 158.949219 115.316406 161.765625 114.085938 165.234375 C 112.859375 168.8125 108.726562 173.414062 104.511719 175.90625 L 97.113281 180.257812 L 98.199219 199.445312 C 98.785156 210 99.679688 225.253906 100.175781 233.300781 C 100.675781 241.375 101.128906 250.082031 101.15625 252.6875 C 101.214844 256.398438 102.445312 257.40625 106.988281 257.464844 C 114.195312 257.550781 118.429688 260.761719 122.984375 269.527344 L 126.558594 276.457031 L 144.761719 275.167969 C 154.78125 274.46875 173.179688 273.101562 185.628906 272.121094 C 198.105469 271.140625 208.800781 269.863281 209.414062 269.25 C 210.027344 268.632812 209.722656 266.902344 208.800781 265.394531 C 207.847656 263.886719 207.039062 261.230469 207.011719 259.503906 C 206.984375 257.523438 204.496094 256.117188 200.363281 255.707031 C 191.765625 254.867188 177.414062 242.746094 179.289062 237.882812 C 181.101562 233.164062 186.261719 233.445312 192.773438 238.558594 C 201.371094 245.316406 203.804688 244.035156 203.773438 232.800781 C 203.746094 220.429688 202.515625 218.527344 193.332031 216.574219 C 182.332031 214.230469 178.625 211.664062 175.609375 204.339844 C 169.355469 189.054688 180.441406 167.886719 195.261719 166.773438 C 197.855469 166.582031 198.691406 165.265625 197.972656 162.496094 C 197.414062 160.3125 198.191406 157.71875 199.730469 156.765625 C 200.289062 156.429688 200.929688 156.238281 201.605469 156.152344 C 205.207031 155.730469 210.085938 158.671875 210.085938 161.9375 C 210.085938 163.535156 213.382812 165.371094 217.65625 166.1875 C 226.398438 167.832031 235.746094 176.105469 233.988281 180.652344 C 231.980469 185.902344 227.207031 186.238281 219.53125 181.710938 C 211.210938 176.800781 210.960938 177.300781 213.523438 192.878906 C 214.726562 200.253906 215.3125 200.734375 224.4375 202.097656 C 243.054688 204.894531 250.539062 219.46875 242.027344 236.394531 C 238.953125 242.507812 229.605469 250.917969 222.882812 253.570312 C 221.988281 253.964844 220.703125 257.617188 220.039062 261.730469 C 219.085938 267.875 219.480469 269.164062 222.324219 268.882812 C 232.34375 267.875 263.441406 265.558594 277.9375 264.777344 C 287.035156 264.277344 295.21875 263.136719 296.113281 262.210938 C 297.007812 261.289062 298.542969 257.273438 299.570312 253.300781 C 300.933594 247.851562 303.453125 244.976562 309.648438 241.765625 Z M 228.394531 231.019531 C 231.941406 223.589844 231.941406 223.398438 227.082031 219.488281 C 217.367188 211.613281 215.023438 214.429688 217.703125 230.714844 C 219.375 240.710938 223.738281 240.855469 228.394531 231.019531 Z M 191.238281 198.761719 C 197.714844 205.242188 199.613281 203.847656 199.613281 192.59375 C 199.613281 180.105469 197.242188 178.011719 191.410156 185.410156 C 186.023438 192.253906 186.023438 193.515625 191.246094 198.761719 Z M 191.238281 198.761719 " fill-opacity="1" fill-rule="nonzero"/><g clip-path="url(#702cdf924e)"><path fill="#000000" d="M 239.28125 114.964844 C 240.511719 114.964844 241.488281 114.011719 241.488281 112.867188 C 241.488281 111.726562 241.066406 110.773438 240.566406 110.773438 C 240.066406 110.773438 239.058594 111.726562 238.359375 112.867188 C 237.628906 114.011719 238.050781 114.964844 239.28125 114.964844 Z M 222.140625 108.484375 C 238.53125 107.121094 251.960938 105.410156 251.960938 104.71875 C 251.933594 104.015625 248.695312 101.226562 244.699219 98.519531 L 237.492188 93.605469 L 214.351562 101.152344 C 201.621094 105.285156 189.335938 108.695312 187.050781 108.695312 C 184.761719 108.695312 182.859375 109.503906 182.859375 110.484375 C 182.859375 111.464844 184.984375 111.992188 187.578125 111.65625 C 190.171875 111.292969 205.726562 109.871094 222.140625 108.503906 Z M 264.515625 120.222656 C 257.035156 120.78125 243.863281 121.703125 235.207031 122.289062 C 199.894531 124.71875 187.300781 125.71875 171.363281 127.507812 C 162.148438 128.546875 143.3125 129.941406 129.488281 130.632812 C 115.671875 131.332031 98.027344 132.890625 90.292969 134.09375 C 76.304688 136.246094 76.199219 136.304688 74.796875 143.867188 C 74.019531 148.03125 71.644531 152.921875 69.550781 154.679688 C 66.121094 157.613281 65.921875 159.871094 67.601562 179.902344 C 68.640625 191.996094 70.03125 213.199219 70.722656 227.023438 C 71.414062 240.84375 72.65625 260.65625 73.492188 271.015625 C 74.296875 281.40625 74.96875 293.472656 75 297.863281 L 75.054688 305.851562 L 95.988281 304.648438 C 107.488281 304.007812 131.523438 302.527344 149.363281 301.382812 C 167.230469 300.265625 186.550781 298.863281 192.292969 298.277344 C 198.050781 297.71875 213.121094 296.652344 225.792969 295.933594 C 238.464844 295.210938 251.644531 294.363281 255.101562 294.085938 C 258.5625 293.808594 270.789062 292.941406 282.316406 292.183594 C 311.773438 290.230469 343.984375 286.511719 344.875 284.917969 C 345.269531 284.1875 344.816406 267.566406 343.867188 247.957031 C 342.917969 228.378906 341.636719 198.214844 341.050781 180.921875 C 340.4375 163.660156 339.382812 142.234375 338.652344 133.351562 C 337.285156 116.03125 335.691406 113.964844 325.277344 115.984375 C 322.433594 116.539062 310.648438 117.492188 299.089844 118.078125 C 287.5625 118.695312 271.980469 119.644531 264.507812 120.203125 Z M 357.644531 190.382812 C 359.738281 219.121094 361.773438 277.582031 361.160156 290.347656 C 360.601562 302.132812 356.472656 303.257812 301.972656 306.660156 C 275.035156 308.332031 248.761719 310.175781 243.574219 310.734375 C 238.40625 311.261719 210.605469 313.195312 181.824219 314.953125 C 153.011719 316.742188 124.289062 318.617188 117.949219 319.144531 C 84.921875 321.855469 68.515625 322.414062 66.449219 320.90625 C 61.730469 317.445312 59.472656 309.925781 59.167969 296.941406 C 58.886719 284.0625 56.015625 270.96875 45.738281 235.40625 C 24.632812 162.507812 12.960938 118.761719 13.96875 116.195312 C 14.613281 114.523438 20.617188 111.5625 27.28125 109.628906 C 40.875 105.660156 71.222656 96.085938 94.808594 88.289062 C 103.375 85.472656 111.867188 82.839844 113.675781 82.503906 C 115.492188 82.140625 127.796875 78.5625 141.035156 74.546875 C 181.679688 62.175781 196.078125 58.042969 205.878906 55.992188 C 211.066406 54.90625 216.792969 53.195312 218.636719 52.226562 C 224.832031 48.8125 265.199219 37.453125 271 37.453125 C 276.804688 37.453125 283.507812 44.382812 285.988281 53.148438 C 286.632812 55.464844 289.089844 62.53125 291.464844 68.875 C 293.835938 75.21875 297.4375 84.992188 299.503906 90.605469 L 303.242188 100.835938 L 325.402344 100.441406 C 341.457031 100.191406 348.152344 100.835938 349.746094 102.816406 C 352.820312 106.609375 354.214844 117.925781 355.53125 149.519531 C 356.144531 164.515625 357.09375 182.902344 357.625 190.382812 Z M 277.464844 102.507812 C 281.847656 101.527344 284.191406 99.910156 283.808594 98.007812 C 282.972656 94.125 274.535156 72.621094 272.75 69.914062 C 272 68.769531 270.742188 65.136719 269.953125 61.839844 C 268.195312 54.550781 267.726562 54.601562 231.007812 65.632812 C 216.628906 69.988281 196.839844 75.6875 187.039062 78.371094 C 177.269531 81.023438 161.773438 85.65625 152.648438 88.644531 C 143.523438 91.636719 133.523438 94.507812 130.484375 95.066406 C 127.410156 95.597656 110.859375 100.652344 93.691406 106.324219 C 76.527344 111.964844 56.507812 118.25 49.195312 120.289062 C 41.914062 122.328125 35.429688 125.257812 34.84375 126.796875 C 34.257812 128.335938 36.660156 140.675781 40.175781 154.230469 C 43.691406 167.773438 47.714844 184.257812 49.109375 190.898438 C 50.5 197.523438 52.011719 202.933594 52.492188 202.933594 C 52.972656 202.933594 52.710938 192.324219 51.933594 179.355469 C 50.617188 157.488281 50.820312 155.394531 54.835938 150.308594 C 57.234375 147.320312 60.078125 140.867188 61.175781 136.035156 C 63.152344 127.238281 68.015625 121.566406 73.988281 121.117188 C 75.71875 121 79.015625 120.558594 81.328125 120.105469 C 83.617188 119.683594 95.171875 118.347656 106.988281 117.175781 C 127.757812 115.078125 152.832031 107.621094 207.992188 87.175781 C 215.476562 84.40625 225.996094 80.945312 231.355469 79.464844 C 237.828125 77.679688 245.367188 79.707031 253.96875 85.550781 C 261.058594 90.355469 267.675781 96.46875 268.675781 99.125 C 270.269531 103.34375 271.441406 103.785156 277.464844 102.476562 Z M 277.464844 102.507812 " fill-opacity="1" fill-rule="nonzero"/></g></svg>