<svg xmlns="http://www.w3.org/2000/svg" xmlns:xlink="http://www.w3.org/1999/xlink" width="500" zoomAndPan="magnify" viewBox="0 0 375 374.999991" height="500" preserveAspectRatio="xMidYMid meet" version="1.0"><defs><clipPath id="ec4cc4f609"><path d="M 102 37.5 L 133 37.5 L 133 105 L 102 105 Z M 102 37.5 " clip-rule="nonzero"/></clipPath><clipPath id="d57cdf4b6c"><path d="M 39 76 L 333 76 L 333 341.25 L 39 341.25 Z M 39 76 " clip-rule="nonzero"/></clipPath><clipPath id="789c1438d6"><path d="M 239 37.5 L 270 37.5 L 270 105 L 239 105 Z M 239 37.5 " clip-rule="nonzero"/></clipPath></defs><path fill="#000000" d="M 130.855469 192.40625 L 109.707031 192.40625 C 105.011719 192.40625 101.203125 196.207031 101.203125 200.894531 L 101.203125 222.007812 C 101.203125 226.699219 105.011719 230.496094 109.707031 230.496094 L 130.855469 230.496094 C 135.550781 230.496094 139.359375 226.699219 139.359375 222.007812 L 139.359375 200.894531 C 139.359375 196.207031 135.550781 192.40625 130.855469 192.40625 Z M 130.855469 192.40625 " fill-opacity="1" fill-rule="nonzero"/><path fill="#000000" d="M 130.855469 253.347656 L 109.707031 253.347656 C 105.011719 253.347656 101.203125 257.148438 101.203125 261.839844 L 101.203125 282.953125 C 101.203125 287.640625 105.011719 291.441406 109.707031 291.441406 L 130.855469 291.441406 C 135.550781 291.441406 139.359375 287.640625 139.359375 282.953125 L 139.359375 261.839844 C 139.359375 257.140625 135.550781 253.347656 130.855469 253.347656 Z M 130.855469 253.347656 " fill-opacity="1" fill-rule="nonzero"/><path fill="#000000" d="M 196.742188 192.40625 L 175.59375 192.40625 C 170.898438 192.40625 167.089844 196.207031 167.089844 200.894531 L 167.089844 222.007812 C 167.089844 226.699219 170.898438 230.496094 175.59375 230.496094 L 196.742188 230.496094 C 201.4375 230.496094 205.246094 226.699219 205.246094 222.007812 L 205.246094 200.894531 C 205.246094 196.207031 201.4375 192.40625 196.742188 192.40625 Z M 196.742188 192.40625 " fill-opacity="1" fill-rule="nonzero"/><path fill="#000000" d="M 196.742188 253.347656 L 175.59375 253.347656 C 170.898438 253.347656 167.089844 257.148438 167.089844 261.839844 L 167.089844 282.953125 C 167.089844 287.640625 170.898438 291.441406 175.59375 291.441406 L 196.742188 291.441406 C 201.4375 291.441406 205.246094 287.640625 205.246094 282.953125 L 205.246094 261.839844 C 205.246094 257.140625 201.4375 253.347656 196.742188 253.347656 Z M 196.742188 253.347656 " fill-opacity="1" fill-rule="nonzero"/><path fill="#000000" d="M 262.628906 192.40625 L 241.480469 192.40625 C 236.785156 192.40625 232.976562 196.207031 232.976562 200.894531 L 232.976562 222.007812 C 232.976562 226.699219 236.785156 230.496094 241.480469 230.496094 L 262.628906 230.496094 C 267.324219 230.496094 271.128906 226.699219 271.128906 222.007812 L 271.128906 200.894531 C 271.128906 196.207031 267.324219 192.40625 262.628906 192.40625 Z M 262.628906 192.40625 " fill-opacity="1" fill-rule="nonzero"/><path fill="#000000" d="M 262.628906 253.347656 L 241.480469 253.347656 C 236.785156 253.347656 232.976562 257.148438 232.976562 261.839844 L 232.976562 282.953125 C 232.976562 287.640625 236.785156 291.441406 241.480469 291.441406 L 262.628906 291.441406 C 267.324219 291.441406 271.128906 287.640625 271.128906 282.953125 L 271.128906 261.839844 C 271.128906 257.140625 267.324219 253.347656 262.628906 253.347656 Z M 262.628906 253.347656 " fill-opacity="1" fill-rule="nonzero"/><g clip-path="url(#ec4cc4f609)"><path fill="#000000" d="M 117.460938 104.160156 C 125.785156 104.160156 132.523438 97.425781 132.523438 89.121094 L 132.523438 52.265625 C 132.523438 43.957031 125.777344 37.226562 117.460938 37.226562 C 109.144531 37.226562 102.398438 43.964844 102.398438 52.265625 L 102.398438 89.121094 C 102.398438 97.425781 109.136719 104.160156 117.460938 104.160156 Z M 117.460938 104.160156 " fill-opacity="1" fill-rule="nonzero"/></g><g clip-path="url(#d57cdf4b6c)"><path fill="#000000" d="M 288.402344 76.222656 L 278.402344 76.222656 L 278.402344 89.121094 C 278.402344 102.074219 267.855469 112.605469 254.882812 112.605469 C 241.910156 112.605469 231.363281 102.066406 231.363281 89.121094 L 231.363281 76.222656 L 140.980469 76.222656 L 140.980469 89.121094 C 140.980469 102.074219 130.433594 112.605469 117.460938 112.605469 C 104.488281 112.605469 93.941406 102.066406 93.941406 89.121094 L 93.941406 76.222656 L 83.933594 76.222656 C 59.351562 76.222656 39.359375 96.1875 39.359375 120.734375 L 39.359375 296.707031 C 39.359375 321.25 59.351562 341.21875 83.933594 341.21875 L 288.394531 341.21875 C 312.976562 341.21875 332.976562 321.257812 332.976562 296.707031 L 332.976562 120.726562 C 332.984375 96.1875 312.984375 76.222656 288.402344 76.222656 Z M 307.234375 296.707031 C 307.234375 307.089844 298.800781 315.507812 288.402344 315.507812 L 83.941406 315.507812 C 73.542969 315.507812 65.109375 307.089844 65.109375 296.707031 L 65.109375 177.15625 C 65.109375 172.289062 69.0625 168.339844 73.9375 168.339844 L 298.410156 168.339844 C 303.285156 168.339844 307.242188 172.289062 307.242188 177.15625 L 307.242188 296.707031 Z M 307.234375 296.707031 " fill-opacity="1" fill-rule="nonzero"/></g><g clip-path="url(#789c1438d6)"><path fill="#000000" d="M 254.875 104.160156 C 263.195312 104.160156 269.9375 97.425781 269.9375 89.121094 L 269.9375 52.265625 C 269.9375 43.957031 263.1875 37.226562 254.875 37.226562 C 246.558594 37.226562 239.808594 43.964844 239.808594 52.265625 L 239.808594 89.121094 C 239.808594 97.425781 246.558594 104.160156 254.875 104.160156 Z M 254.875 104.160156 " fill-opacity="1" fill-rule="nonzero"/></g></svg>